#N canvas 686 35 677 708 12;
#X obj 25 135 inlet~;
#X obj 351 54 cnv 15 84 105 empty \$0-text empty 20 12 0 14 #fcfcfc
#000000 0;
#X obj 361 79 nbx 5 15 0 1e+37 0 0 \$0-freq-low \$0-freq-low-r hz 59
8 0 10 #000000 #fcfcfc #000000 0 256;
#X obj 361 119 nbx 5 15 0 1e+37 0 0 \$0-freq-hi \$0-freq-hi-r hz 59
8 0 10 #000000 #fcfcfc #000000 0 256;
#X obj 355 59 cnv 15 15 15 empty \$0-text low 0 6 0 10 #fcfcfc #000000
0;
#X obj 377 59 nbx 3 15 -100 12 0 0 \$0-low \$0-low-r dB 42 8 0 10 #000000
#fcfcfc #000000 0 256;
#X obj 269 244 dbtorms;
#X obj 269 220 + 100;
#X obj 367 244 dbtorms;
#X obj 367 220 + 100;
#X obj 465 244 dbtorms;
#X obj 465 220 + 100;
#X obj 408 375 r \$0-state;
#X obj 408 405 outlet;
#X obj 475 70 inlet;
#N canvas 914 35 449 708 route-inlet-messages 0;
#X obj 12 12 inlet;
#X obj 20 551 r \$0-error;
#X msg 303 61 0;
#X obj 198 391 s \$0-error;
#N canvas 1027 35 336 708 state 0;
#X obj 66 30 inlet;
#X obj 66 59 t b b;
#X msg 98 88 set;
#X obj 66 166 s \$0-state;
#N canvas 1096 35 267 708 global 0;
#X obj 54 60 f;
#X obj 54 7 inlet;
#X obj 54 242 outlet;
#X obj 136 141 r \$0-freq-low;
#X obj 163 83 r \$0-freq-hi;
#X obj 54 170 pack f f f f f f, f 20;
#X obj 72 36 r \$0-low;
#X obj 81 83 r \$0-mid;
#X obj 108 112 r \$0-hi;
#X msg 54 199 add2 low \$1 \, addcomma \, add2 mid \$2 \, addcomma
\, add2 hi \$3 \, addcomma \, add2 freq low \$4 \, addcomma \, add2
freq hi \$5;
#X connect 0 0 5 0;
#X connect 1 0 0 0;
#X connect 3 0 5 3;
#X connect 4 0 5 4;
#X connect 5 0 9 0;
#X connect 6 0 0 1;
#X connect 7 0 5 1;
#X connect 8 0 5 2;
#X connect 9 0 2 0;
#X restore 66 127 pd global;
#X connect 0 0 1 0;
#X connect 1 0 4 0;
#X connect 1 1 2 0;
#X connect 2 0 3 0;
#X connect 4 0 3 0;
#X restore 160 361 pd state;
#X obj 22 116 s \$0-low-r;
#N canvas 1027 35 336 708 freq 0;
#X obj 34 32 inlet;
#X obj 34 62 route low hi;
#X obj 115 282 s \$0-error;
#X msg 152 62 500;
#X msg 187 62 2000;
#X obj 152 32 loadbang;
#X msg 44 92 set \$1;
#X obj 44 117 s \$0-freq-low-r;
#X obj 34 142 s \$0-freq-low;
#X msg 84 172 set \$1;
#X obj 84 197 s \$0-freq-hi-r;
#X obj 74 222 s \$0-freq-hi;
#X connect 0 0 1 0;
#X connect 1 0 6 0;
#X connect 1 0 8 0;
#X connect 1 1 9 0;
#X connect 1 1 11 0;
#X connect 1 2 2 0;
#X connect 3 0 7 0;
#X connect 4 0 10 0;
#X connect 5 0 3 0;
#X connect 5 0 4 0;
#X connect 6 0 7 0;
#X connect 9 0 10 0;
#X restore 123 91 pd freq;
#X obj 303 32 loadbang;
#X msg 20 601 se recibió un mensaje desconocido;
#X msg 20 576 bang;
#X obj 20 626 print 3bandsplit~;
#X msg 22 91 set \$1;
#X obj 12 141 s \$0-low;
#X msg 59 171 set \$1;
#X obj 59 196 s \$0-mid-r;
#X obj 49 221 s \$0-mid;
#X msg 96 251 set \$1;
#X obj 96 276 s \$0-hi-r;
#X obj 86 301 s \$0-hi;
#X msg 338 61 1;
#X obj 12 61 route low mid hi freq state;
#X connect 0 0 20 0;
#X connect 1 0 9 0;
#X connect 2 0 5 0;
#X connect 2 0 14 0;
#X connect 2 0 17 0;
#X connect 7 0 2 0;
#X connect 7 0 19 0;
#X connect 8 0 10 0;
#X connect 9 0 8 0;
#X connect 11 0 5 0;
#X connect 13 0 14 0;
#X connect 16 0 17 0;
#X connect 20 0 11 0;
#X connect 20 0 12 0;
#X connect 20 1 13 0;
#X connect 20 1 15 0;
#X connect 20 2 16 0;
#X connect 20 2 18 0;
#X connect 20 3 6 0;
#X connect 20 4 4 0;
#X connect 20 5 3 0;
#X restore 475 99 pd route-inlet-messages;
#X obj 355 99 cnv 15 15 15 empty \$0-text mid 0 6 0 10 #fcfcfc #000000
0;
#X obj 377 99 nbx 3 15 -100 12 0 0 \$0-mid \$0-mid-r dB 42 8 0 10 #000000
#fcfcfc #000000 0 256;
#X obj 358 139 cnv 15 15 15 empty \$0-text hi 0 6 0 10 #fcfcfc #000000
0;
#X obj 377 139 nbx 3 15 -100 12 0 0 \$0-hi \$0-hi-r dB 42 8 0 10 #000000
#fcfcfc #000000 0 256;
#X obj 268 196 r \$0-low;
#X obj 367 196 r \$0-mid;
#X obj 465 196 r \$0-hi;
#X obj 465 268 s \$0-hi-rms;
#X obj 367 268 s \$0-mid-rms;
#X obj 269 268 s \$0-low-rms;
#X obj 25 405 outlet~;
#X obj 141 405 outlet~;
#X obj 257 405 outlet~;
#N canvas 3 35 1360 708 3bands 0;
#X obj 21 328 *~;
#X obj 177 328 *~;
#X obj 343 328 *~;
#X obj 21 357 outlet~;
#X obj 177 62 inlet~;
#X obj 177 140 hip~;
#X obj 177 203 lop~;
#X obj 343 203 hip~;
#X obj 21 203 lop~;
#X obj 116 101 r \$0-freq-low;
#X obj 368 101 r \$0-freq-hi;
#X obj 177 357 outlet~;
#X obj 343 357 outlet~;
#X obj 39 256 r \$0-low-rms;
#X obj 195 256 r \$0-mid-rms;
#X obj 361 256 r \$0-hi-rms;
#X obj 21 227 lop~;
#X obj 177 227 lop~;
#X obj 177 164 hip~;
#X obj 343 227 hip~;
#X msg 39 280 \$1 10;
#X obj 39 304 line~;
#X msg 195 280 \$1 10;
#X obj 195 304 line~;
#X msg 361 280 \$1 10;
#X obj 361 304 line~;
#X connect 0 0 3 0;
#X connect 1 0 11 0;
#X connect 2 0 12 0;
#X connect 4 0 5 0;
#X connect 4 0 7 0;
#X connect 4 0 8 0;
#X connect 5 0 18 0;
#X connect 6 0 17 0;
#X connect 7 0 19 0;
#X connect 8 0 16 0;
#X connect 9 0 5 1;
#X connect 9 0 8 1;
#X connect 9 0 16 1;
#X connect 9 0 18 1;
#X connect 10 0 6 1;
#X connect 10 0 7 1;
#X connect 10 0 17 1;
#X connect 13 0 20 0;
#X connect 14 0 22 0;
#X connect 15 0 24 0;
#X connect 16 0 0 0;
#X connect 17 0 1 0;
#X connect 18 0 6 0;
#X connect 19 0 2 0;
#X connect 20 0 21 0;
#X connect 21 0 0 1;
#X connect 22 0 23 0;
#X connect 23 0 1 1;
#X connect 24 0 25 0;
#X connect 25 0 2 1;
#X restore 25 165 pd 3bands;
#X obj 112 135 inlet~;
#X obj 83 405 outlet~;
#X obj 199 405 outlet~;
#X obj 315 405 outlet~;
#N canvas 914 35 1366 685 3bands 0;
#X obj 21 328 *~;
#X obj 177 328 *~;
#X obj 343 328 *~;
#X obj 21 357 outlet~;
#X obj 177 62 inlet~;
#X obj 177 140 hip~;
#X obj 177 203 lop~;
#X obj 343 203 hip~;
#X obj 21 203 lop~;
#X obj 116 101 r \$0-freq-low;
#X obj 368 101 r \$0-freq-hi;
#X obj 177 357 outlet~;
#X obj 343 357 outlet~;
#X obj 39 256 r \$0-low-rms;
#X obj 195 256 r \$0-mid-rms;
#X obj 361 256 r \$0-hi-rms;
#X obj 21 227 lop~;
#X obj 177 227 lop~;
#X obj 177 164 hip~;
#X obj 343 227 hip~;
#X msg 39 280 \$1 10;
#X obj 39 304 line~;
#X msg 195 280 \$1 10;
#X obj 195 304 line~;
#X msg 361 280 \$1 10;
#X obj 361 304 line~;
#X connect 0 0 3 0;
#X connect 1 0 11 0;
#X connect 2 0 12 0;
#X connect 4 0 5 0;
#X connect 4 0 7 0;
#X connect 4 0 8 0;
#X connect 5 0 18 0;
#X connect 6 0 17 0;
#X connect 7 0 19 0;
#X connect 8 0 16 0;
#X connect 9 0 5 1;
#X connect 9 0 8 1;
#X connect 9 0 16 1;
#X connect 9 0 18 1;
#X connect 10 0 6 1;
#X connect 10 0 7 1;
#X connect 10 0 17 1;
#X connect 13 0 20 0;
#X connect 14 0 22 0;
#X connect 15 0 24 0;
#X connect 16 0 0 0;
#X connect 17 0 1 0;
#X connect 18 0 6 0;
#X connect 19 0 2 0;
#X connect 20 0 21 0;
#X connect 21 0 0 1;
#X connect 22 0 23 0;
#X connect 23 0 1 1;
#X connect 24 0 25 0;
#X connect 25 0 2 1;
#X restore 112 165 pd 3bands;
#X connect 0 0 29 0;
#X connect 6 0 25 0;
#X connect 7 0 6 0;
#X connect 8 0 24 0;
#X connect 9 0 8 0;
#X connect 10 0 23 0;
#X connect 11 0 10 0;
#X connect 12 0 13 0;
#X connect 14 0 15 0;
#X connect 20 0 7 0;
#X connect 21 0 9 0;
#X connect 22 0 11 0;
#X connect 29 0 26 0;
#X connect 29 1 27 0;
#X connect 29 2 28 0;
#X connect 30 0 34 0;
#X connect 34 0 31 0;
#X connect 34 1 32 0;
#X connect 34 2 33 0;
#X coords 0 -1 1 1 86 113 2 350 50;
