#N canvas 686 35 677 708 12;
#X obj 584 126 cnv 15 499 111 empty empty empty 20 12 0 14 -204800
-66577 0;
#X msg 594 142 set foo;
#X obj 12 126 cnv 15 511 224 empty empty empty 20 12 0 14 -203904 -66577
0;
#X obj 12 39 cnv 15 134 39 empty empty empty 20 12 0 14 -203904 -66577
0;
#X obj 22 49 sig~;
#X text 9 11 INLET 0:;
#X obj 157 39 cnv 15 134 39 empty empty empty 20 12 0 14 -203904 -66577
0;
#X obj 167 49 sig~;
#X text 154 11 INLET 1:;
#X text 9 98 INLET 2:;
#X msg 22 136 low \$1;
#X msg 22 166 mid \$1;
#X msg 22 195 hi \$1;
#X msg 22 253 freq hi \$1;
#X obj 583 39 cnv 15 134 39 empty empty empty 20 12 0 14 -204800 -66577
0;
#X obj 593 49 sig~;
#X obj 728 39 cnv 15 134 39 empty empty empty 20 12 0 14 -204800 -66577
0;
#X obj 738 49 sig~;
#X text 580 11 OUTLET 0:;
#X text 725 11 OUTLET 1:;
#X text 581 98 OUTLET 2:;
#X msg 22 320 state;
#X text 62 49 canal izq.;
#X text 207 49 canal der.;
#X text 633 49 canal izq.;
#X text 778 49 canal der.;
#X text 655 135 donde foo representa una lista de todos los parámetros
correctamente formateados para ser enviados de vuelta a la abstracción
\, en otras palabras \, conectar esta salida a un mensaje y cuando
la abstracción reciba el mensaje [state(] \, se guardará el estado
actual de la abstracción (tener en cuenta que el mensaje se vaciará
antes de escribir en él);
#X text 76 136 ganancia de banda grave (dB);
#X msg 22 224 freq low \$1;
#X text 76 166 ganancia de banda media (dB);
#X text 69 195 ganancia de banda aguda (dB);
#X text 104 253 piso de banda aguda (hz);
#X text 110 224 techo de banda grave (hz);
#X text 69 320 escribir un mensaje con el estado actual de la abstracción
;
#X msg 22 282 bypass \$1;
#X text 96 275 ignora o no los efectos del objeto sobre la señal (distinto
de cero y 0 respectivamente);
#X obj 12 629 loadbang;
#X msg 12 654 0;
#X obj 12 679 switch~;
#X connect 10 0 11 0;
#X connect 11 0 12 0;
#X connect 12 0 28 0;
#X connect 13 0 34 0;
#X connect 28 0 13 0;
#X connect 34 0 21 0;
#X connect 36 0 37 0;
#X connect 37 0 38 0;
