#N canvas 688 43 677 708 12;
#X obj 25 135 inlet~;
#X obj 25 343 outlet~;
#X obj 351 54 cnv 15 84 120 empty \$0-text empty 20 12 0 14 #fcfcfc
#000000 0;
#X obj 361 79 nbx 5 15 0 1e+37 0 0 \$0-freq-low \$0-freq-low-r hz 59
8 0 10 #000000 #fcfcfc #000000 0 256;
#X obj 361 119 nbx 5 15 0 1e+37 0 0 \$0-freq-hi \$0-freq-hi-r hz 59
8 0 10 #000000 #fcfcfc #000000 0 256;
#X obj 355 59 cnv 15 15 15 empty \$0-text low 0 6 0 10 #fcfcfc #000000
0;
#X obj 377 59 nbx 3 15 -100 12 0 0 \$0-low-s \$0-low-r dB 42 8 0 10
#000000 #fcfcfc #000000 0 256;
#X obj 479 274 dbtorms;
#X obj 479 250 + 100;
#X obj 563 274 dbtorms;
#X obj 563 250 + 100;
#X obj 654 274 dbtorms;
#X obj 654 250 + 100;
#X obj 260 313 r \$0-state;
#X obj 260 343 outlet;
#X obj 585 120 inlet;
#N canvas 914 35 449 708 route-inlet-messages 0;
#X obj 12 12 inlet;
#X obj 53 235 r \$0-error;
#X msg 303 61 0;
#X obj 247 216 s \$0-error;
#N canvas 676 0 681 676 state 0;
#X obj 66 30 inlet;
#X obj 66 59 t b b;
#X msg 98 88 set;
#X obj 66 166 s \$0-state;
#N canvas 698 271 669 300 global 0;
#X obj 54 60 f;
#X obj 54 7 inlet;
#X obj 54 242 outlet;
#X obj 72 36 r \$0-low-s;
#X obj 88 83 r \$0-mid-s;
#X obj 122 112 r \$0-hi-s;
#X obj 156 141 r \$0-freq-low;
#X obj 191 83 r \$0-freq-hi;
#X obj 54 170 pack f f f f f, f 20;
#X msg 54 199 add2 low \$1 \, addcomma \, add2 mid \$2 \, addcomma
\, add2 hi \$3 \, addcomma \, add2 freq low \$4 \, addcomma \, add2
freq hi \$5;
#X connect 0 0 8 0;
#X connect 1 0 0 0;
#X connect 3 0 0 1;
#X connect 4 0 8 1;
#X connect 5 0 8 2;
#X connect 6 0 8 3;
#X connect 7 0 8 4;
#X connect 8 0 9 0;
#X connect 9 0 2 0;
#X restore 66 127 pd global;
#X connect 0 0 1 0;
#X connect 1 0 4 0;
#X connect 1 1 2 0;
#X connect 2 0 3 0;
#X connect 4 0 3 0;
#X restore 207 187 pd state;
#X obj 90 119 s \$0-hi-r;
#X obj 51 148 s \$0-mid-r;
#X obj 12 119 s \$0-low-r;
#N canvas 0 50 450 300 freq 0;
#X obj 134 33 inlet;
#X obj 134 91 s \$0-freq-low-r;
#X obj 174 120 s \$0-freq-hi-r;
#X obj 134 62 route low hi;
#X obj 215 179 s \$0-error;
#X msg 252 62 500;
#X msg 287 91 2000;
#X obj 252 33 loadbang;
#X connect 0 0 3 0;
#X connect 3 0 1 0;
#X connect 3 1 2 0;
#X connect 3 2 4 0;
#X connect 5 0 1 0;
#X connect 6 0 2 0;
#X connect 7 0 5 0;
#X connect 7 0 6 0;
#X restore 129 148 pd freq;
#X msg 338 61 1;
#X obj 303 32 loadbang;
#X obj 168 90 != 0;
#X obj 12 61 route low mid hi freq bypass state;
#X msg 53 285 se recibió un mensaje desconocido;
#X obj 168 119 s \$0-byp-r;
#X obj 53 310 print 3band~;
#X msg 53 260 bang;
#X connect 0 0 12 0;
#X connect 1 0 16 0;
#X connect 2 0 5 0;
#X connect 2 0 6 0;
#X connect 2 0 7 0;
#X connect 2 0 11 0;
#X connect 10 0 2 0;
#X connect 10 0 9 0;
#X connect 11 0 14 0;
#X connect 12 0 7 0;
#X connect 12 1 6 0;
#X connect 12 2 5 0;
#X connect 12 3 8 0;
#X connect 12 4 11 0;
#X connect 12 5 4 0;
#X connect 12 6 3 0;
#X connect 13 0 15 0;
#X connect 16 0 13 0;
#X restore 585 149 pd route-inlet-messages;
#X obj 478 226 r \$0-low-s;
#X obj 563 226 r \$0-mid-s;
#X obj 654 226 r \$0-hi-s;
#X obj 479 298 s \$0-low;
#X obj 563 298 s \$0-mid;
#X obj 654 298 s \$0-hi;
#X obj 137 135 inlet~;
#X obj 137 343 outlet~;
#X obj 355 99 cnv 15 15 15 empty \$0-text mid 0 6 0 10 #fcfcfc #000000
0;
#X obj 377 99 nbx 3 15 -100 12 0 0 \$0-mid-s \$0-mid-r dB 42 8 0 10
#000000 #fcfcfc #000000 0 256;
#X obj 358 139 cnv 15 15 15 empty \$0-text hi 0 6 0 10 #fcfcfc #000000
0;
#X obj 377 139 nbx 3 15 -100 12 0 0 \$0-hi-s \$0-hi-r dB 42 8 0 10
#000000 #fcfcfc #000000 0 256;
#X obj 43 53 r \$0-byp;
#X msg 43 82 \$1 1;
#X obj 43 106 line~;
#X obj 25 184 *~;
#X obj 137 184 *~;
#N canvas 498 132 1366 685 3bands 1;
#X obj 21 313 *~;
#X obj 107 313 *~;
#X obj 200 313 *~;
#X obj 107 372 outlet~;
#X obj 107 11 inlet~;
#X obj 107 119 hip~;
#X obj 107 182 lop~;
#X obj 200 182 hip~;
#X obj 21 182 lop~;
#X obj 76 80 r \$0-freq-low;
#X obj 195 80 r \$0-freq-hi;
#X obj 218 241 r \$0-hi;
#X obj 125 241 r \$0-mid;
#X obj 39 241 r \$0-low;
#X obj 325 57 r \$0-byp;
#X obj 325 216 switch~;
#X obj 325 129 t b f;
#X obj 325 177 f, f 5;
#X obj 325 153 delay 2;
#X msg 325 105 0;
#X obj 325 81 sel 1 0, f 13;
#X msg 369 177 1;
#X msg 39 265 \$1 10;
#X obj 39 289 line~;
#X msg 125 265 \$1 10;
#X obj 125 289 line~;
#X msg 218 265 \$1 10;
#X obj 218 289 line~;
#X connect 0 0 3 0;
#X connect 1 0 3 0;
#X connect 2 0 3 0;
#X connect 4 0 5 0;
#X connect 4 0 7 0;
#X connect 4 0 8 0;
#X connect 5 0 6 0;
#X connect 6 0 1 0;
#X connect 7 0 2 0;
#X connect 8 0 0 0;
#X connect 9 0 5 1;
#X connect 9 0 8 1;
#X connect 10 0 6 1;
#X connect 10 0 7 1;
#X connect 11 0 26 0;
#X connect 12 0 24 0;
#X connect 13 0 22 0;
#X connect 14 0 20 0;
#X connect 16 0 18 0;
#X connect 16 1 17 1;
#X connect 17 0 15 0;
#X connect 18 0 17 0;
#X connect 19 0 16 0;
#X connect 20 0 19 0;
#X connect 20 1 21 0;
#X connect 21 0 15 0;
#X connect 22 0 23 0;
#X connect 23 0 0 1;
#X connect 24 0 25 0;
#X connect 25 0 1 1;
#X connect 26 0 27 0;
#X connect 27 0 2 1;
#X restore 172 184 pd 3bands;
#X obj 190 237 == 0;
#N canvas 527 27 677 708 3bands 0;
#X obj 21 313 *~;
#X obj 107 313 *~;
#X obj 200 313 *~;
#X obj 107 372 outlet~;
#X obj 107 11 inlet~;
#X obj 107 119 hip~;
#X obj 107 182 lop~;
#X obj 200 182 hip~;
#X obj 21 182 lop~;
#X obj 76 80 r \$0-freq-low;
#X obj 195 80 r \$0-freq-hi;
#X obj 218 241 r \$0-hi;
#X obj 125 241 r \$0-mid;
#X obj 39 241 r \$0-low;
#X obj 325 57 r \$0-byp;
#X obj 325 216 switch~;
#X obj 325 129 t b f;
#X obj 325 177 f, f 5;
#X obj 325 153 delay 2;
#X msg 325 105 0;
#X obj 325 81 sel 1 0, f 13;
#X msg 369 177 1;
#X msg 39 265 \$1 10;
#X obj 39 289 line~;
#X msg 125 265 \$1 10;
#X obj 125 289 line~;
#X msg 218 265 \$1 10;
#X obj 218 289 line~;
#X connect 0 0 3 0;
#X connect 1 0 3 0;
#X connect 2 0 3 0;
#X connect 4 0 5 0;
#X connect 4 0 7 0;
#X connect 4 0 8 0;
#X connect 5 0 6 0;
#X connect 6 0 1 0;
#X connect 7 0 2 0;
#X connect 8 0 0 0;
#X connect 9 0 5 1;
#X connect 9 0 8 1;
#X connect 10 0 6 1;
#X connect 10 0 7 1;
#X connect 11 0 26 0;
#X connect 12 0 24 0;
#X connect 13 0 22 0;
#X connect 14 0 20 0;
#X connect 16 0 18 0;
#X connect 16 1 17 1;
#X connect 17 0 15 0;
#X connect 18 0 17 0;
#X connect 19 0 16 0;
#X connect 20 0 19 0;
#X connect 20 1 21 0;
#X connect 21 0 15 0;
#X connect 22 0 23 0;
#X connect 23 0 0 1;
#X connect 24 0 25 0;
#X connect 25 0 1 1;
#X connect 26 0 27 0;
#X connect 27 0 2 1;
#X restore 60 184 pd 3bands;
#X obj 358 159 tgl 10 0 \$0-byp \$0-byp-r bypass 15 5 0 10 #000000
#fcfcfc #000000 0 1;
#X obj 172 314 *~;
#X obj 60 314 *~;
#X obj 190 285 line~;
#X obj 190 213 r \$0-byp;
#X msg 190 261 \$1 1;
#X connect 0 0 36 0;
#X connect 0 0 32 0;
#X connect 7 0 20 0;
#X connect 8 0 7 0;
#X connect 9 0 21 0;
#X connect 10 0 9 0;
#X connect 11 0 22 0;
#X connect 12 0 11 0;
#X connect 13 0 14 0;
#X connect 15 0 16 0;
#X connect 17 0 8 0;
#X connect 18 0 10 0;
#X connect 19 0 12 0;
#X connect 23 0 33 0;
#X connect 23 0 34 0;
#X connect 29 0 30 0;
#X connect 30 0 31 0;
#X connect 31 0 32 1;
#X connect 31 0 33 1;
#X connect 32 0 1 0;
#X connect 33 0 24 0;
#X connect 34 0 38 0;
#X connect 35 0 42 0;
#X connect 36 0 39 0;
#X connect 38 0 24 0;
#X connect 39 0 1 0;
#X connect 40 0 38 1;
#X connect 40 0 39 1;
#X connect 41 0 35 0;
#X connect 42 0 40 0;
#X coords 0 -1 1 1 86 128 2 350 50;
