#N canvas 4 26 1366 685 12;
#X obj 14 24 inlet~;
#X obj 70 24 inlet~;
#X obj 126 24 inlet~;
#X obj 182 24 inlet~;
#X obj 14 310 outlet~;
#X obj 182 310 outlet~;
#X obj 238 24 inlet;
#X obj 14 204 *~;
#X obj 70 204 *~;
#X msg 288 101 \$1 10;
#X obj 288 125 line~;
#X obj 238 48 != 0;
#X obj 126 204 *~;
#X obj 182 204 *~;
#X obj 238 77 == 0;
#X obj 238 125 line~;
#X msg 238 101 \$1 10;
#X connect 0 0 7 0;
#X connect 1 0 8 0;
#X connect 2 0 12 0;
#X connect 3 0 13 0;
#X connect 6 0 11 0;
#X connect 7 0 4 0;
#X connect 8 0 5 0;
#X connect 9 0 10 0;
#X connect 10 0 13 1;
#X connect 10 0 12 1;
#X connect 11 0 9 0;
#X connect 11 0 14 0;
#X connect 12 0 4 0;
#X connect 13 0 5 0;
#X connect 14 0 16 0;
#X connect 15 0 8 1;
#X connect 15 0 7 1;
#X connect 16 0 15 0;
