#N canvas 686 35 677 708 12;
#X obj 56 121 nbx 4 15 2 400 0 0 \$0-att \$0-att-r att 0 -8 0 10 -1
-262144 -1 2 256;
#X obj 106 122 cnv 15 15 15 empty \$0-text ms 0 6 0 10 -262144 -1 0
;
#X obj 56 153 nbx 4 15 2 400 0 0 \$0-rel \$0-rel-r rel 0 -8 0 10 -1
-262144 -1 2 256;
#X obj 106 154 cnv 15 15 15 empty \$0-text ms 0 6 0 10 -262144 -1 0
;
#X obj 353 427 inlet~;
#X obj 514 427 inlet~;
#X obj 329 617 outlet~;
#X obj 490 617 outlet~;
#X obj 570 427 inlet~;
#X obj 19 525 *~ -1;
#X obj 19 607 +~;
#X obj 132 111 vu 10 80 empty empty -1 -8 0 12 -262144 -262144 0 0
;
#N canvas 329 161 625 417 vu 0;
#X obj 59 129 env~ 1024;
#X obj 161 111 abs~;
#X obj 161 213 snapshot~;
#X obj 161 256 rmstodb;
#X obj 161 21 inlet~;
#X obj 161 288 - 100;
#X obj 59 287 - 100;
#X obj 59 361 outlet;
#X obj 161 361 outlet;
#X text 344 307 Check the help file of env~ and slop~ for more details.
, f 31;
#X obj 239 89 expr 1000 / $f1;
#X floatatom 239 117 5 0 0 0 - - -;
#X obj 161 146 slop~ 0 0 0 0 1e+09;
#X text 359 89 convert to hz;
#X text 282 118 hz;
#X text 284 57 peak decay time in ms;
#X obj 59 171 t f b;
#X text 345 132 The env~ object is dedicated to RMS analysis. Its output
is in dB (0-100 range \, pd style) but needs to be converted to dBFS
(and we do that by simply subtracting 100)., f 31;
#X text 345 225 The slop~ object is used here for peak detection. We
need to convert the output to dB with rmstodb and also subtract by
100 to convert it to dBFS., f 31;
#X obj 239 31 loadbang;
#X msg 239 60 500;
#X connect 0 0 16 0;
#X connect 1 0 12 0;
#X connect 2 0 3 0;
#X connect 3 0 5 0;
#X connect 4 0 0 0;
#X connect 4 0 1 0;
#X connect 5 0 8 0;
#X connect 6 0 7 0;
#X connect 10 0 11 0;
#X connect 11 0 12 3;
#X connect 12 0 2 0;
#X connect 16 0 6 0;
#X connect 16 1 2 0;
#X connect 19 0 20 0;
#X connect 20 0 10 0;
#X restore 19 637 pd vu;
#X obj 59 227 hsl 73 10 1 10 0 0 \$0-ratio \$0-ratio-r  1 73 5 0 10
-1 -262144 -1 0 0;
#X obj 68 525 *~ -1;
#X obj 68 607 +~;
#X obj 144 111 vu 10 80 empty empty -1 -8 0 12 -262144 -262144 0 0
;
#N canvas 329 161 625 417 vu 0;
#X obj 59 129 env~ 1024;
#X obj 161 111 abs~;
#X obj 161 213 snapshot~;
#X obj 161 256 rmstodb;
#X obj 161 21 inlet~;
#X obj 161 288 - 100;
#X obj 59 287 - 100;
#X obj 59 361 outlet;
#X obj 161 361 outlet;
#X text 344 307 Check the help file of env~ and slop~ for more details.
, f 31;
#X obj 239 89 expr 1000 / $f1;
#X floatatom 239 117 5 0 0 0 - - -;
#X obj 161 146 slop~ 0 0 0 0 1e+09;
#X text 359 89 convert to hz;
#X text 282 118 hz;
#X text 284 57 peak decay time in ms;
#X obj 59 171 t f b;
#X text 345 132 The env~ object is dedicated to RMS analysis. Its output
is in dB (0-100 range \, pd style) but needs to be converted to dBFS
(and we do that by simply subtracting 100)., f 31;
#X text 345 225 The slop~ object is used here for peak detection. We
need to convert the output to dB with rmstodb and also subtract by
100 to convert it to dBFS., f 31;
#X obj 239 31 loadbang;
#X msg 239 60 500;
#X connect 0 0 16 0;
#X connect 1 0 12 0;
#X connect 2 0 3 0;
#X connect 3 0 5 0;
#X connect 4 0 0 0;
#X connect 4 0 1 0;
#X connect 5 0 8 0;
#X connect 6 0 7 0;
#X connect 10 0 11 0;
#X connect 11 0 12 3;
#X connect 12 0 2 0;
#X connect 16 0 6 0;
#X connect 16 1 2 0;
#X connect 19 0 20 0;
#X connect 20 0 10 0;
#X restore 68 637 pd vu;
#X obj 725 76 inlet;
#N canvas 914 35 449 708 route-inlet-messages 0;
#X obj 12 12 inlet;
#X obj 28 424 r \$0-error;
#X obj 275 391 s \$0-error;
#N canvas 459 35 449 708 state 0;
#X obj 66 30 inlet;
#X obj 66 59 t b b;
#X msg 98 88 set;
#X obj 66 166 s \$0-state;
#N canvas 3 35 1360 708 global 0;
#X obj 54 60 f;
#X obj 54 7 inlet;
#X obj 54 294 outlet;
#X obj 72 36 r \$0-threshold;
#X obj 77 90 r \$0-ratio;
#X obj 101 120 r \$0-att;
#X obj 149 180 r \$0-sc;
#X obj 125 150 r \$0-rel;
#X obj 54 210 pack f f f f f;
#X msg 54 238 add2 threshold \$1 \, addcomma \, add2 ratio \$2 \, addcomma
\, add2 att \$3 \, addcomma \, add2 rel \$4 \, addcomma \, add2 sc
\$5;
#X connect 0 0 8 0;
#X connect 1 0 0 0;
#X connect 3 0 0 1;
#X connect 4 0 8 1;
#X connect 5 0 8 2;
#X connect 6 0 8 4;
#X connect 7 0 8 3;
#X connect 8 0 9 0;
#X connect 9 0 2 0;
#X restore 66 127 pd global;
#X connect 0 0 1 0;
#X connect 1 0 4 0;
#X connect 1 1 2 0;
#X connect 2 0 3 0;
#X connect 4 0 3 0;
#X restore 231 361 pd state;
#X msg 347 61 1;
#X msg 382 61 0;
#X obj 347 32 loadbang;
#X msg 28 474 se recibió un mensaje desconocido;
#X obj 28 499 print comp~;
#X obj 12 141 s \$0-threshold;
#X msg 22 91 set \$1;
#X obj 22 116 s \$0-threshold-r;
#X msg 65 171 set \$1;
#X obj 65 196 s \$0-ratio-r;
#X obj 55 221 s \$0-ratio;
#X msg 109 251 set \$1;
#X obj 109 276 s \$0-att-r;
#X obj 99 301 s \$0-att;
#X msg 153 91 set \$1;
#X msg 28 449 bang;
#X obj 153 116 s \$0-rel-r;
#X obj 143 141 s \$0-rel;
#X msg 197 171 set \$1;
#X obj 187 221 s \$0-sc;
#X obj 197 196 s \$0-sc-r;
#X msg 417 61 2;
#X obj 12 61 route threshold ratio att rel sc bypass state;
#X msg 287 265 set \$1;
#X obj 277 240 != 0;
#X obj 287 290 s \$0-bypass-r;
#X obj 277 315 s \$0-bypass;
#X connect 0 0 26 0;
#X connect 1 0 19 0;
#X connect 4 0 13 0;
#X connect 5 0 11 0;
#X connect 5 0 29 0;
#X connect 6 0 4 0;
#X connect 6 0 5 0;
#X connect 6 0 25 0;
#X connect 7 0 8 0;
#X connect 10 0 11 0;
#X connect 12 0 13 0;
#X connect 15 0 16 0;
#X connect 18 0 20 0;
#X connect 19 0 7 0;
#X connect 22 0 24 0;
#X connect 25 0 16 0;
#X connect 25 0 20 0;
#X connect 26 0 9 0;
#X connect 26 0 10 0;
#X connect 26 1 12 0;
#X connect 26 1 14 0;
#X connect 26 2 15 0;
#X connect 26 2 17 0;
#X connect 26 3 18 0;
#X connect 26 3 21 0;
#X connect 26 4 22 0;
#X connect 26 4 23 0;
#X connect 26 5 28 0;
#X connect 26 6 3 0;
#X connect 26 7 2 0;
#X connect 27 0 29 0;
#X connect 28 0 27 0;
#X connect 28 0 30 0;
#X restore 725 105 pd route-inlet-messages;
#X obj 201 138 r \$0-ratio;
#X obj 201 163 * 10;
#X obj 201 188 t f f;
#X obj 233 213 wrap;
#X obj 201 238 -, f 5;
#X obj 201 263 * 0.1;
#X obj 57 213 cnv 10 15 10 empty \$0-txt ratio 0 6 0 10 -262144 -1
0;
#X msg 201 343 label \$1;
#X obj 201 368 s \$0-ratio-r;
#X obj 201 318 symbol;
#X msg 201 288  \$1;
#X obj 59 200 hsl 61 10 -30 0 0 0 \$0-threshold \$0-threshold-r  0
61 5 0 10 -1 -262144 -1 6000 0;
#X obj 57 186 cnv 10 15 10 empty \$0-txt threshold 0 6 0 10 -262144
-1 0;
#X obj 299 163 * 10;
#X obj 299 188 t f f;
#X obj 331 213 wrap;
#X obj 299 238 -, f 5;
#X obj 299 263 * 0.1;
#X msg 299 343 label \$1;
#X obj 299 318 symbol;
#X msg 299 288  \$1;
#X obj 299 368 s \$0-threshold-r;
#X obj 299 138 r \$0-threshold;
#X obj 56 173 tgl 10 0 \$0-sc \$0-sc-r sc 15 5 0 10 -1 -262144 -1 0
1;
#X obj 563 592 r \$0-state;
#X obj 563 617 outlet;
#X obj 56 242 tgl 10 0 \$0-bypass \$0-bypass-r bypass 15 5 0 10 -1
-262144 -1 0 1;
#N canvas 914 35 449 708 effect 0;
#X msg 37 385 control attack\ time \$1;
#X msg 222 385 control release\ time \$1;
#X msg 414 385 control threshold \$1;
#X msg 578 385 control ratio \$1;
#X msg 714 385 control knee\ radius \$1;
#X obj 37 335 r \$0-att;
#X obj 222 335 r \$0-rel;
#X obj 414 355 r \$0-threshold;
#X obj 578 355 r \$0-ratio;
#X obj 133 315 inlet~;
#X obj 294 315 inlet~;
#X obj 109 505 outlet~;
#X obj 270 505 outlet~;
#X obj 714 355 r \$0-knee;
#X obj 350 315 inlet~;
#X msg 899 384 control chain\ balance \$1;
#X obj 899 354 r \$0-sc;
#X obj 37 435 pd-plugin/plugin~ sc3;
#X obj 198 435 pd-plugin/plugin~ sc3;
#X obj 37 360 clip 2 400;
#X obj 222 360 clip 2 800;
#X obj 82 57 r \$0-bypass;
#X obj 82 82 == 0;
#X obj 82 107 switch~;
#X connect 0 0 17 0;
#X connect 0 0 18 0;
#X connect 1 0 17 0;
#X connect 1 0 18 0;
#X connect 2 0 17 0;
#X connect 2 0 18 0;
#X connect 3 0 17 0;
#X connect 3 0 18 0;
#X connect 4 0 17 0;
#X connect 4 0 18 0;
#X connect 5 0 19 0;
#X connect 6 0 20 0;
#X connect 7 0 2 0;
#X connect 8 0 3 0;
#X connect 9 0 17 2;
#X connect 10 0 18 2;
#X connect 13 0 4 0;
#X connect 14 0 17 1;
#X connect 14 0 18 1;
#X connect 15 0 17 0;
#X connect 15 0 18 0;
#X connect 16 0 15 0;
#X connect 17 1 11 0;
#X connect 18 1 12 0;
#X connect 19 0 0 0;
#X connect 20 0 1 0;
#X connect 21 0 22 0;
#X connect 22 0 23 0;
#X restore 328 532 pd effect;
#X obj 253 529 *~;
#X obj 304 496 r \$0-bypass;
#X obj 434 551 *~;
#X connect 4 0 9 0;
#X connect 4 0 47 0;
#X connect 4 0 48 0;
#X connect 5 0 14 0;
#X connect 5 0 47 1;
#X connect 5 0 50 0;
#X connect 8 0 47 2;
#X connect 9 0 10 0;
#X connect 10 0 12 0;
#X connect 12 0 11 0;
#X connect 12 1 11 1;
#X connect 14 0 15 0;
#X connect 15 0 17 0;
#X connect 17 0 16 0;
#X connect 17 1 16 1;
#X connect 18 0 19 0;
#X connect 20 0 21 0;
#X connect 21 0 22 0;
#X connect 22 0 24 0;
#X connect 22 1 23 0;
#X connect 23 0 24 1;
#X connect 24 0 25 0;
#X connect 25 0 30 0;
#X connect 27 0 28 0;
#X connect 29 0 27 0;
#X connect 30 0 29 0;
#X connect 33 0 34 0;
#X connect 34 0 36 0;
#X connect 34 1 35 0;
#X connect 35 0 36 1;
#X connect 36 0 37 0;
#X connect 37 0 40 0;
#X connect 38 0 41 0;
#X connect 39 0 38 0;
#X connect 40 0 39 0;
#X connect 42 0 33 0;
#X connect 44 0 45 0;
#X connect 47 0 10 1;
#X connect 47 0 6 0;
#X connect 47 1 15 1;
#X connect 47 1 7 0;
#X connect 48 0 6 0;
#X connect 49 0 48 1;
#X connect 49 0 50 1;
#X connect 50 0 7 0;
#X coords 0 -1 1 1 111 161 2 50 100;
