#N canvas 686 35 677 708 12;
#X obj 584 126 cnv 15 499 111 empty empty empty 20 12 0 14 -204800
-66577 0;
#X msg 594 142 set foo;
#X obj 12 213 cnv 15 511 238 empty empty empty 20 12 0 14 -203904 -66577
0;
#X obj 12 39 cnv 15 134 39 empty empty empty 20 12 0 14 -203904 -66577
0;
#X obj 22 49 sig~;
#X text 9 11 INLET 0:;
#X obj 157 39 cnv 15 134 39 empty empty empty 20 12 0 14 -203904 -66577
0;
#X obj 167 49 sig~;
#X text 154 11 INLET 1:;
#X obj 583 39 cnv 15 134 39 empty empty empty 20 12 0 14 -204800 -66577
0;
#X obj 593 49 sig~;
#X obj 728 39 cnv 15 134 39 empty empty empty 20 12 0 14 -204800 -66577
0;
#X obj 738 49 sig~;
#X text 580 11 OUTLET 0:;
#X text 725 11 OUTLET 1:;
#X text 581 98 OUTLET 2:;
#X msg 22 421 state;
#X text 62 49 canal izq.;
#X text 207 49 canal der.;
#X text 633 49 canal izq.;
#X text 778 49 canal der.;
#X text 655 135 donde foo representa una lista de todos los parámetros
correctamente formateados para ser enviados de vuelta a la abstracción
\, en otras palabras \, conectar esta salida a un mensaje y cuando
la abstracción reciba el mensaje [state(] \, se guardará el estado
actual de la abstracción (tener en cuenta que el mensaje se vaciará
antes de escribir en él);
#X text 69 421 escribir un mensaje con el estado actual de la abstracción
;
#X msg 22 383 bypass \$1;
#X text 96 376 ignora o no los efectos del objeto sobre la señal (distinto
de cero y 0 respectivamente);
#X text 9 185 INLET 3:;
#X obj 12 126 cnv 15 169 39 empty empty empty 20 12 0 14 -203904 -66577
0;
#X obj 22 136 sig~;
#X text 9 98 INLET 2:;
#X text 62 136 señal sidechain;
#X msg 22 223 threshold \$1;
#X text 117 223 nivel de threshold (dB);
#X msg 22 252 ratio \$1;
#X msg 22 281 att \$1;
#X msg 22 310 rel \$1;
#X msg 22 339 sc \$1;
#X text 68 331 encender o apagar sidechaining (distinto de cero y 0
respectivamente);
#X obj 12 629 loadbang;
#X msg 12 654 0;
#X obj 12 679 switch~;
#X text 89 252 ratio (1 a 10);
#X text 76 281 tiempo de ataque (2 a 400 ms);
#X text 76 310 tiempo de relajación (2 a 800 ms);
#X connect 23 0 16 0;
#X connect 30 0 32 0;
#X connect 32 0 33 0;
#X connect 33 0 34 0;
#X connect 34 0 35 0;
#X connect 35 0 23 0;
#X connect 37 0 38 0;
#X connect 38 0 39 0;
