#N canvas 2 52 1362 692 12;
#X obj 548 126 cnv 15 499 111 empty empty empty 20 12 0 14 -204800
-66577 0;
#X msg 558 142 set foo;
#X obj 12 126 cnv 15 505 325 empty empty empty 20 12 0 14 -203904 -66577
0;
#X obj 12 39 cnv 15 134 39 empty empty empty 20 12 0 14 -203904 -66577
0;
#X obj 22 49 sig~;
#X text 9 11 INLET 0:;
#X obj 157 39 cnv 15 134 39 empty empty empty 20 12 0 14 -203904 -66577
0;
#X obj 167 49 sig~;
#X text 154 11 INLET 1:;
#X obj 547 39 cnv 15 134 39 empty empty empty 20 12 0 14 -204800 -66577
0;
#X obj 557 49 sig~;
#X obj 692 39 cnv 15 134 39 empty empty empty 20 12 0 14 -204800 -66577
0;
#X obj 702 49 sig~;
#X text 544 11 OUTLET 0:;
#X text 689 11 OUTLET 1:;
#X text 545 98 OUTLET 2:;
#X msg 22 421 state;
#X text 62 49 canal izq.;
#X text 597 49 canal izq.;
#X text 207 49 canal der.;
#X text 742 49 canal der.;
#X text 619 135 donde foo representa una lista de todos los parámetros
correctamente formateados para ser enviados de vuelta a la abstracción
\, en otras palabras \, conectar esta salida a un mensaje y cuando
la abstracción reciba el mensaje [state(] \, se guardará el estado
actual de la abstracción (tener en cuenta que el mensaje se vaciará
antes de escribir en él);
#X text 69 421 escribir un mensaje con el estado actual de la abstracción
;
#X obj 12 629 loadbang;
#X msg 12 654 0;
#X obj 12 679 switch~;
#X obj 302 39 cnv 15 170 39 empty empty empty 20 12 0 14 -203904 -66577
0;
#X obj 312 49 sig~;
#X text 299 11 INLET 2:;
#X text 352 49 señal sidechain;
#X text 9 98 INLET 3:;
#X msg 22 136 ratio \$1;
#X msg 22 190 att \$1;
#X msg 22 163 ahead \$1;
#X msg 22 217 rel \$1;
#X text 68 244 usar o no la señal sidechain (distinto de cero y 0
respectivamente);
#X text 88 136 ratio de compresión (0 a 999);
#X text 89 163 tiempo de lookahead (0 a 100 ms);
#X text 76 190 tiempo de ataque (0 a 100 ms);
#X text 76 217 tiempo de relajación (0 a 300 ms);
#X msg 22 251 sc \$1;
#X msg 22 286 thresh \$1;
#X msg 22 313 makeup \$1;
#X text 96 313 ganancia (dB);
#X msg 22 340 mode \$1;
#X text 96 286 threshold (0 a 1 RMS);
#X text 82 340 usar peak o RMS (distinto de cero y 0 respectivamente)
;
#X msg 22 367 mono \$1;
#X text 82 367 usar en mono o stereo (distinto de cero y 0 respectivamente)
;
#X obj 22 394 float;
#X text 68 394 bypass (distinto de cero y 0 respectivamente);
#X obj 549 285 cnv 15 436 96 empty empty empty 20 12 0 14 -204786 -66577
0;
#X text 548 257 ACERCA DE:;
#X text 557 294 compresor básico "transparente" con posibilidad de
sidechaining \, lookahead y expansión (valor de ratio entre 0 y 1
\, usar con cautela) \; \; dylan martin;
#X connect 23 0 24 0;
#X connect 24 0 25 0;
#X connect 31 0 33 0;
#X connect 32 0 34 0;
#X connect 33 0 32 0;
#X connect 34 0 40 0;
#X connect 40 0 41 0;
#X connect 41 0 42 0;
#X connect 42 0 44 0;
#X connect 44 0 47 0;
#X connect 47 0 49 0;
#X connect 49 0 16 0;
