#N canvas 2 52 1362 692 12;
#X obj 21 518 loadbang;
#X obj 98 573 tabwrite~ \$0-orig;
#X obj 98 543 sig~;
#X obj 285 423 loadbang;
#X obj 285 448 samplerate~;
#X obj 285 473 t b f;
#X obj 317 498 * 0.001;
#X obj 285 523 *, f 5;
#X msg 285 548 resize \$1;
#X obj 285 573 s \$0-orig;
#X obj 509 53 inlet;
#X msg 519 108 set \$1;
#X obj 519 133 s \$0-ratio-r;
#X obj 509 158 s \$0-ratio;
#X msg 560 188 set \$1;
#X obj 550 238 s \$0-ahead;
#X obj 560 213 s \$0-ahead-r;
#X msg 601 268 set \$1;
#X obj 601 293 s \$0-att-r;
#X obj 591 318 s \$0-att;
#X msg 642 108 set \$1;
#X obj 642 133 s \$0-rel-r;
#X obj 632 158 s \$0-rel;
#X msg 683 213 set \$1;
#X obj 673 188 != 0;
#X msg 724 293 set \$1;
#X msg 847 318 set \$1;
#X obj 837 293 != 0;
#N canvas 685 52 679 692 left 0;
#X obj 169 579 *~;
#X obj 169 734 outlet~;
#X obj 187 136 moses, f 8;
#X obj 286 341 dbtorms;
#X msg 187 341 1;
#X obj 187 479 line~;
#X obj 187 26 inlet~;
#X obj 311 396 r \$0-att;
#X obj 286 421 pack;
#X msg 286 451 \$1 \$2;
#X obj 187 396 pack;
#X obj 212 371 r \$0-rel;
#X msg 187 451 \$1 \$2;
#X obj 82 131 dbtorms;
#X obj 286 241 /, f 7;
#X obj 286 266 -, f 5;
#X obj 240 166 t f f, f 12;
#X obj 240 191 -;
#X obj 240 216 moses 0;
#X obj 286 291 +;
#X obj 286 316 + 100;
#X obj 332 216 r \$0-ratio;
#X obj 5 66 delwrite~ \$0-bufferL 100;
#X obj 169 549 delread~ \$0-bufferL;
#X obj 82 156 s \$0-left-rms;
#X obj 281 509 s~ \$0-left-gain;
#X obj 306 36 == 0;
#X obj 187 66 *~;
#X obj 250 26 inlet~;
#X obj 250 66 *~;
#X obj 82 106 env~ 64;
#X obj 201 579 r \$0-makeup;
#X obj 201 604 + 100;
#X obj 201 629 dbtorms;
#X msg 201 654 \$1 1;
#X obj 201 679 line~;
#X obj 169 709 *~, f 5;
#N canvas 1095 82 269 662 rms-peak 0;
#X obj 106 43 inlet~;
#N canvas 913 52 451 692 rms 0;
#X obj 37 37 inlet~;
#X obj 37 62 env~ 64;
#X obj 201 85 r \$0-mode;
#X obj 201 110 == 0;
#X obj 201 135 switch~;
#X obj 37 87 outlet;
#X connect 0 0 1 0;
#X connect 1 0 5 0;
#X connect 2 0 3 0;
#X connect 3 0 4 0;
#X restore 55 73 pd rms;
#N canvas 1026 52 338 692 peak 0;
#X obj 17 37 inlet~;
#X obj 122 12 r \$0-mode;
#X obj 122 42 switch~;
#X obj 17 72 snapshot~;
#X obj 73 42 metro;
#X obj 17 97 abs;
#X obj 17 147 outlet;
#X obj 17 122 rmstodb;
#X connect 0 0 3 0;
#X connect 1 0 4 0;
#X connect 1 0 2 0;
#X connect 3 0 5 0;
#X connect 4 0 3 0;
#X connect 5 0 7 0;
#X connect 7 0 6 0;
#X restore 106 73 pd peak;
#X obj 106 103 outlet;
#X connect 0 0 1 0;
#X connect 0 0 2 0;
#X connect 1 0 3 0;
#X connect 2 0 3 0;
#X restore 187 106 pd rms-peak;
#X obj 304 106 rmstodb;
#X obj 306 11 r \$0-sc;
#X obj 304 81 r \$0-thresh;
#X obj 169 519 r \$0-ahead;
#X obj 405 162 switch~;
#X obj 405 137 f, f 5;
#X obj 405 87 delay 6;
#X obj 405 12 r \$0-switch;
#X obj 405 37 sel 0;
#X obj 405 62 t b b;
#X msg 437 112 0;
#X connect 0 0 36 0;
#X connect 2 0 4 0;
#X connect 2 1 16 0;
#X connect 3 0 8 0;
#X connect 4 0 10 0;
#X connect 5 0 0 1;
#X connect 5 0 25 0;
#X connect 6 0 22 0;
#X connect 6 0 27 0;
#X connect 6 0 30 0;
#X connect 7 0 8 1;
#X connect 8 0 9 0;
#X connect 9 0 5 0;
#X connect 10 0 12 0;
#X connect 11 0 10 1;
#X connect 12 0 5 0;
#X connect 13 0 24 0;
#X connect 14 0 15 0;
#X connect 15 0 19 0;
#X connect 16 0 17 0;
#X connect 16 1 15 1;
#X connect 17 0 18 0;
#X connect 18 1 14 0;
#X connect 19 0 20 0;
#X connect 20 0 3 0;
#X connect 21 0 14 1;
#X connect 23 0 0 0;
#X connect 26 0 27 1;
#X connect 27 0 37 0;
#X connect 28 0 29 0;
#X connect 29 0 37 0;
#X connect 30 0 13 0;
#X connect 31 0 32 0;
#X connect 32 0 33 0;
#X connect 33 0 34 0;
#X connect 34 0 35 0;
#X connect 35 0 36 1;
#X connect 36 0 1 0;
#X connect 37 0 2 0;
#X connect 38 0 17 1;
#X connect 38 0 2 1;
#X connect 38 0 19 1;
#X connect 39 0 26 0;
#X connect 39 0 29 1;
#X connect 40 0 38 0;
#X connect 41 0 23 0;
#X connect 43 0 42 0;
#X connect 44 0 43 0;
#X connect 45 0 46 0;
#X connect 46 0 47 0;
#X connect 46 1 43 0;
#X connect 47 0 44 0;
#X connect 47 1 48 0;
#X connect 48 0 43 1;
#X restore 208 257 pd left;
#X obj 208 197 inlet~;
#X obj 208 317 outlet~;
#X obj 301 197 inlet~;
#X obj 301 317 outlet~;
#X obj 354 197 inlet~;
#X obj 98 513 r \$0-left-rms;
#X obj 228 227 *~;
#X obj 321 227 *~;
#X msg 285 498 100;
#X obj 21 543 metro 101;
#X msg 765 108 set \$1;
#X obj 755 158 s \$0-makeup;
#X obj 765 133 s \$0-makeup-r;
#X msg 806 213 set \$1;
#X obj 796 188 != 0;
#X obj 806 238 s \$0-mode-r;
#X obj 796 263 s \$0-mode;
#N canvas 913 52 451 692 right 0;
#X obj 169 579 *~;
#X obj 169 734 outlet~;
#X obj 187 136 moses, f 8;
#X obj 286 341 dbtorms;
#X msg 187 341 1;
#X obj 187 479 line~;
#X obj 187 26 inlet~;
#X obj 311 396 r \$0-att;
#X obj 286 421 pack;
#X msg 286 451 \$1 \$2;
#X obj 187 396 pack;
#X obj 212 371 r \$0-rel;
#X msg 187 451 \$1 \$2;
#X obj 75 131 dbtorms;
#X obj 286 241 /, f 7;
#X obj 286 266 -, f 5;
#X obj 240 166 t f f, f 12;
#X obj 240 191 -;
#X obj 240 216 moses 0;
#X obj 286 291 +;
#X obj 286 316 + 100;
#X obj 332 216 r \$0-ratio;
#X obj 306 36 == 0;
#X obj 187 66 *~;
#X obj 250 26 inlet~;
#X obj 250 66 *~;
#X obj 75 106 env~ 64;
#X obj 201 579 r \$0-makeup;
#X obj 201 604 + 100;
#X obj 201 629 dbtorms;
#X msg 201 654 \$1 1;
#X obj 201 679 line~;
#X obj 169 709 *~, f 5;
#N canvas 1095 82 269 662 rms-peak 0;
#X obj 106 43 inlet~;
#N canvas 1140 82 224 662 rms 0;
#X obj 37 37 inlet~;
#X obj 37 62 env~ 64;
#X obj 201 85 r \$0-mode;
#X obj 201 110 == 0;
#X obj 201 135 switch~;
#X obj 37 87 outlet;
#X connect 0 0 1 0;
#X connect 1 0 5 0;
#X connect 2 0 3 0;
#X connect 3 0 4 0;
#X restore 55 73 pd rms;
#N canvas 1173 82 191 662 peak 0;
#X obj 17 37 inlet~;
#X obj 122 12 r \$0-mode;
#X obj 122 42 switch~;
#X obj 17 72 snapshot~;
#X obj 73 42 metro;
#X obj 17 97 abs;
#X obj 17 147 outlet;
#X obj 17 122 rmstodb;
#X connect 0 0 3 0;
#X connect 1 0 4 0;
#X connect 1 0 2 0;
#X connect 3 0 5 0;
#X connect 4 0 3 0;
#X connect 5 0 7 0;
#X connect 7 0 6 0;
#X restore 106 73 pd peak;
#X obj 106 103 outlet;
#X connect 0 0 1 0;
#X connect 0 0 2 0;
#X connect 1 0 3 0;
#X connect 2 0 3 0;
#X restore 187 106 pd rms-peak;
#X obj 5 66 delwrite~ \$0-bufferR 100;
#X obj 169 549 delread~ \$0-bufferR;
#X obj 281 509 s~ \$0-right-gain;
#X obj 75 156 s \$0-right-rms;
#X obj 304 106 rmstodb;
#X obj 306 11 r \$0-sc;
#X obj 304 81 r \$0-thresh;
#X obj 169 519 r \$0-ahead;
#X obj 405 162 switch~;
#X obj 405 137 f, f 5;
#X obj 405 87 delay 6;
#X obj 405 12 r \$0-switch;
#X obj 405 37 sel 0;
#X obj 405 62 t b b;
#X msg 437 112 0;
#X connect 0 0 32 0;
#X connect 2 0 4 0;
#X connect 2 1 16 0;
#X connect 3 0 8 0;
#X connect 4 0 10 0;
#X connect 5 0 0 1;
#X connect 5 0 36 0;
#X connect 6 0 23 0;
#X connect 6 0 34 0;
#X connect 7 0 8 1;
#X connect 8 0 9 0;
#X connect 9 0 5 0;
#X connect 10 0 12 0;
#X connect 11 0 10 1;
#X connect 12 0 5 0;
#X connect 13 0 37 0;
#X connect 14 0 15 0;
#X connect 15 0 19 0;
#X connect 16 0 17 0;
#X connect 16 1 15 1;
#X connect 17 0 18 0;
#X connect 18 1 14 0;
#X connect 19 0 20 0;
#X connect 20 0 3 0;
#X connect 21 0 14 1;
#X connect 22 0 23 1;
#X connect 23 0 33 0;
#X connect 23 0 26 0;
#X connect 24 0 25 0;
#X connect 25 0 33 0;
#X connect 26 0 13 0;
#X connect 27 0 28 0;
#X connect 28 0 29 0;
#X connect 29 0 30 0;
#X connect 30 0 31 0;
#X connect 31 0 32 1;
#X connect 32 0 1 0;
#X connect 33 0 2 0;
#X connect 35 0 0 0;
#X connect 38 0 17 1;
#X connect 38 0 2 1;
#X connect 38 0 19 1;
#X connect 39 0 22 0;
#X connect 39 0 25 1;
#X connect 40 0 38 0;
#X connect 41 0 35 0;
#X connect 43 0 42 0;
#X connect 44 0 43 0;
#X connect 45 0 46 0;
#X connect 46 0 47 0;
#X connect 46 1 43 0;
#X connect 47 0 44 0;
#X connect 47 1 48 0;
#X connect 48 0 43 1;
#X restore 301 257 pd right;
#N canvas 685 52 679 692 state 0;
#X obj 10 22 inlet;
#X obj 10 47 t b b;
#X msg 42 377 set;
#X obj 10 102 f;
#X obj 10 402 s \$0-state;
#X obj 28 77 r \$0-ratio;
#X obj 28 127 r \$0-ahead;
#X obj 47 152 r \$0-att;
#X obj 66 177 r \$0-rel;
#X obj 85 202 r \$0-sc;
#X obj 104 227 r \$0-thresh;
#X obj 123 127 r \$0-makeup;
#X obj 142 152 r \$0-mode;
#X obj 10 272 pack f f f f f f f f f;
#X msg 10 302 add2 ratio \$1 \, addcomma \, add2 ahead \$2 \, addcomma
\, add2 att \$3 \, addcomma \, add2 rel \$4 \, addcomma \, add2 sc
\$5 \, addcomma \, add2 thresh \$6 \, addcomma \, add2 makeup \$7 \,
addcomma \, add2 mode \$8 \, addcomma \, add2 \$9;
#X obj 161 177 r \$0-switch;
#X connect 0 0 1 0;
#X connect 1 0 3 0;
#X connect 1 1 2 0;
#X connect 2 0 4 0;
#X connect 3 0 13 0;
#X connect 5 0 3 1;
#X connect 6 0 13 1;
#X connect 7 0 13 2;
#X connect 8 0 13 3;
#X connect 9 0 13 4;
#X connect 10 0 13 5;
#X connect 11 0 13 6;
#X connect 12 0 13 7;
#X connect 13 0 14 0;
#X connect 14 0 4 0;
#X connect 15 0 13 8;
#X restore 878 408 pd state;
#X obj 683 238 s \$0-sc-r;
#X obj 673 263 s \$0-sc;
#X obj 724 318 s \$0-thresh-r;
#X obj 714 343 s \$0-thresh;
#X obj 471 287 r \$0-state;
#X obj 471 317 outlet;
#X msg 919 438 se ha recibido un mensaje desconocido;
#X obj 919 463 print comp~;
#X obj 1067 53 loadbang;
#X msg 1067 78 0;
#X msg 1092 78 1;
#X obj 509 78 route ratio ahead att rel sc thresh makeup mode float
state;
#X msg 246 142 \$1 5;
#X obj 246 167 line~;
#X msg 410 202 \$1 5;
#X obj 410 227 line~;
#X obj 301 287 *~;
#X obj 208 287 *~;
#X obj 37 117 cnv 15 110 180 empty empty empty 20 12 0 14 -262144 -66577
0;
#X obj 131 121 vu 10 80 empty empty -1 -8 0 12 -262144 -1 0 0;
#N canvas 685 52 679 692 vu 0;
#X obj 59 129 env~ 1024;
#X obj 161 111 abs~;
#X obj 161 213 snapshot~;
#X obj 161 256 rmstodb;
#X obj 161 21 inlet~;
#X obj 161 288 - 100;
#X obj 59 287 - 100;
#X obj 59 361 outlet;
#X obj 161 361 outlet;
#X text 344 307 Check the help file of env~ and slop~ for more details.
, f 31;
#X obj 239 89 expr 1000 / $f1;
#X floatatom 239 117 5 0 0 0 - - -;
#X obj 161 146 slop~ 0 0 0 0 1e+09;
#X text 359 89 convert to hz;
#X text 282 118 hz;
#X text 284 57 peak decay time in ms;
#X obj 59 171 t f b;
#X text 345 132 The env~ object is dedicated to RMS analysis. Its output
is in dB (0-100 range \, pd style) but needs to be converted to dBFS
(and we do that by simply subtracting 100)., f 31;
#X text 345 225 The slop~ object is used here for peak detection. We
need to convert the output to dB with rmstodb and also subtract by
100 to convert it to dBFS., f 31;
#X obj 239 31 loadbang;
#X msg 239 60 500;
#X connect 0 0 16 0;
#X connect 1 0 12 0;
#X connect 2 0 3 0;
#X connect 3 0 5 0;
#X connect 4 0 0 0;
#X connect 4 0 1 0;
#X connect 5 0 8 0;
#X connect 6 0 7 0;
#X connect 10 0 11 0;
#X connect 11 0 12 3;
#X connect 12 0 2 0;
#X connect 16 0 6 0;
#X connect 16 1 2 0;
#X connect 19 0 20 0;
#X connect 20 0 10 0;
#X restore 130 79 pd vu;
#X obj 130 4 loadbang;
#X obj 130 54 -~, f 10;
#N canvas 0 50 450 250 (subpatch) 0;
#X array \$0-orig 4410 float 0;
#X coords 0 1 4409 0 100 50 1 0 0;
#X restore 42 208 graph;
#X obj 42 210 vsl 100 50 0 1 0 0 \$0-thresh \$0-thresh-r empty 0 -9
0 10 -262144 -191407 -1 1700 1;
#X obj 42 194 cnv 12 50 12 empty empty empty 20 12 0 14 -262144 -66577
0;
#X obj 42 140 nbx 3 15 0 999 0 0 \$0-ratio \$0-ratio-r ratio 0 -8 0
10 -1 -262144 -1 4 256;
#X obj 88 140 nbx 3 15 0 100 0 0 \$0-ahead \$0-ahead-r ahead 0 -8 0
10 -1 -262144 -1 6 256;
#X obj 42 172 nbx 3 15 0 100 0 0 \$0-att \$0-att-r att 0 -8 0 10 -1
-262144 -1 5 256;
#X obj 88 172 nbx 3 15 0 300 0 0 \$0-rel \$0-rel-r rel 0 -8 0 10 -1
-262144 -1 30 256;
#X obj 42 193 tgl 10 0 \$0-sc \$0-sc-r sidechain 15 4 0 10 -1 -262144
-1 0 1;
#X msg 130 29 1;
#X obj 197 24 r~ \$0-left-gain;
#X obj 42 280 nbx 3 15 -100 100 0 0 \$0-makeup \$0-makeup-r makeup
0 -8 0 10 -1 -262144 -1 0 256;
#X obj 95 280 hradio 10 1 0 2 \$0-mode \$0-mode-r rms/peak 0 -8 0 10
-262144 -1 -1 0;
#X obj 246 92 r \$0-switch;
#X obj 847 343 s \$0-switch-r;
#X obj 837 368 s \$0-switch;
#X obj 246 117 == 0;
#X obj 132 285 tgl 10 0 \$0-switch \$0-switch-r empty 15 4 0 10 -1
-262144 -1 1 1;
#X connect 0 0 38 0;
#X connect 2 0 1 0;
#X connect 3 0 4 0;
#X connect 4 0 5 0;
#X connect 5 0 37 0;
#X connect 5 1 6 0;
#X connect 6 0 7 1;
#X connect 7 0 8 0;
#X connect 8 0 9 0;
#X connect 10 0 59 0;
#X connect 11 0 12 0;
#X connect 14 0 16 0;
#X connect 17 0 18 0;
#X connect 20 0 21 0;
#X connect 23 0 48 0;
#X connect 24 0 23 0;
#X connect 24 0 49 0;
#X connect 25 0 50 0;
#X connect 26 0 84 0;
#X connect 27 0 26 0;
#X connect 27 0 85 0;
#X connect 28 0 65 0;
#X connect 29 0 28 0;
#X connect 29 0 35 0;
#X connect 31 0 36 0;
#X connect 31 0 46 0;
#X connect 33 0 28 1;
#X connect 33 0 46 1;
#X connect 34 0 2 0;
#X connect 35 0 30 0;
#X connect 36 0 32 0;
#X connect 37 0 7 0;
#X connect 38 0 1 0;
#X connect 39 0 41 0;
#X connect 42 0 44 0;
#X connect 43 0 42 0;
#X connect 43 0 45 0;
#X connect 46 0 64 0;
#X connect 52 0 53 0;
#X connect 54 0 55 0;
#X connect 56 0 57 0;
#X connect 56 0 58 0;
#X connect 57 0 41 0;
#X connect 57 0 48 0;
#X connect 57 0 21 0;
#X connect 57 0 18 0;
#X connect 57 0 16 0;
#X connect 57 0 44 0;
#X connect 58 0 12 0;
#X connect 58 0 50 0;
#X connect 58 0 84 0;
#X connect 59 0 11 0;
#X connect 59 0 13 0;
#X connect 59 1 14 0;
#X connect 59 1 15 0;
#X connect 59 2 17 0;
#X connect 59 2 19 0;
#X connect 59 3 20 0;
#X connect 59 3 22 0;
#X connect 59 4 24 0;
#X connect 59 5 25 0;
#X connect 59 5 51 0;
#X connect 59 6 39 0;
#X connect 59 6 40 0;
#X connect 59 7 43 0;
#X connect 59 8 27 0;
#X connect 59 9 47 0;
#X connect 59 10 54 0;
#X connect 60 0 61 0;
#X connect 61 0 35 1;
#X connect 61 0 36 1;
#X connect 62 0 63 0;
#X connect 63 0 64 1;
#X connect 63 0 65 1;
#X connect 64 0 32 0;
#X connect 65 0 30 0;
#X connect 68 0 67 0;
#X connect 68 1 67 1;
#X connect 69 0 79 0;
#X connect 70 0 68 0;
#X connect 79 0 70 0;
#X connect 80 0 70 1;
#X connect 83 0 86 0;
#X connect 83 0 62 0;
#X connect 86 0 60 0;
#X coords 0 -1 1 1 112 186 2 36 114;
