#N canvas 3 35 1360 708 12;
#X obj 584 126 cnv 15 499 111 empty empty empty 20 12 0 14 -204800
-66577 0;
#X msg 594 142 set foo;
#X obj 12 126 cnv 15 503 144 empty empty empty 20 12 0 14 -203904 -66577
0;
#X obj 12 39 cnv 15 134 39 empty empty empty 20 12 0 14 -203904 -66577
0;
#X obj 22 49 sig~;
#X text 9 11 INLET 0:;
#X obj 157 39 cnv 15 134 39 empty empty empty 20 12 0 14 -203904 -66577
0;
#X obj 167 49 sig~;
#X text 154 11 INLET 1:;
#X obj 583 39 cnv 15 134 39 empty empty empty 20 12 0 14 -204800 -66577
0;
#X obj 593 49 sig~;
#X obj 728 39 cnv 15 134 39 empty empty empty 20 12 0 14 -204800 -66577
0;
#X obj 738 49 sig~;
#X text 580 11 OUTLET 0:;
#X text 725 11 OUTLET 1:;
#X text 581 98 OUTLET 2:;
#X msg 22 240 state;
#X text 62 49 canal izq.;
#X text 207 49 canal der.;
#X text 633 49 canal izq.;
#X text 778 49 canal der.;
#X text 655 135 donde foo representa una lista de todos los parámetros
correctamente formateados para ser enviados de vuelta a la abstracción
\, en otras palabras \, conectar esta salida a un mensaje y cuando
la abstracción reciba el mensaje [state(] \, se guardará el estado
actual de la abstracción (tener en cuenta que el mensaje se vaciará
antes de escribir en él);
#X text 69 240 escribir un mensaje con el estado actual de la abstracción
;
#X obj 12 629 loadbang;
#X msg 12 654 0;
#X obj 12 679 switch~;
#X text 9 98 INLET 2:;
#X msg 22 136 bits \$1;
#X msg 22 165 downsample \$1;
#X text 82 136 profundidad de bits (2 a 32);
#X text 124 165 factor de downsampling (0 a 6);
#X msg 22 202 drywet \$1;
#X text 95 195 mezcla entre las señales dry y wet (0 a 100% donde
0 es la señal completamente dry y 100 completamente wet);
#X connect 23 0 24 0;
#X connect 24 0 25 0;
#X connect 27 0 28 0;
#X connect 28 0 31 0;
#X connect 31 0 16 0;
