#N canvas 685 0 1366 685 12;
#X obj 198 251 wrap~;
#X obj 180 191 *~;
#X obj 180 281 -~;
#X obj 180 221 +~;
#X obj 180 331 /~, f 9;
#X obj 180 356 -~ 1;
#X obj 324 31 r \$0-bits;
#X obj 180 306 *~, f 21;
#X obj 324 186 /, f 5;
#X obj 324 136 t f f;
#X obj 324 161 + 1;
#X msg 324 211 \$1 1;
#X obj 324 236 line~;
#X msg 240 136 \$1 1;
#X obj 240 161 line~;
#N canvas 914 35 449 708 downsample 0;
#X obj 21 7 inlet~;
#X obj 174 307 block~;
#X obj 174 132 t b f;
#X msg 174 232 1;
#X obj 174 257 /, f 5;
#X msg 174 282 set 64 1 \$1;
#X obj 174 7 r \$0-downsample;
#X msg 174 157 2;
#X obj 174 182 pow, f 5;
#X obj 174 207 t b f;
#X obj 21 32 outlet~;
#X obj 84 7 inlet~;
#X obj 84 32 outlet~;
#X obj 206 57 wrap;
#X obj 174 32 t f f;
#X obj 174 82 -, f 5;
#X obj 174 107 change;
#X connect 0 0 10 0;
#X connect 2 0 7 0;
#X connect 2 1 8 1;
#X connect 3 0 4 0;
#X connect 4 0 5 0;
#X connect 5 0 1 0;
#X connect 6 0 14 0;
#X connect 7 0 8 0;
#X connect 8 0 9 0;
#X connect 9 0 3 0;
#X connect 9 1 4 1;
#X connect 11 0 12 0;
#X connect 13 0 15 1;
#X connect 14 0 15 0;
#X connect 14 1 13 0;
#X connect 15 0 16 0;
#X connect 16 0 2 0;
#X restore 180 106 pd downsample;
#X obj 180 431 outlet~;
#X obj 180 81 inlet~;
#X obj 268 81 inlet~;
#X obj 388 251 wrap~;
#X obj 370 191 *~;
#X obj 370 281 -~;
#X obj 370 221 +~;
#X obj 370 331 /~, f 9;
#X obj 370 356 -~ 1;
#X obj 370 306 *~, f 21;
#X obj 370 431 outlet~;
#X obj 324 56 t b f;
#X msg 324 81 2;
#X obj 324 106 pow, f 5;
#X obj 465 81 inlet;
#N canvas 914 35 449 708 route-inlet-messages 1;
#X obj 12 50 inlet;
#N canvas 914 35 449 708 state 1;
#X obj 66 30 inlet;
#N canvas 732 43 1366 685 global 0;
#X obj 54 60 f;
#X obj 54 7 inlet;
#X obj 54 238 outlet;
#X obj 72 36 r \$0-bits;
#X obj 233 65 r \$0-downsample;
#X obj 273 98 r \$0-drywet;
#X obj 54 152 pack f f f, f 26;
#X msg 54 180 add2 bits \$1 \, addcomma \, add2 downsample \$2 \, addcomma
\, add2 drywet \$3;
#X connect 0 0 6 0;
#X connect 1 0 0 0;
#X connect 3 0 0 1;
#X connect 4 0 6 1;
#X connect 5 0 6 2;
#X connect 6 0 7 0;
#X connect 7 0 2 0;
#X restore 66 175 pd global;
#X obj 66 59 t b b;
#X msg 98 88 set;
#X obj 66 204 s \$0-state;
#X connect 0 0 2 0;
#X connect 1 0 4 0;
#X connect 2 0 1 0;
#X connect 2 1 3 0;
#X connect 3 0 4 0;
#X restore 188 290 pd state;
#X msg 513 91 0;
#X obj 513 62 loadbang;
#X obj 247 320 s \$0-error;
#X msg 22 120 set \$1;
#X msg 80 200 set \$1;
#X obj 22 145 s \$0-bits-r;
#X obj 12 170 s \$0-bits;
#X obj 80 225 s \$0-downsample-r;
#X obj 70 250 s \$0-downsample;
#X obj 29 596 r \$0-error;
#X msg 29 626 se recibió un mensaje desconocido;
#X obj 29 656 print crushy~;
#X msg 478 91 32;
#X msg 139 120 set \$1;
#X obj 139 145 s \$0-drywet-r;
#X obj 129 170 s \$0-drywet;
#X msg 548 91 100;
#X obj 12 90 route bits downsample drywet state;
#X connect 0 0 19 0;
#X connect 2 0 9 0;
#X connect 3 0 2 0;
#X connect 3 0 14 0;
#X connect 3 0 18 0;
#X connect 5 0 7 0;
#X connect 6 0 9 0;
#X connect 11 0 12 0;
#X connect 12 0 13 0;
#X connect 14 0 7 0;
#X connect 15 0 16 0;
#X connect 18 0 16 0;
#X connect 19 0 5 0;
#X connect 19 0 8 0;
#X connect 19 1 6 0;
#X connect 19 1 10 0;
#X connect 19 2 15 0;
#X connect 19 2 17 0;
#X connect 19 3 1 0;
#X connect 19 4 4 0;
#X restore 465 110 pd route-inlet-messages;
#X obj 533 356 r \$0-state;
#X obj 533 381 outlet;
#X obj 51 104 cnv 15 69 102 empty empty empty 20 12 0 14 #fcfcfc #404040
0;
#X obj 56 122 nbx 4 15 2 32 0 0 \$0-bits \$0-bits-r bits 0 -8 0 10
#000000 #fcfcfc #000000 0 256;
#X obj 56 154 nbx 4 15 0 6 0 0 \$0-downsample \$0-downsample-r downsample
0 -8 0 10 #000000 #fcfcfc #000000 0 256;
#X obj 56 186 nbx 4 15 0 100 0 0 \$0-drywet \$0-drywet-r drywet 0 -8
0 10 #000000 #fcfcfc #000000 0 256;
#X obj 106 189 cnv 13 13 15 empty \$0-text % 0 6 0 10 #fcfcfc #000000
0;
#X obj 500 179 r \$0-drywet;
#X obj 180 386 *~;
#X obj 500 204 / 100;
#X msg 500 229 \$1 1;
#X obj 549 232 t b f;
#X msg 549 257 1;
#X obj 549 282 -, f 5;
#X msg 549 307 \$1 1;
#X obj 370 386 *~;
#X obj 500 254 line~;
#X obj 549 332 line~;
#X obj 145 386 *~;
#X obj 335 386 *~;
#X connect 0 0 2 1;
#X connect 1 0 3 0;
#X connect 2 0 7 0;
#X connect 3 0 0 0;
#X connect 3 0 2 0;
#X connect 4 0 5 0;
#X connect 5 0 40 0;
#X connect 6 0 27 0;
#X connect 7 0 4 0;
#X connect 8 0 11 0;
#X connect 9 0 10 0;
#X connect 9 1 8 1;
#X connect 10 0 8 0;
#X connect 11 0 12 0;
#X connect 12 0 7 1;
#X connect 12 0 25 1;
#X connect 13 0 14 0;
#X connect 14 0 4 1;
#X connect 14 0 3 1;
#X connect 14 0 1 1;
#X connect 14 0 20 1;
#X connect 14 0 22 1;
#X connect 14 0 23 1;
#X connect 15 0 1 0;
#X connect 15 1 20 0;
#X connect 17 0 15 0;
#X connect 17 0 50 0;
#X connect 18 0 15 1;
#X connect 18 0 51 0;
#X connect 19 0 21 1;
#X connect 20 0 22 0;
#X connect 21 0 25 0;
#X connect 22 0 19 0;
#X connect 22 0 21 0;
#X connect 23 0 24 0;
#X connect 24 0 47 0;
#X connect 25 0 23 0;
#X connect 27 0 28 0;
#X connect 27 1 29 1;
#X connect 28 0 29 0;
#X connect 29 0 9 0;
#X connect 29 0 13 0;
#X connect 30 0 31 0;
#X connect 32 0 33 0;
#X connect 39 0 41 0;
#X connect 40 0 16 0;
#X connect 41 0 42 0;
#X connect 41 0 43 0;
#X connect 42 0 48 0;
#X connect 43 0 44 0;
#X connect 43 1 45 1;
#X connect 44 0 45 0;
#X connect 45 0 46 0;
#X connect 46 0 49 0;
#X connect 47 0 26 0;
#X connect 48 0 40 1;
#X connect 48 0 47 1;
#X connect 49 0 50 1;
#X connect 49 0 51 1;
#X connect 50 0 16 0;
#X connect 51 0 26 0;
#X coords 0 -1 1 1 71 110 2 50 100;
