#N canvas 685 52 679 692 12;
#X obj 249 450 spigot, f 12;
#X obj 249 50 ctlin, f 15;
#X msg 300 205 1;
#X msg 351 205 1;
#X msg 339 245 0;
#X msg 390 245 0;
#X obj 249 280 spigot, f 15;
#X obj 249 310 spigot, f 8;
#X obj 622 43 inlet;
#X obj 249 630 outlet;
#X obj 330 340 - 1;
#X obj 390 365 + 2;
#X obj 284 370 moses 0;
#X obj 330 395 moses 128;
#X msg 330 420 1;
#X obj 249 340 t f f;
#N canvas 913 52 451 692 state 0;
#X obj 37 37 inlet;
#X obj 37 62 t b b;
#X msg 69 407 set;
#X obj 37 437 s \$0-state;
#X obj 37 117 f;
#X obj 55 92 r \$0-ctl;
#X obj 57 147 r \$0-chan;
#X obj 78 172 r \$0-pass;
#X obj 98 197 r \$0-min;
#X obj 119 222 r \$0-max;
#X obj 37 322 pack f f f f f f f;
#X obj 139 247 r \$0-trigger;
#X obj 160 272 r \$0-trigger-at;
#X msg 37 352 add2 ctl \$1 \, addcomma \, add2 chan \$2 \, addcomma
\, add2 \$3 \, addcomma \, add2 min \$4 \, addcomma \, add2 max \$5
\, addcomma \, add2 trigger \$6 \, addcomma \, add2 trigger at \$7
;
#X connect 0 0 1 0;
#X connect 1 0 4 0;
#X connect 1 1 2 0;
#X connect 2 0 3 0;
#X connect 4 0 10 0;
#X connect 5 0 4 1;
#X connect 6 0 10 1;
#X connect 7 0 10 2;
#X connect 8 0 10 3;
#X connect 9 0 10 4;
#X connect 10 0 13 0;
#X connect 11 0 10 5;
#X connect 12 0 10 6;
#X connect 13 0 3 0;
#X restore 871 334 pd state;
#X obj 397 450 r \$0-state;
#X obj 397 475 outlet;
#X obj 339 120 r \$0-ctl;
#X obj 390 145 r \$0-chan;
#X obj 288 80 r \$0-pass;
#X obj 300 175 sel -1;
#X obj 351 175 sel -1;
#X msg 632 99 set \$1;
#X obj 632 124 s \$0-ctl-r;
#X obj 622 149 s \$0-ctl;
#X msg 673 204 set \$1;
#X obj 663 254 s \$0-chan;
#X obj 673 229 s \$0-chan-r;
#X msg 715 124 set \$1;
#X obj 944 39 loadbang;
#X msg 944 69 -1;
#X obj 715 149 s \$0-pass-r;
#X obj 705 174 s \$0-pass;
#X obj 249 120 spigot;
#X msg 535 385 0;
#X obj 498 270 sel 0 1, f 11;
#X msg 498 300 0;
#X msg 523 300 128;
#N canvas 914 35 449 708 trigger 0;
#X obj 28 63 inlet;
#X msg 85 223 set \$1;
#X obj 28 88 route float at;
#X msg 38 143 set \$1;
#X obj 38 168 s \$0-trigger-r;
#X obj 28 193 s \$0-trigger;
#X obj 85 248 s \$0-trigger-at-r;
#X obj 75 273 s \$0-trigger-at;
#X obj 180 87 loadbang;
#X msg 180 112 0;
#X obj 28 118 != 0;
#X connect 0 0 2 0;
#X connect 1 0 6 0;
#X connect 2 0 10 0;
#X connect 2 1 1 0;
#X connect 2 1 7 0;
#X connect 3 0 4 0;
#X connect 8 0 9 0;
#X connect 9 0 4 0;
#X connect 10 0 3 0;
#X connect 10 0 5 0;
#X restore 829 99 pd trigger;
#X obj 498 245 r \$0-trigger;
#X obj 390 300 r \$0-trigger-at;
#X obj 101 104 cnv 15 100 136 empty empty empty 20 12 0 14 -262144
-66577 0;
#X obj 106 121 nbx 3 15 0 127 0 0 \$0-ctl \$0-ctl-r ctl 0 -8 0 10 -1
-262144 -1 17 256;
#X obj 147 121 nbx 3 15 1 128 0 0 \$0-chan \$0-chan-r chan 0 -8 0 10
-1 -262144 -1 1 256;
#X obj 186 109 tgl 10 0 \$0-pass \$0-pass-r empty 15 4 0 10 -1 -262144
-1 1 1;
#X obj 125 220 nbx 3 15 0 127 0 0 \$0-trigger-at \$0-trigger-at-r trigger
0 -8 0 10 -1 -262144 -1 0 256;
#X obj 166 223 tgl 10 0 \$0-trigger \$0-trigger-r empty 15 4 0 10 -1
-262144 -1 0 1;
#X msg 969 69 0;
#X obj 705 99 != 0;
#X obj 124 154 nbx 5 15 -1e+37 1e+37 0 0 \$0-min \$0-min-r min 0 -8
0 10 -1 -262144 -1 0 256;
#X obj 124 187 nbx 5 15 -1e+37 1e+37 0 0 \$0-max \$0-max-r max 0 -8
0 10 -1 -262144 -1 127 256;
#X obj 622 69 route ctl chan float min max trigger state;
#X msg 756 284 set \$1;
#X obj 756 309 s \$0-min-r;
#X msg 798 204 set \$1;
#X obj 788 254 s \$0-max;
#X obj 746 334 s \$0-min;
#X obj 798 229 s \$0-max-r;
#X msg 994 69 127;
#X obj 249 555 / 127;
#X obj 249 580 *, f 7;
#X obj 249 605 +, f 13;
#X obj 295 555 -;
#X obj 295 475 r \$0-max;
#X obj 305 500 r \$0-min;
#X obj 305 525 t b f;
#X connect 0 0 61 0;
#X connect 1 0 35 0;
#X connect 1 1 22 0;
#X connect 1 2 23 0;
#X connect 2 0 7 1;
#X connect 3 0 6 1;
#X connect 4 0 7 1;
#X connect 5 0 6 1;
#X connect 6 0 7 0;
#X connect 7 0 15 0;
#X connect 8 0 53 0;
#X connect 10 0 12 1;
#X connect 11 0 13 1;
#X connect 12 1 13 0;
#X connect 13 0 14 0;
#X connect 14 0 0 1;
#X connect 15 0 0 0;
#X connect 15 1 12 0;
#X connect 17 0 18 0;
#X connect 19 0 22 1;
#X connect 20 0 23 1;
#X connect 21 0 35 1;
#X connect 22 0 2 0;
#X connect 22 1 4 0;
#X connect 23 0 3 0;
#X connect 23 1 5 0;
#X connect 24 0 25 0;
#X connect 27 0 29 0;
#X connect 30 0 33 0;
#X connect 31 0 32 0;
#X connect 31 0 49 0;
#X connect 31 0 60 0;
#X connect 32 0 25 0;
#X connect 32 0 29 0;
#X connect 35 0 6 0;
#X connect 36 0 0 1;
#X connect 37 0 38 0;
#X connect 37 0 39 0;
#X connect 37 1 11 0;
#X connect 37 1 10 0;
#X connect 37 1 36 0;
#X connect 38 0 12 1;
#X connect 39 0 13 1;
#X connect 41 0 37 0;
#X connect 42 0 10 0;
#X connect 42 0 11 0;
#X connect 49 0 33 0;
#X connect 49 0 55 0;
#X connect 50 0 30 0;
#X connect 50 0 34 0;
#X connect 53 0 24 0;
#X connect 53 0 26 0;
#X connect 53 1 27 0;
#X connect 53 1 28 0;
#X connect 53 2 50 0;
#X connect 53 3 54 0;
#X connect 53 3 58 0;
#X connect 53 4 56 0;
#X connect 53 4 57 0;
#X connect 53 5 40 0;
#X connect 53 6 16 0;
#X connect 54 0 55 0;
#X connect 56 0 59 0;
#X connect 60 0 59 0;
#X connect 61 0 62 0;
#X connect 62 0 63 0;
#X connect 63 0 9 0;
#X connect 64 0 62 1;
#X connect 65 0 64 0;
#X connect 66 0 67 0;
#X connect 67 0 64 0;
#X connect 67 1 64 1;
#X connect 67 1 63 1;
#X coords 0 -1 1 1 102 144 2 100 100;
