#N canvas 686 35 677 708 12;
#X obj 206 215 inlet~;
#X obj 286 215 inlet~;
#X obj 206 274 *~;
#X obj 286 274 *~;
#X obj 206 303 outlet~;
#X obj 286 303 outlet~;
#X obj 352 80 r \$0-gain;
#X obj 352 162 dbtorms;
#X obj 352 109 + 100;
#X obj 661 93 inlet;
#N canvas 469 255 796 371 route-inlet-messages 0;
#X obj 12 12 inlet;
#X obj 13 249 r \$0-error;
#X obj 13 273 bng 15 250 50 0 empty empty empty 17 7 0 10 -262144 -1
-1;
#X obj 135 167 s \$0-error;
#X obj 12 90 s \$0-gain-r;
#X obj 215 32 loadbang;
#X obj 73 114 != 0;
#X obj 13 322 print dbgain~;
#X msg 13 293 se recibió un mensaje desconocido;
#X obj 12 61 route float bypass;
#X msg 215 56 0;
#X obj 73 138 s \$0-byp-r;
#X connect 0 0 9 0;
#X connect 1 0 2 0;
#X connect 2 0 8 0;
#X connect 5 0 10 0;
#X connect 6 0 11 0;
#X connect 8 0 7 0;
#X connect 9 0 4 0;
#X connect 9 1 6 0;
#X connect 9 2 3 0;
#X connect 10 0 6 0;
#X restore 661 122 pd route-inlet-messages;
#X obj 663 286 loadbang;
#X obj 663 311 f \$1;
#X obj 663 336 s \$0-gain-r;
#X msg 352 186 \$1 1;
#X obj 352 215 line~;
#X obj 264 22 r \$0-byp;
#X obj 352 138 spigot;
#X obj 264 70 sel 0;
#X obj 310 109 == 0;
#X obj 264 46 t f f, f 7;
#X msg 296 186 1 1;
#X obj 101 105 cnv 15 60 40 empty \$0-text empty 20 12 0 14 -262144
-1 0;
#X obj 106 110 nbx 3 15 -100 1e+37 0 0 \$0-gain \$0-gain-r dB 40 8
0 10 -1 -262144 -1 100 256;
#X obj 106 130 tgl 10 0 \$0-byp \$0-byp-r bypass 15 5 0 10 -1 -262144
-1 0 1;
#X connect 0 0 2 0;
#X connect 1 0 3 0;
#X connect 2 0 4 0;
#X connect 3 0 5 0;
#X connect 6 0 8 0;
#X connect 7 0 14 0;
#X connect 8 0 17 0;
#X connect 9 0 10 0;
#X connect 11 0 12 0;
#X connect 12 0 13 0;
#X connect 14 0 15 0;
#X connect 15 0 3 1;
#X connect 15 0 2 1;
#X connect 16 0 20 0;
#X connect 17 0 7 0;
#X connect 18 0 8 0;
#X connect 18 1 21 0;
#X connect 19 0 17 1;
#X connect 20 0 18 0;
#X connect 20 1 19 0;
#X connect 21 0 15 0;
#X coords 0 -1 1 1 62 48 2 100 100;
