#N canvas 685 52 679 692 12;
#X obj 12 126 cnv 15 511 82 empty empty empty 20 12 0 14 -203904 -66577
0;
#X obj 12 39 cnv 15 134 39 empty empty empty 20 12 0 14 -203904 -66577
0;
#X obj 22 49 sig~;
#X text 9 11 INLET 0:;
#X obj 157 39 cnv 15 134 39 empty empty empty 20 12 0 14 -203904 -66577
0;
#X obj 167 49 sig~;
#X text 154 11 INLET 1:;
#X text 9 98 INLET 2:;
#X obj 552 39 cnv 15 134 39 empty empty empty 20 12 0 14 -204800 -66577
0;
#X obj 562 49 sig~;
#X obj 697 39 cnv 15 134 39 empty empty empty 20 12 0 14 -204800 -66577
0;
#X obj 707 49 sig~;
#X text 549 11 OUTLET 0:;
#X text 694 11 OUTLET 1:;
#X obj 22 136 float;
#X text 62 49 canal izq.;
#X text 207 49 canal der.;
#X text 603 48 canal izq.;
#X text 747 49 canal der.;
#X msg 22 173 bypass \$1;
#X text 96 166 ignora o no los efectos del objeto sobre la señal (distinto
de cero y 0 respectivamente);
#X text 69 136 ganancia (dB);
#X obj 12 629 loadbang;
#X msg 12 654 0;
#X obj 12 679 switch~;
#X obj 12 229 cnv 15 412 71 empty empty empty 20 12 0 14 -203904 -66577
0;
#X obj 22 239 cnv 15 392 51 empty empty empty 20 12 0 14 -262144 -66577
0;
#X text 29 248 el valor de ganancia también se puede determinar como
argumento \, por ejemplo [dbgain~ -6];
#X connect 14 0 19 0;
#X connect 22 0 23 0;
#X connect 23 0 24 0;
