#N canvas 686 35 677 708 12;
#X obj 550 126 cnv 15 499 111 empty empty empty 20 12 0 14 -204800
-66577 0;
#X msg 560 142 set foo;
#X obj 12 126 cnv 15 477 127 empty empty empty 20 12 0 14 -203904 -66577
0;
#X obj 12 39 cnv 15 134 39 empty empty empty 20 12 0 14 -203904 -66577
0;
#X obj 22 49 sig~;
#X text 9 11 INLET 0:;
#X obj 549 39 cnv 15 134 39 empty empty empty 20 12 0 14 -204800 -66577
0;
#X obj 559 49 sig~;
#X text 546 11 OUTLET 0:;
#X text 547 98 OUTLET 2:;
#X text 9 98 INLET 1:;
#X msg 22 165 lerp \$1;
#X msg 22 194 clear;
#X msg 22 223 state;
#X obj 22 136 float;
#X text 62 49 canal mono;
#X text 599 49 canal mono;
#X text 69 223 escribir un mensaje con el estado actual de la abstracción
;
#X text 621 135 donde foo representa una lista de todos los parámetros
correctamente formateados para ser enviados de vuelta a la abstracción
\, en otras palabras \, conectar esta salida a un mensaje y cuando
la abstracción reciba el mensaje [state(] \, se guardará el estado
actual de la abstracción (tener en cuenta que el mensaje se vaciará
antes de escribir en él);
#X text 70 194 vaciar la línea de delay;
#X text 69 136 tiempo de delay (ms);
#X text 82 165 tiempo de interpolación (ms);
#X obj 12 629 loadbang;
#X msg 12 654 0;
#X obj 12 679 switch~;
#X obj 12 264 cnv 15 462 83 empty empty empty 20 12 0 14 -203904 -66577
0;
#X obj 22 274 cnv 15 442 63 empty empty empty 20 12 0 14 -262144 -66577
0;
#X text 30 280 adicionalmente \, se pueden dar los valores de tiempo
de delay y de interpolación como argumentos iniciales del objeto \,
por ejemplo [del4~ 250 10];
#X connect 11 0 12 0;
#X connect 12 0 13 0;
#X connect 14 0 11 0;
#X connect 22 0 23 0;
#X connect 23 0 24 0;
