#N canvas 914 35 449 708 12;
#X obj 286 312 line~;
#X obj 286 288 pack f f, f 11;
#X obj 545 116 inlet;
#X obj 286 264 r \$0-time;
#X obj 360 264 r \$0-lerp;
#X obj 286 336 delread4~ \$0-del;
#N canvas 685 35 336 708 route-inlet-messages 0;
#X obj 12 12 inlet;
#X obj 53 248 r \$0-error;
#X obj 53 272 bng 15 250 50 0 empty empty empty 17 7 0 10 -262144 -1
-1;
#X obj 205 227 s \$0-error;
#N canvas 676 0 681 676 state 0;
#X obj 66 30 inlet;
#X obj 66 59 t b b;
#X msg 98 88 set;
#X obj 66 166 s \$0-state;
#N canvas 698 271 669 300 global 0;
#X obj 54 60 f;
#X obj 54 7 inlet;
#X obj 54 232 outlet;
#X obj 54 170 pack f f;
#X obj 72 36 r \$0-time;
#X obj 107 83 r \$0-lerp;
#X msg 54 199 add2 \$1 \, addcomma \, add2 lerp \$2;
#X connect 0 0 3 0;
#X connect 1 0 0 0;
#X connect 3 0 6 0;
#X connect 4 0 0 1;
#X connect 5 0 3 1;
#X connect 6 0 2 0;
#X restore 66 127 pd global;
#X connect 0 0 1 0;
#X connect 1 0 4 0;
#X connect 1 1 2 0;
#X connect 2 0 3 0;
#X connect 4 0 3 0;
#X restore 156 198 pd state;
#X obj 12 100 s \$0-time-r;
#X obj 60 129 s \$0-lerp-r;
#X obj 12 61 route float lerp clear state;
#X obj 108 100 s \$0-clear-r;
#X obj 53 316 print del4~;
#X msg 53 292 se recibió un mensaje desconocido;
#X connect 0 0 7 0;
#X connect 1 0 2 0;
#X connect 2 0 10 0;
#X connect 7 0 5 0;
#X connect 7 1 6 0;
#X connect 7 2 8 0;
#X connect 7 3 4 0;
#X connect 7 4 3 0;
#X connect 10 0 9 0;
#X restore 545 140 pd route-inlet-messages;
#X obj 286 225 delwrite~ \$0-del 9999;
#X obj 286 360 outlet~;
#X obj 422 336 r \$0-state;
#X obj 422 360 outlet;
#X obj 286 172 inlet~;
#X obj 101 104 cnv 15 105 52 \$0-text empty empty 20 12 0 14 -262144
-66577 0;
#X obj 106 121 nbx 4 15 0 9999 0 0 \$0-time \$0-time-r delay 0 -8 0
10 -1 -262144 -1 0 256;
#X obj 156 121 nbx 4 15 0 9999 0 0 \$0-lerp \$0-lerp-r interp. 0 -8
0 10 -1 -262144 -1 0 256;
#X obj 106 141 bng 10 250 50 0 \$0-clear \$0-clear-r clear 15 4 0 10
-1 -262144 -1;
#X obj 342 172 r \$0-clear;
#X msg 342 196 clear;
#X obj 545 304 loadbang;
#X obj 545 334 f \$1;
#X obj 545 358 s \$0-time-r;
#X obj 636 334 f \$2;
#X obj 636 358 s \$0-lerp-r;
#X connect 0 0 5 0;
#X connect 1 0 0 0;
#X connect 2 0 6 0;
#X connect 3 0 1 0;
#X connect 4 0 1 1;
#X connect 5 0 8 0;
#X connect 9 0 10 0;
#X connect 11 0 7 0;
#X connect 16 0 17 0;
#X connect 17 0 7 0;
#X connect 18 0 19 0;
#X connect 18 0 21 0;
#X connect 19 0 20 0;
#X connect 21 0 22 0;
#X coords 0 -1 1 1 107 60 2 100 100;
