#N canvas 26 26 1366 685 12;
#X obj 101 103 cnv 15 62 118 empty empty empty 20 12 0 14 #ffffff #404040
0;
#N canvas 52 52 450 300 delwrite 0;
#X obj 42 25 inlet~;
#X obj 42 64 outlet~;
#X obj 105 54 delwrite~ \$0-del0 1000;
#X connect 0 0 1 0;
#X connect 0 0 2 0;
#X restore 316 225 pd delwrite;
#N canvas 480 116 450 300 delread 0;
#X obj 37 37 inlet~;
#X obj 93 37 inlet~;
#X obj 93 66 delread4~ \$0-del0;
#X obj 37 119 outlet~;
#X obj 37 95 -~;
#X connect 0 0 4 0;
#X connect 1 0 2 0;
#X connect 2 0 4 1;
#X connect 4 0 3 0;
#X restore 316 249 pd delread;
#X msg 407 206 \$1 5;
#X obj 407 230 line~;
#N canvas 52 52 450 300 delwrite 0;
#X obj 42 25 inlet~;
#X obj 42 64 outlet~;
#X obj 105 54 delwrite~ \$0-del1 1000;
#X connect 0 0 1 0;
#X connect 0 0 2 0;
#X restore 316 325 pd delwrite;
#N canvas 480 116 450 300 delread 0;
#X obj 37 37 inlet~;
#X obj 93 37 inlet~;
#X obj 37 119 outlet~;
#X obj 93 66 delread4~ \$0-del1;
#X obj 37 95 +~;
#X connect 0 0 4 0;
#X connect 1 0 3 0;
#X connect 3 0 4 1;
#X connect 4 0 2 0;
#X restore 316 349 pd delread;
#X msg 419 306 \$1 5;
#X obj 419 330 line~;
#X obj 481 115 loadbang;
#X obj 481 139 samplerate~;
#X obj 481 163 * 0.001;
#N canvas 52 52 450 300 delwrite 0;
#X obj 42 25 inlet~;
#X obj 42 64 outlet~;
#X obj 105 54 delwrite~ \$0-del2 1000;
#X connect 0 0 1 0;
#X connect 0 0 2 0;
#X restore 316 425 pd delwrite;
#N canvas 480 116 450 300 delread 0;
#X obj 37 37 inlet~;
#X obj 93 37 inlet~;
#X obj 37 119 outlet~;
#X obj 37 95 +~;
#X obj 93 66 delread4~ \$0-del2;
#X connect 0 0 3 0;
#X connect 1 0 4 0;
#X connect 3 0 2 0;
#X connect 4 0 3 1;
#X restore 316 449 pd delread;
#X msg 419 406 \$1 5;
#X obj 419 430 line~;
#X obj 106 120 vsl 10 64 2 200 1 0 \$0-0 \$0-0-r 0 2 -9 0 10 #000000
#ffffff #000000 0 1;
#X obj 127 120 vsl 10 64 2 200 1 0 \$0-1 \$0-1-r 1 2 -9 0 10 #000000
#ffffff #000000 0 1;
#X obj 148 120 vsl 10 64 2 200 1 0 \$0-2 \$0-2-r 2 2 -9 0 10 #000000
#ffffff #000000 0 1;
#X obj 407 182 /;
#X obj 419 282 /;
#X obj 419 382 /;
#X obj 481 187 t b f;
#X obj 316 154 inlet~;
#X obj 316 521 outlet~;
#X obj 106 201 nbx 3 15 -100 1e+37 0 0 \$0-out \$0-out-r gain 0 -8
0 10 #000000 #ffffff #202020 0 256;
#X obj 146 206 cnv 13 10 6 empty \$0-text dB 1 2 0 10 #ffffff #000000
0;
#X obj 316 497 ./tanh~;
#N canvas 686 35 677 708 out 0;
#X msg 12 114 \$1 1;
#X obj 12 167 outlet~;
#X obj 12 90 dbtorms;
#X obj 12 138 line~;
#X obj 12 37 r \$0-out;
#X obj 12 66 + 100;
#X connect 0 0 3 0;
#X connect 2 0 0 0;
#X connect 3 0 1 0;
#X connect 4 0 5 0;
#X connect 5 0 2 0;
#X restore 400 454 pd out gain;
#X obj 316 473 *~;
#X obj 732 80 inlet;
#X obj 407 158 r \$0-0;
#X obj 419 258 r \$0-1;
#X obj 419 358 r \$0-2;
#X obj 732 181 s \$0-0;
#X msg 742 133 set \$1;
#X obj 742 157 s \$0-0-r;
#X msg 766 210 set \$1;
#X obj 766 234 s \$0-1-r;
#X obj 756 258 s \$0-1;
#X msg 791 287 set \$1;
#X obj 781 335 s \$0-2;
#X obj 791 311 s \$0-2-r;
#X msg 964 155 set \$1;
#X obj 964 179 s \$0-out-r;
#X obj 954 203 s \$0-out;
#N canvas 55 52 447 338 state 0;
#X obj 21 16 inlet;
#X obj 21 93 f;
#X obj 39 69 r \$0-0;
#X obj 21 170 pack f f f f;
#X obj 48 93 r \$0-1;
#X obj 75 117 r \$0-2;
#X obj 102 141 r \$0-out;
#X msg 21 194 add2 0 \$1 \, addcomma \, add2 1 \$2 \, addcomma \, add2
2 \$3 \, addcomma \, add2 gain \$4;
#X obj 21 266 s \$0-state;
#X obj 21 40 t b b;
#X msg 53 237 set;
#X connect 0 0 9 0;
#X connect 1 0 3 0;
#X connect 2 0 1 1;
#X connect 3 0 7 0;
#X connect 4 0 3 1;
#X connect 5 0 3 2;
#X connect 6 0 3 3;
#X connect 7 0 8 0;
#X connect 9 0 1 0;
#X connect 9 1 10 0;
#X connect 10 0 8 0;
#X restore 1008 242 pd state;
#X obj 499 497 r \$0-state;
#X obj 499 521 outlet;
#X obj 954 126 route gain state;
#X obj 732 104 route 0 1 2;
#X connect 1 0 2 0;
#X connect 2 0 5 0;
#X connect 3 0 4 0;
#X connect 4 0 2 1;
#X connect 5 0 6 0;
#X connect 6 0 12 0;
#X connect 7 0 8 0;
#X connect 8 0 6 1;
#X connect 9 0 10 0;
#X connect 10 0 11 0;
#X connect 11 0 22 0;
#X connect 12 0 13 0;
#X connect 13 0 29 0;
#X connect 14 0 15 0;
#X connect 15 0 13 1;
#X connect 19 0 3 0;
#X connect 20 0 7 0;
#X connect 21 0 14 0;
#X connect 22 0 19 0;
#X connect 22 0 20 0;
#X connect 22 0 21 0;
#X connect 22 1 19 1;
#X connect 22 1 20 1;
#X connect 22 1 21 1;
#X connect 23 0 1 0;
#X connect 27 0 24 0;
#X connect 28 0 29 1;
#X connect 29 0 27 0;
#X connect 30 0 50 0;
#X connect 31 0 19 0;
#X connect 32 0 20 0;
#X connect 33 0 21 0;
#X connect 35 0 36 0;
#X connect 37 0 38 0;
#X connect 40 0 42 0;
#X connect 43 0 44 0;
#X connect 47 0 48 0;
#X connect 49 0 43 0;
#X connect 49 0 45 0;
#X connect 49 1 46 0;
#X connect 50 0 35 0;
#X connect 50 0 34 0;
#X connect 50 1 37 0;
#X connect 50 1 39 0;
#X connect 50 2 40 0;
#X connect 50 2 41 0;
#X connect 50 3 49 0;
#X coords 0 -1 1 1 64 124 2 100 100;
