#N canvas 913 52 451 692 12;
#X obj 27 298 -~ 0.25;
#X obj 27 338 abs~;
#X obj 27 378 -~;
#X obj 90 378 +~;
#X obj 27 273 wrap~;
#X obj 90 403 *~ 2;
#X obj 27 403 *~ 2;
#X obj 45 193 wrap~;
#X obj 27 223 -~;
#X obj 27 123 abs~;
#X obj 27 163 +~, f 8;
#X msg 80 123 0;
#X msg 130 123 0.5;
#X obj 80 53 inlet;
#X obj 80 93 route floor round ceil;
#X msg 180 123 1;
#X obj 27 53 inlet~;
#X obj 27 428 outlet~;
#X obj 90 428 outlet~;
#X obj 129 38 symbol \$1;
#X obj 129 13 loadbang;
#X obj 129 63 list trim;
#X obj 27 248 *~ 0.5;
#X connect 0 0 1 0;
#X connect 0 0 2 1;
#X connect 0 0 3 1;
#X connect 1 0 2 0;
#X connect 1 0 3 0;
#X connect 2 0 6 0;
#X connect 3 0 5 0;
#X connect 4 0 0 0;
#X connect 5 0 18 0;
#X connect 6 0 17 0;
#X connect 7 0 8 1;
#X connect 8 0 22 0;
#X connect 9 0 10 0;
#X connect 10 0 8 0;
#X connect 10 0 7 0;
#X connect 11 0 10 1;
#X connect 12 0 10 1;
#X connect 13 0 14 0;
#X connect 14 0 11 0;
#X connect 14 1 12 0;
#X connect 14 2 15 0;
#X connect 15 0 10 1;
#X connect 16 0 9 0;
#X connect 19 0 21 0;
#X connect 20 0 19 0;
#X connect 21 0 14 0;
#X connect 22 0 4 0;
