#N canvas 3 35 1360 708 12;
#X obj 584 126 cnv 15 499 111 empty empty empty 20 12 0 14 -204800
-66577 0;
#X msg 594 142 set foo;
#X obj 12 126 cnv 15 477 136 empty empty empty 20 12 0 14 -203904 -66577
0;
#X obj 12 39 cnv 15 134 39 empty empty empty 20 12 0 14 -203904 -66577
0;
#X obj 22 49 sig~;
#X text 9 11 INLET 0:;
#X obj 157 39 cnv 15 134 39 empty empty empty 20 12 0 14 -203904 -66577
0;
#X obj 167 49 sig~;
#X text 154 11 INLET 1:;
#X obj 583 39 cnv 15 134 39 empty empty empty 20 12 0 14 -204800 -66577
0;
#X obj 593 49 sig~;
#X obj 728 39 cnv 15 134 39 empty empty empty 20 12 0 14 -204800 -66577
0;
#X obj 738 49 sig~;
#X text 580 11 OUTLET 0:;
#X text 725 11 OUTLET 1:;
#X text 581 98 OUTLET 2:;
#X msg 22 232 state;
#X text 62 49 canal izq.;
#X text 207 49 canal der.;
#X text 633 49 canal izq.;
#X text 778 49 canal der.;
#X text 655 135 donde foo representa una lista de todos los parámetros
correctamente formateados para ser enviados de vuelta a la abstracción
\, en otras palabras \, conectar esta salida a un mensaje y cuando
la abstracción reciba el mensaje [state(] \, se guardará el estado
actual de la abstracción (tener en cuenta que el mensaje se vaciará
antes de escribir en él);
#X text 69 232 escribir un mensaje con el estado actual de la abstracción
;
#X obj 12 629 loadbang;
#X msg 12 654 0;
#X obj 12 679 switch~;
#X msg 22 136 room \$1;
#X text 82 136 tamaño del cuarto (1 a 199);
#X msg 22 165 damp \$1;
#X text 82 165 dampening (0 a 1.99);
#X msg 22 194 freeze \$1;
#X text 96 187 congelar o no la reverberación (distinto de cero y
0 respectivamente);
#X text 9 98 INLET 2:;
#X connect 23 0 24 0;
#X connect 24 0 25 0;
#X connect 26 0 28 0;
#X connect 28 0 30 0;
#X connect 30 0 16 0;
