#N canvas 686 35 677 708 12;
#X obj 289 401 inlet~;
#X obj 101 104 cnv 15 78 77 empty empty empty 20 12 0 14 -262144 -66577
0;
#X obj 441 347 s \$0-params;
#X obj 289 461 outlet~;
#X obj 612 431 r \$0-state;
#X obj 612 461 outlet;
#X obj 725 76 inlet;
#N canvas 914 35 449 708 route-inlet-messages 0;
#X obj 12 12 inlet;
#X obj 28 440 r \$0-error;
#X obj 205 391 s \$0-error;
#N canvas 1027 35 336 708 state 0;
#X obj 66 30 inlet;
#X obj 66 59 t b b;
#X msg 98 88 set;
#X obj 66 166 s \$0-state;
#N canvas 0 32 1366 736 global 0;
#X obj 54 60 f;
#X obj 54 7 inlet;
#X obj 54 277 outlet;
#X obj 72 36 r \$0-room;
#X obj 87 83 r \$0-damp;
#X obj 121 113 r \$0-freeze;
#X obj 54 203 pack f f f;
#X msg 54 232 add2 room \$1 \, addcomma \, add2 damp \$2 \, addcomma
\, add2 freeze \$3;
#X connect 0 0 6 0;
#X connect 1 0 0 0;
#X connect 3 0 0 1;
#X connect 4 0 6 1;
#X connect 5 0 6 2;
#X connect 6 0 7 0;
#X connect 7 0 2 0;
#X restore 66 127 pd global;
#X connect 0 0 1 0;
#X connect 1 0 4 0;
#X connect 1 1 2 0;
#X connect 2 0 3 0;
#X connect 4 0 3 0;
#X restore 156 361 pd state;
#X msg 303 61 1;
#X msg 338 61 0;
#X obj 303 32 loadbang;
#X msg 28 470 se recibió un mensaje desconocido;
#X msg 22 91 set \$1;
#X msg 70 171 set \$1;
#X msg 118 251 set \$1;
#X obj 12 61 route room damp freeze state;
#X obj 22 116 s \$0-room-r;
#X obj 12 141 s \$0-room;
#X obj 70 196 s \$0-damp-r;
#X obj 60 221 s \$0-damp;
#X obj 118 276 s \$0-freeze-r;
#X obj 108 301 s \$0-freeze;
#X obj 28 500 print fv~;
#X connect 0 0 11 0;
#X connect 1 0 7 0;
#X connect 4 0 12 0;
#X connect 5 0 14 0;
#X connect 6 0 4 0;
#X connect 6 0 5 0;
#X connect 7 0 18 0;
#X connect 8 0 12 0;
#X connect 9 0 14 0;
#X connect 10 0 16 0;
#X connect 11 0 8 0;
#X connect 11 0 13 0;
#X connect 11 1 9 0;
#X connect 11 1 15 0;
#X connect 11 2 10 0;
#X connect 11 2 17 0;
#X connect 11 3 3 0;
#X connect 11 4 2 0;
#X restore 725 105 pd route-inlet-messages;
#X obj 492 461 outlet~;
#X obj 441 212 r \$0-room;
#X obj 602 237 r \$0-damp;
#X msg 441 287 control room\ size \$1;
#X msg 602 287 control damping \$1;
#X obj 742 237 r \$0-freeze;
#X msg 742 287 control freeze\ mode \$1;
#X obj 492 401 inlet~;
#X obj 196 361 r \$0-params;
#X obj 106 119 nbx 4 15 1 199 0 0 \$0-room \$0-room-r room 0 -8 0 10
-1 -262144 -1 1 256;
#X obj 441 237 * 0.01;
#X obj 106 166 tgl 10 0 \$0-freeze \$0-freeze-r freeze 15 4 0 10 -1
-262144 -1 0 1;
#X obj 109 151 hsl 63 10 0 1.99 0 0 \$0-damp \$0-damp-r damp -2 -8
0 10 -1 -262144 -1 0 1;
#X obj 407 100 loadbang;
#X obj 196 456 print;
#X msg 397 150 control dry\ level 0;
#X msg 407 170 control wet\ level 1;
#X msg 387 130 control width 0;
#X obj 441 262 clip 0 1.99;
#X obj 602 262 clip 0 1.99;
#X obj 742 262 clip 0 1;
#X obj 196 431 pd-plugin/plugin~ freeverb3;
#X obj 399 431 pd-plugin/plugin~ freeverb3;
#X connect 0 0 29 1;
#X connect 4 0 5 0;
#X connect 6 0 7 0;
#X connect 9 0 18 0;
#X connect 10 0 27 0;
#X connect 11 0 2 0;
#X connect 12 0 2 0;
#X connect 13 0 28 0;
#X connect 14 0 2 0;
#X connect 15 0 30 1;
#X connect 16 0 29 0;
#X connect 16 0 30 0;
#X connect 18 0 26 0;
#X connect 21 0 25 0;
#X connect 21 0 23 0;
#X connect 21 0 24 0;
#X connect 23 0 2 0;
#X connect 24 0 2 0;
#X connect 25 0 2 0;
#X connect 26 0 11 0;
#X connect 27 0 12 0;
#X connect 28 0 14 0;
#X connect 29 0 22 0;
#X connect 29 1 3 0;
#X connect 30 1 8 0;
#X coords 0 -1 1 1 80 85 2 100 100;
