#N canvas 686 35 677 708 12;
#X obj 43 409 pd-plugin/plugin~ gverb;
#X msg 43 359 control roomsize \$1;
#X msg 190 359 control reverb\ time \$1;
#X msg 365 359 control damping \$1;
#X msg 505 359 control early\ reflection\ level \$1;
#X msg 764 359 control tail\ level \$1;
#X obj 1132 329 loadbang;
#X msg 1132 359 control input\ bandwidth 1;
#X msg 922 359 control dry\ signal\ level 0;
#X obj 764 284 rmstodb;
#X obj 764 309 * 0.7;
#X obj 764 334 - 70;
#X obj 764 259 * 0.01;
#X obj 505 284 rmstodb;
#X obj 505 309 * 0.7;
#X obj 505 334 - 70;
#X obj 505 259 * 0.01;
#X obj 764 234 r \$0-tail;
#X obj 365 309 r \$0-damp;
#X obj 190 284 r \$0-time;
#X obj 43 309 r \$0-room;
#X obj 106 69 nbx 3 15 1 300 0 0 \$0-room \$0-room-r room 0 -8 0 10
-1 -262144 -1 10 256;
#X obj 109 134 hsl 63 10 0 1 0 0 \$0-damp \$0-damp-r damp -2 -8 0 10
-1 -262144 -1 0 1;
#X obj 106 102 nbx 5 15 100 30000 0 0 \$0-time \$0-time-r time 0 -8
0 10 -1 -262144 -1 100 256;
#X obj 190 309 * 0.001;
#X obj 190 334 clip 0.1 300;
#X obj 43 334 clip 1 300;
#X obj 365 334 clip 0 1;
#X obj 109 161 hsl 63 10 0 100 0 0 \$0-early \$0-early-r early -2 -8
0 10 -1 -262144 -1 6200 1;
#X obj 109 188 hsl 63 10 0 100 0 0 \$0-tail \$0-tail-r tail -2 -8 0
10 -1 -262144 -1 6200 1;
#X obj 505 234 r \$0-early;
#X obj 201 244 inlet~;
#X obj 376 244 inlet~;
#X obj 218 409 pd-plugin/plugin~ gverb;
#X obj 122 439 outlet~;
#X obj 376 439 outlet~;
#X obj 469 414 r \$0-state;
#X obj 469 439 outlet;
#X obj 735 76 inlet;
#N canvas 914 35 449 708 route-inlet-messages 0;
#X obj 12 12 inlet;
#X obj 28 439 r \$0-error;
#X obj 268 391 s \$0-error;
#N canvas 914 35 449 708 state 0;
#X obj 66 30 inlet;
#X obj 66 59 t b b;
#X msg 98 88 set;
#X obj 66 166 s \$0-state;
#N canvas 3 35 1360 708 global 0;
#X obj 54 60 f;
#X obj 54 7 inlet;
#X obj 54 277 outlet;
#X obj 72 36 r \$0-room;
#X obj 54 203 pack f f f f f;
#X obj 125 143 r \$0-early;
#X obj 149 173 r \$0-tail;
#X obj 77 83 r \$0-time;
#X obj 101 113 r \$0-damp;
#X msg 54 232 add2 room \$1 \, addcomma \, add2 time \$2 \, addcomma
\, add2 damp \$3 \, addcomma \, add2 early \$4 \, addcomma \, add2
tail \$5;
#X connect 0 0 4 0;
#X connect 1 0 0 0;
#X connect 3 0 0 1;
#X connect 4 0 9 0;
#X connect 5 0 4 3;
#X connect 6 0 4 4;
#X connect 7 0 4 1;
#X connect 8 0 4 2;
#X connect 9 0 2 0;
#X restore 66 127 pd global;
#X connect 0 0 1 0;
#X connect 1 0 4 0;
#X connect 1 1 2 0;
#X connect 2 0 3 0;
#X connect 4 0 3 0;
#X restore 225 361 pd state;
#X msg 338 61 0;
#X obj 303 32 loadbang;
#X msg 28 469 se recibió un mensaje desconocido;
#X msg 22 91 set \$1;
#X msg 64 171 set \$1;
#X msg 107 251 set \$1;
#X obj 22 116 s \$0-room-r;
#X obj 12 141 s \$0-room;
#X obj 28 499 print gv~;
#X msg 150 91 set \$1;
#X msg 192 171 set \$1;
#X obj 192 196 s \$0-tail-r;
#X obj 182 221 s \$0-tail;
#X obj 140 141 s \$0-early;
#X obj 150 116 s \$0-early-r;
#X obj 12 61 route room time damp early tail state;
#X obj 64 196 s \$0-time-r;
#X obj 54 221 s \$0-time;
#X obj 107 276 s \$0-damp-r;
#X obj 97 301 s \$0-damp;
#X msg 373 61 100;
#X msg 303 61 10;
#X connect 0 0 19 0;
#X connect 1 0 6 0;
#X connect 4 0 22 0;
#X connect 5 0 25 0;
#X connect 5 0 4 0;
#X connect 5 0 24 0;
#X connect 6 0 12 0;
#X connect 7 0 10 0;
#X connect 8 0 20 0;
#X connect 9 0 22 0;
#X connect 13 0 18 0;
#X connect 14 0 15 0;
#X connect 19 0 7 0;
#X connect 19 0 11 0;
#X connect 19 1 8 0;
#X connect 19 1 21 0;
#X connect 19 2 9 0;
#X connect 19 2 23 0;
#X connect 19 3 13 0;
#X connect 19 3 17 0;
#X connect 19 4 14 0;
#X connect 19 4 16 0;
#X connect 19 5 3 0;
#X connect 19 6 2 0;
#X connect 24 0 20 0;
#X connect 24 0 15 0;
#X connect 24 0 18 0;
#X connect 25 0 10 0;
#X restore 735 105 pd route-inlet-messages;
#X connect 0 1 34 0;
#X connect 1 0 0 0;
#X connect 1 0 33 0;
#X connect 2 0 0 0;
#X connect 2 0 33 0;
#X connect 3 0 0 0;
#X connect 3 0 33 0;
#X connect 4 0 0 0;
#X connect 4 0 33 0;
#X connect 5 0 0 0;
#X connect 5 0 33 0;
#X connect 6 0 7 0;
#X connect 6 0 8 0;
#X connect 7 0 0 0;
#X connect 7 0 33 0;
#X connect 8 0 0 0;
#X connect 8 0 33 0;
#X connect 9 0 10 0;
#X connect 10 0 11 0;
#X connect 11 0 5 0;
#X connect 12 0 9 0;
#X connect 13 0 14 0;
#X connect 14 0 15 0;
#X connect 15 0 4 0;
#X connect 16 0 13 0;
#X connect 17 0 12 0;
#X connect 18 0 27 0;
#X connect 19 0 24 0;
#X connect 20 0 26 0;
#X connect 24 0 25 0;
#X connect 25 0 2 0;
#X connect 26 0 1 0;
#X connect 27 0 3 0;
#X connect 30 0 16 0;
#X connect 31 0 0 1;
#X connect 32 0 33 1;
#X connect 33 2 35 0;
#X connect 36 0 37 0;
#X connect 38 0 39 0;
#X coords 0 -1 1 1 80 157 2 100 50;
