#N canvas 78 78 1366 685 12;
#X obj 372 415 osc~;
#X obj 372 505 *~, f 15;
#X obj 474 407 line~;
#X msg 509 378 1 \, 0 \$1;
#X obj 509 354 f;
#X obj 404 330 osc~;
#X obj 404 354 *~, f 6;
#X obj 372 391 +~, f 5;
#X obj 372 185 line~;
#X obj 404 248 *~;
#X obj 372 439 *~, f 6;
#X obj 372 463 tanh~;
#X obj 474 431 *~ 1.71828;
#X obj 474 456 +~ 1;
#X obj 473 480 log~;
#X obj 372 553 lop~;
#X obj 372 582 lop~, f 5;
#X msg 474 378 1 2;
#X obj 845 197 delay 2;
#X msg 372 161 \$1 \, \$2 \$3;
#X obj 372 137 pack f f f;
#X obj 372 113 f;
#X obj 527 330 r \$0-dec;
#X obj 439 113 r \$0-gliss-len;
#X obj 390 55 r \$0-freq;
#X obj 405 31 r \$0-gliss-ratio;
#X obj 405 113 *;
#X obj 415 84 t b f;
#X obj 404 529 r \$0-lop;
#X obj 443 330 r \$0-mod;
#X obj 411 415 r \$0-sat;
#X obj 422 185 r \$0-mod-mult;
#X obj 845 226 s \$0-on;
#X obj 372 7 r \$0-on;
#X obj 509 306 r \$0-on;
#X obj 572 404 line~;
#X obj 372 654 hip~ 5;
#X obj 572 356 r \$0-on;
#X obj 572 476 *~;
#X msg 572 380 1 \, 0 2;
#X obj 729 476 *~ 0.8, f 17;
#X obj 729 500 s~ \$0-click-fb;
#X obj 582 428 r~ \$0-click-fb;
#X msg 845 168 bang;
#X obj 590 452 r \$0-click;
#X obj 845 452 r \$0-reso;
#X obj 582 500 delwrite~ \$0-del 10;
#X obj 729 452 delread~ \$0-del;
#X obj 729 428 r \$0-pitch;
#X obj 572 548 lop~;
#X obj 572 577 lop~, f 5;
#X obj 101 103 cnv 15 150 192 empty empty empty 20 12 0 14 #ffffff
#404040 0;
#X obj 184 228 hsl 60 10 200 20000 1 0 \$0-lop \$0-lop-r low-pass -2
-8 0 10 #fcfcfc #000000 #000000 0 1;
#X obj 106 120 nbx 3 15 1 999 0 0 \$0-dec \$0-dec-r dec 0 -8 0 10 #fcfcfc
#000000 #000000 0 256;
#X obj 106 187 nbx 3 15 1 999 0 0 \$0-gliss-len \$0-gliss-len-r gliss\\\ len
0 -8 0 10 #fcfcfc #000000 #000000 0 256;
#X obj 106 154 nbx 5 14 1 15000 0 0 \$0-freq \$0-freq-r freq 0 -8 0
10 #fcfcfc #000000 #000000 0 256;
#X obj 106 221 nbx 3 15 -1e+37 1e+37 0 0 \$0-gliss-ratio \$0-gliss-ratio-r
gliss\\\ ratio 0 -8 0 10 #fcfcfc #000000 #000000 0 256;
#X obj 184 120 hsl 60 10 0 250 0 0 \$0-mod \$0-mod-r FM\ mod -2 -8
0 10 #fcfcfc #000000 #000000 0 1;
#X obj 184 202 hsl 60 10 1 4 1 0 \$0-sat \$0-sat-r saturation -2 -8
0 10 #fcfcfc #000000 #000000 0 1;
#X obj 181 146 nbx 3 15 0 1e+37 0 0 \$0-mod-mult \$0-mod-mult-r mod\\\ mult
0 -8 0 10 #fcfcfc #000000 #000000 0 256;
#X obj 109 254 hsl 60 10 0.01 1 1 0 \$0-click \$0-click-r click -2
-8 0 10 #fcfcfc #000000 #000000 0 1;
#X obj 109 280 hsl 60 10 0 0.8 0 0 \$0-reso \$0-reso-r resonance -2
-8 0 10 #fcfcfc #000000 #000000 0 1;
#X obj 184 280 hsl 60 10 10 0.1 1 0 \$0-pitch \$0-pitch-r pitch -2
-8 0 10 #fcfcfc #000000 #000000 0 1;
#X obj 184 254 hsl 60 10 1000 15000 1 0 \$0-sharp \$0-sharp-r sharpness
-2 -8 0 10 #fcfcfc #000000 #000000 0 1;
#X obj 372 606 +~, f 29;
#X obj 845 120 inlet;
#X obj 845 144 route bang;
#N canvas -7 0 681 676 route-inlet 1;
#X obj 19 13 inlet;
#X msg 29 66 set \$1;
#X obj 29 90 s \$0-dec-r;
#X obj 19 114 s \$0-dec;
#X msg 67 143 set \$1;
#X obj 67 167 s \$0-freq-r;
#X obj 57 191 s \$0-freq;
#N canvas 718 168 450 300 gliss 0;
#X obj 18 21 inlet;
#X obj 18 45 route len ratio;
#X msg 28 74 set \$1;
#X obj 28 98 s \$0-gliss-len-r;
#X obj 18 122 s \$0-gliss-len;
#X msg 79 151 set \$1;
#X obj 69 199 s \$0-gliss-ratio;
#X obj 79 175 s \$0-gliss-ratio-r;
#X obj 120 74 s \$0-error;
#X connect 0 0 1 0;
#X connect 1 0 2 0;
#X connect 1 0 4 0;
#X connect 1 1 5 0;
#X connect 1 1 6 0;
#X connect 1 2 8 0;
#X connect 2 0 3 0;
#X connect 5 0 7 0;
#X restore 96 66 pd gliss;
#N canvas 718 168 450 300 mod 0;
#X obj 18 21 inlet;
#X msg 28 74 set \$1;
#X msg 76 151 set \$1;
#X obj 18 45 route float mult freq;
#X obj 28 98 s \$0-mod-r;
#X obj 18 122 s \$0-mod;
#X obj 76 175 s \$0-mod-mult-r;
#X obj 66 199 s \$0-mod-mult;
#X msg 124 74 set \$1;
#X obj 124 98 s \$0-mod-freq-r;
#X obj 114 122 s \$0-mod-freq;
#X obj 162 258 s \$0-error;
#X connect 0 0 3 0;
#X connect 1 0 4 0;
#X connect 2 0 6 0;
#X connect 3 0 1 0;
#X connect 3 0 5 0;
#X connect 3 1 2 0;
#X connect 3 1 7 0;
#X connect 3 2 8 0;
#X connect 3 2 10 0;
#X connect 3 3 11 0;
#X connect 8 0 9 0;
#X restore 134 95 pd mod;
#X msg 183 124 set \$1;
#X obj 183 148 s \$0-sat-r;
#X obj 173 172 s \$0-sat;
#X msg 221 201 set \$1;
#X obj 221 225 s \$0-lop-r;
#X obj 211 249 s \$0-lop;
#X msg 260 66 set \$1;
#X obj 260 90 s \$0-click-r;
#X obj 250 114 s \$0-click;
#X msg 298 143 set \$1;
#X obj 298 167 s \$0-sharp-r;
#X obj 288 191 s \$0-sharp;
#X msg 337 220 set \$1;
#X obj 19 37 route dec freq gliss mod sat lop click sharp reso pitch
state, f 61;
#X obj 337 244 s \$0-reso-r;
#X obj 327 268 s \$0-reso;
#X msg 375 66 set \$1;
#X obj 365 114 s \$0-pitch;
#X obj 375 90 s \$0-pitch-r;
#X obj 18 294 r \$0-error;
#X msg 18 318 se recibió un mensaje desconocido;
#X obj 18 342 print hide~;
#N canvas 682 145 450 433 state 0;
#X obj 11 10 inlet;
#X obj 11 34 t b b;
#X obj 11 406 s \$0-state;
#X msg 43 378 set;
#X obj 11 87 f;
#X obj 29 63 r \$0-dec;
#X obj 11 260 pack f f f f f f f f f f f f f;
#X obj 28 111 r \$0-freq;
#X obj 45 135 r \$0-gliss-len;
#X obj 62 159 r \$0-gliss-ratio;
#X obj 80 183 r \$0-mod;
#X obj 97 207 r \$0-mod-mult;
#X obj 114 231 r \$0-mod-freq;
#X obj 131 111 r \$0-sat;
#X obj 149 135 r \$0-lop;
#X obj 180 159 r \$0-click;
#X obj 183 183 r \$0-sharp;
#X obj 200 207 r \$0-reso;
#X obj 218 231 r \$0-pitch;
#X msg 11 284 add2 dec \$1 \, addcomma \, add2 freq \$2 \, addcomma
\, add2 gliss len \$3 \, addcomma \, add2 gliss ratio \$4 \, addcomma
\, add2 mod \$5 \, addcomma \, add2 mod mult \$6 \, addcomma \, add2
mod freq \$7 \, addcomma \, add2 sat \$8 \, addcomma \, add2 lop \$9
\, addcomma \, add2 click \$10 \, addcomma \, add2 sharp \$11 \, addcomma
\, add2 reso \$12 \, addcomma \, add2 pitch \$13;
#X connect 0 0 1 0;
#X connect 1 0 4 0;
#X connect 1 1 3 0;
#X connect 3 0 2 0;
#X connect 4 0 6 0;
#X connect 5 0 4 1;
#X connect 6 0 19 0;
#X connect 7 0 6 1;
#X connect 8 0 6 2;
#X connect 9 0 6 3;
#X connect 10 0 6 4;
#X connect 11 0 6 5;
#X connect 12 0 6 6;
#X connect 13 0 6 7;
#X connect 14 0 6 8;
#X connect 15 0 6 9;
#X connect 16 0 6 10;
#X connect 17 0 6 11;
#X connect 18 0 6 12;
#X connect 19 0 2 0;
#X restore 404 143 pd state;
#X obj 443 66 s \$0-error;
#X connect 0 0 22 0;
#X connect 1 0 2 0;
#X connect 4 0 5 0;
#X connect 9 0 10 0;
#X connect 12 0 13 0;
#X connect 15 0 16 0;
#X connect 18 0 19 0;
#X connect 21 0 23 0;
#X connect 22 0 1 0;
#X connect 22 0 3 0;
#X connect 22 1 4 0;
#X connect 22 1 6 0;
#X connect 22 2 7 0;
#X connect 22 3 8 0;
#X connect 22 4 9 0;
#X connect 22 4 11 0;
#X connect 22 5 12 0;
#X connect 22 5 14 0;
#X connect 22 6 15 0;
#X connect 22 6 17 0;
#X connect 22 7 18 0;
#X connect 22 7 20 0;
#X connect 22 8 21 0;
#X connect 22 8 24 0;
#X connect 22 9 25 0;
#X connect 22 9 26 0;
#X connect 22 10 31 0;
#X connect 22 11 32 0;
#X connect 25 0 27 0;
#X connect 28 0 29 0;
#X connect 29 0 30 0;
#X restore 912 168 pd route-inlet;
#X obj 184 177 hsl 60 10 10 1000 1 0 \$0-mod-freq \$0-mod-freq-r mod\\\ freq
-2 -8 0 10 #fcfcfc #000000 #000000 0 1;
#X obj 527 185 r \$0-mod-freq;
#X msg 545 209 0 1;
#X msg 436 209 1 0;
#X msg 436 248 \$1;
#X obj 404 277 *~, f 5;
#X obj 527 277 *~;
#X msg 545 248 \$2;
#X obj 404 301 +~, f 6;
#X obj 604 524 r \$0-sharp;
#X obj 435 654 r \$0-state;
#X obj 435 678 outlet;
#X obj 372 678 outlet~;
#X obj 372 630 tanh~;
#X connect 0 0 10 0;
#X connect 1 0 15 0;
#X connect 2 0 12 0;
#X connect 3 0 2 0;
#X connect 4 0 3 0;
#X connect 5 0 6 0;
#X connect 6 0 7 1;
#X connect 7 0 0 0;
#X connect 8 0 7 0;
#X connect 8 0 9 0;
#X connect 9 0 73 0;
#X connect 10 0 11 0;
#X connect 11 0 1 0;
#X connect 12 0 13 0;
#X connect 13 0 14 0;
#X connect 14 0 1 1;
#X connect 15 0 16 0;
#X connect 16 0 64 0;
#X connect 17 0 2 0;
#X connect 18 0 32 0;
#X connect 19 0 8 0;
#X connect 20 0 19 0;
#X connect 21 0 20 0;
#X connect 22 0 4 1;
#X connect 23 0 20 2;
#X connect 24 0 21 1;
#X connect 24 0 27 0;
#X connect 25 0 26 0;
#X connect 26 0 20 1;
#X connect 27 0 26 0;
#X connect 27 1 26 1;
#X connect 28 0 15 1;
#X connect 28 0 16 1;
#X connect 29 0 6 1;
#X connect 30 0 10 1;
#X connect 31 0 71 0;
#X connect 31 0 9 1;
#X connect 33 0 21 0;
#X connect 34 0 4 0;
#X connect 35 0 38 0;
#X connect 36 0 80 0;
#X connect 37 0 39 0;
#X connect 38 0 46 0;
#X connect 38 0 49 0;
#X connect 39 0 35 0;
#X connect 40 0 41 0;
#X connect 42 0 38 0;
#X connect 43 0 18 0;
#X connect 43 0 17 0;
#X connect 44 0 38 1;
#X connect 45 0 40 1;
#X connect 47 0 40 0;
#X connect 48 0 47 0;
#X connect 49 0 50 0;
#X connect 50 0 64 1;
#X connect 64 0 81 0;
#X connect 65 0 66 0;
#X connect 66 0 43 0;
#X connect 66 1 67 0;
#X connect 69 0 70 0;
#X connect 69 0 74 0;
#X connect 70 0 72 0;
#X connect 70 0 75 0;
#X connect 71 0 72 0;
#X connect 71 0 75 0;
#X connect 72 0 73 1;
#X connect 73 0 76 0;
#X connect 74 0 76 1;
#X connect 75 0 74 1;
#X connect 76 0 5 0;
#X connect 77 0 49 1;
#X connect 77 0 50 1;
#X connect 78 0 79 0;
#X connect 81 0 36 0;
#X coords 0 -1 1 1 152 198 1 100 100;
