#N canvas 655 0 1366 685 12;
#X obj 138 77 t b b, f 7;
#X obj 138 106 metro 50;
#X obj 138 193 timer;
#X obj 138 319 * 0.001;
#X obj 138 348 i;
#X obj 271 450 -, f 5;
#X obj 271 397 t b f;
#X obj 271 426 f;
#X obj 138 290 i;
#X obj 271 474 * 1000;
#X obj 181 522 % 60;
#X obj 138 522 / 60;
#X obj 138 546 i;
#X obj 21 23 cnv 10 98 13 empty \$0-label 4m\ 2s\ 250ms 2 7 0 14 #000000
#ffffff 0;
#X obj 271 546 t b f;
#X obj 138 585 pack f f f, f 24;
#X msg 138 633 label \$1;
#X obj 138 657 s \$0-label;
#X msg 138 609 symbol \$1m\\\ \$2s\\\ \$3ms;
#X obj 271 498 i;
#X obj 271 522 clip 0 1000;
#X obj 181 546 t b f, f 6;
#X obj 138 19 inlet;
#X obj 138 48 route bang float, f 17;
#X obj 156 232 f;
#X obj 206 106 sel 0 1;
#X obj 138 261 +;
#X msg 184 232 0;
#X obj 206 77 change 1;
#X obj 138 154 spigot 1, f 10;
#X msg 206 130 0;
#X msg 231 130 1;
#X obj 82 657 outlet;
#X connect 0 0 1 0;
#X connect 0 1 2 0;
#X connect 0 1 27 0;
#X connect 1 0 29 0;
#X connect 2 0 24 1;
#X connect 2 0 26 0;
#X connect 3 0 4 0;
#X connect 3 0 7 1;
#X connect 4 0 6 0;
#X connect 4 0 10 0;
#X connect 4 0 11 0;
#X connect 5 0 9 0;
#X connect 6 0 7 0;
#X connect 6 1 5 1;
#X connect 7 0 5 0;
#X connect 8 0 3 0;
#X connect 9 0 19 0;
#X connect 10 0 21 0;
#X connect 11 0 12 0;
#X connect 12 0 15 0;
#X connect 14 0 15 0;
#X connect 14 1 15 2;
#X connect 15 0 18 0;
#X connect 15 0 32 0;
#X connect 16 0 17 0;
#X connect 18 0 16 0;
#X connect 19 0 20 0;
#X connect 20 0 14 0;
#X connect 21 0 15 0;
#X connect 21 1 15 1;
#X connect 22 0 23 0;
#X connect 23 0 0 0;
#X connect 24 0 26 1;
#X connect 25 0 30 0;
#X connect 25 0 2 0;
#X connect 25 1 24 0;
#X connect 25 1 31 0;
#X connect 26 0 8 0;
#X connect 27 0 26 1;
#X connect 28 0 25 0;
#X connect 29 0 2 1;
#X connect 30 0 29 1;
#X connect 31 0 29 1;
#X coords 0 -1 1 1 100 19 2 20 20;
