#N canvas 676 0 681 676 12;
#X obj 138 67 t b b, f 7;
#X obj 78 155 metro 50;
#X obj 138 213 timer;
#X obj 138 329 * 0.001;
#X obj 138 387 i;
#X obj 271 440 -, f 5;
#X obj 271 387 t b f;
#X obj 271 416 f;
#X obj 138 300 i;
#X obj 271 464 * 1000;
#X obj 181 512 % 60;
#X obj 138 512 / 60;
#X obj 138 536 i;
#X obj 21 23 cnv 10 98 13 empty \$0-label 0m\\\ 0s\\\ 0ms 2 7 0 14
#000000 #ffffff 0;
#X obj 271 536 t b f;
#X obj 138 575 pack f f f, f 24;
#X msg 138 623 label \$1;
#X obj 138 647 s \$0-label;
#X msg 138 599 symbol \$1m\\\ \$2s\\\ \$3ms;
#X obj 271 488 i;
#X obj 271 512 clip 0 1000;
#X obj 181 536 t b f, f 6;
#X obj 138 9 inlet;
#X obj 138 38 route bang float, f 17;
#X obj 156 242 f;
#X obj 138 271 +;
#X msg 184 242 0;
#X obj 82 647 outlet;
#X obj 206 91 t f f;
#X obj 206 116 sel 1;
#X obj 206 140 t b b;
#X obj 78 131 loadbang;
#X obj 138 184 spigot;
#X obj 138 358 t f f;
#X obj 206 67 change -1;
#X connect 0 1 26 0;
#X connect 1 0 32 0;
#X connect 2 0 25 0;
#X connect 3 0 33 0;
#X connect 4 0 6 0;
#X connect 4 0 10 0;
#X connect 4 0 11 0;
#X connect 5 0 9 0;
#X connect 6 0 7 0;
#X connect 6 1 5 1;
#X connect 7 0 5 0;
#X connect 8 0 3 0;
#X connect 9 0 19 0;
#X connect 10 0 21 0;
#X connect 11 0 12 0;
#X connect 12 0 15 0;
#X connect 14 0 15 0;
#X connect 14 1 15 2;
#X connect 15 0 18 0;
#X connect 15 0 27 0;
#X connect 16 0 17 0;
#X connect 18 0 16 0;
#X connect 19 0 20 0;
#X connect 20 0 14 0;
#X connect 21 0 15 0;
#X connect 21 1 15 1;
#X connect 22 0 23 0;
#X connect 23 0 0 0;
#X connect 23 1 34 0;
#X connect 24 0 25 1;
#X connect 25 0 8 0;
#X connect 25 0 24 1;
#X connect 26 0 25 1;
#X connect 26 0 24 1;
#X connect 26 0 3 0;
#X connect 28 0 29 0;
#X connect 28 1 32 1;
#X connect 29 0 30 0;
#X connect 30 0 2 0;
#X connect 30 1 24 0;
#X connect 31 0 1 0;
#X connect 32 0 2 1;
#X connect 33 0 4 0;
#X connect 33 1 7 1;
#X connect 34 0 28 0;
#X coords 0 -1 1 1 100 19 2 20 20;
