#N canvas 655 0 450 676 12;
#X obj 138 77 t b b;
#X obj 138 101 metro 50;
#X obj 138 130 timer;
#X obj 138 177 * 0.001;
#X obj 138 201 i;
#X obj 243 211 -;
#X obj 253 158 t b f;
#X obj 228 185 f;
#X obj 138 154 i;
#X obj 243 235 * 1000;
#X obj 141 255 % 60;
#X obj 83 230 / 60;
#X obj 83 254 i;
#X obj 21 23 cnv 10 98 13 empty \$0-label 0m\ 0s\ 0ms 2 7 0 14 #000000
#ffffff 0;
#X obj 217 337 t b f;
#X obj 179 402 pack f f f;
#X msg 179 450 label \$1;
#X obj 179 474 s \$0-label;
#X msg 179 426 symbol \$1m\\\ \$2s\\\ \$3ms;
#X obj 243 259 i;
#X obj 243 283 clip 0 1000;
#X obj 141 279 t b f;
#X obj 138 53 inlet;
#X connect 0 0 1 0;
#X connect 0 1 2 0;
#X connect 1 0 2 1;
#X connect 2 0 8 0;
#X connect 3 0 4 0;
#X connect 3 0 7 1;
#X connect 4 0 6 0;
#X connect 4 0 10 0;
#X connect 4 0 11 0;
#X connect 5 0 9 0;
#X connect 6 0 7 0;
#X connect 6 1 5 1;
#X connect 7 0 5 0;
#X connect 8 0 3 0;
#X connect 9 0 19 0;
#X connect 10 0 21 0;
#X connect 11 0 12 0;
#X connect 12 0 15 0;
#X connect 14 0 15 0;
#X connect 14 1 15 2;
#X connect 15 0 18 0;
#X connect 16 0 17 0;
#X connect 18 0 16 0;
#X connect 19 0 20 0;
#X connect 20 0 14 0;
#X connect 21 0 15 0;
#X connect 21 1 15 1;
#X connect 22 0 0 0;
#X coords 0 -1 1 1 100 17 2 20 20;
