#N canvas 2 52 1362 692 12;
#X obj 241 112 wrap~;
#X obj 202 142 -~;
#X obj 184 413 -~;
#X obj 12 443 *~ -1;
#X obj 202 182 clip~ 0 1;
#X obj 202 212 *~, f 6;
#X obj 241 283 -~ 1;
#X obj 241 313 clip~ 0 1e+37;
#X obj 202 353 +~, f 6;
#X obj 202 252 *~, f 11;
#X obj 202 282 *~ 2;
#X obj 202 383 +~, f 20;
#X obj 69 112 wrap~;
#X obj 30 142 -~;
#X obj 12 413 -~;
#X obj 30 182 clip~ 0 1;
#X obj 30 212 *~, f 6;
#X obj 69 283 -~ 1;
#X obj 69 313 clip~ 0 1e+37;
#X obj 30 353 +~, f 6;
#X obj 30 252 *~, f 11;
#X obj 30 282 *~ 2;
#X obj 30 383 +~, f 20;
#X obj 12 72 *~ -1;
#X obj 166 483 +~;
#X obj 166 513 outlet~;
#X obj 12 12 inlet~;
#X obj 272 218 ./evenodd~;
#X obj 100 218 ./evenodd~;
#X obj 12 42 ./signsplit~, f 25;
#X connect 0 0 1 1;
#X connect 0 0 5 1;
#X connect 1 0 4 0;
#X connect 1 0 6 0;
#X connect 2 0 24 1;
#X connect 3 0 24 0;
#X connect 4 0 5 0;
#X connect 5 0 9 0;
#X connect 6 0 7 0;
#X connect 7 0 8 1;
#X connect 7 0 27 0;
#X connect 8 0 11 0;
#X connect 9 0 10 0;
#X connect 10 0 8 0;
#X connect 11 0 2 1;
#X connect 12 0 13 1;
#X connect 12 0 16 1;
#X connect 13 0 15 0;
#X connect 13 0 17 0;
#X connect 14 0 3 0;
#X connect 15 0 16 0;
#X connect 16 0 20 0;
#X connect 17 0 18 0;
#X connect 18 0 19 1;
#X connect 18 0 28 0;
#X connect 19 0 22 0;
#X connect 20 0 21 0;
#X connect 21 0 19 0;
#X connect 22 0 14 1;
#X connect 23 0 12 0;
#X connect 23 0 13 0;
#X connect 23 0 14 0;
#X connect 24 0 25 0;
#X connect 26 0 29 0;
#X connect 27 0 9 1;
#X connect 27 1 11 1;
#X connect 28 0 20 1;
#X connect 28 1 22 1;
#X connect 29 0 23 0;
#X connect 29 1 1 0;
#X connect 29 1 2 0;
#X connect 29 1 0 0;
