#N canvas 587 149 1366 685 12;
#X obj 12 184 keytog 122;
#X msg 12 208 0 \$1;
#X obj 92 184 keytog 115;
#X obj 172 184 keytog 120;
#X obj 252 184 keytog 100;
#X obj 332 184 keytog 99;
#X obj 402 184 keytog 118;
#X obj 482 184 keytog 103;
#X obj 562 184 keytog 98;
#X obj 632 184 keytog 104;
#X msg 92 208 1 \$1;
#X msg 172 208 2 \$1;
#X msg 252 208 3 \$1;
#X msg 332 208 4 \$1;
#X msg 402 208 5 \$1;
#X msg 482 208 6 \$1;
#X obj 712 184 keytog 110;
#X obj 792 184 keytog 106;
#X obj 872 184 keytog 109;
#X obj 952 184 keytog 44;
#X obj 1022 184 keytog 108;
#X obj 1102 184 keytog 46;
#X obj 1172 184 keytog 241;
#X obj 1252 184 keytog 45;
#X obj 12 327 s \$0-output;
#X obj 12 155 s \$0-output;
#X obj 12 446 r \$0-output;
#X obj 12 470 unpack, f 8;
#X obj 65 494 * \$2;
#X obj 12 518 outlet;
#X obj 65 518 outlet;
#X obj 12 12 keytog 113;
#X obj 92 12 keytog 50;
#X obj 162 12 keytog 119;
#X obj 242 12 keytog 51;
#X obj 312 12 keytog 101;
#X obj 392 12 keytog 114;
#X obj 37 422 inlet;
#X obj 90 422 inlet;
#X obj 472 12 keytog 53;
#X obj 542 12 keytog 116;
#X obj 622 12 keytog 54;
#X obj 692 12 keytog 121;
#X obj 772 12 keytog 55;
#X obj 842 12 keytog 117;
#X obj 922 12 keytog 105;
#X obj 1002 12 keytog 57;
#X obj 1072 12 keytog 111;
#X obj 1152 12 keytog 48;
#X obj 1222 12 keytog 112;
#X msg 1252 208 16 \$1;
#X msg 1172 208 15 \$1;
#X msg 1102 208 14 \$1;
#X msg 1022 208 13 \$1;
#X msg 952 208 12 \$1;
#X msg 872 208 11 \$1;
#X msg 792 208 10 \$1;
#X msg 712 208 9 \$1;
#X msg 632 208 8 \$1;
#X msg 562 208 7 \$1;
#X obj 12 494 + \$1;
#X msg 12 36 12 \$1;
#X msg 92 36 13 \$1;
#X msg 162 36 14 \$1;
#X msg 242 36 15 \$1;
#X msg 312 36 16 \$1;
#X msg 392 36 17 \$1;
#X msg 472 36 18 \$1;
#X msg 542 36 19 \$1;
#X msg 622 36 20 \$1;
#X msg 692 36 21 \$1;
#X msg 772 36 22 \$1;
#X msg 842 36 23 \$1;
#X msg 922 36 24 \$1;
#X msg 1002 36 25 \$1;
#X msg 1072 36 26 \$1;
#X msg 1152 36 27 \$1;
#X msg 1222 36 28 \$1;
#X connect 0 0 1 0;
#X connect 1 0 24 0;
#X connect 2 0 10 0;
#X connect 3 0 11 0;
#X connect 4 0 12 0;
#X connect 5 0 13 0;
#X connect 6 0 14 0;
#X connect 7 0 15 0;
#X connect 8 0 59 0;
#X connect 9 0 58 0;
#X connect 10 0 24 0;
#X connect 11 0 24 0;
#X connect 12 0 24 0;
#X connect 13 0 24 0;
#X connect 14 0 24 0;
#X connect 15 0 24 0;
#X connect 16 0 57 0;
#X connect 17 0 56 0;
#X connect 18 0 55 0;
#X connect 19 0 54 0;
#X connect 20 0 53 0;
#X connect 21 0 52 0;
#X connect 22 0 51 0;
#X connect 23 0 50 0;
#X connect 26 0 27 0;
#X connect 27 0 60 0;
#X connect 27 1 28 0;
#X connect 28 0 30 0;
#X connect 31 0 61 0;
#X connect 32 0 62 0;
#X connect 33 0 63 0;
#X connect 34 0 64 0;
#X connect 35 0 65 0;
#X connect 36 0 66 0;
#X connect 37 0 60 1;
#X connect 38 0 28 1;
#X connect 39 0 67 0;
#X connect 40 0 68 0;
#X connect 41 0 69 0;
#X connect 42 0 70 0;
#X connect 43 0 71 0;
#X connect 44 0 72 0;
#X connect 45 0 73 0;
#X connect 46 0 74 0;
#X connect 47 0 75 0;
#X connect 48 0 76 0;
#X connect 49 0 77 0;
#X connect 50 0 24 0;
#X connect 51 0 24 0;
#X connect 52 0 24 0;
#X connect 53 0 24 0;
#X connect 54 0 24 0;
#X connect 55 0 24 0;
#X connect 56 0 24 0;
#X connect 57 0 24 0;
#X connect 58 0 24 0;
#X connect 59 0 24 0;
#X connect 60 0 29 0;
#X connect 61 0 25 0;
#X connect 62 0 25 0;
#X connect 63 0 25 0;
#X connect 64 0 25 0;
#X connect 65 0 25 0;
#X connect 66 0 25 0;
#X connect 67 0 25 0;
#X connect 68 0 25 0;
#X connect 69 0 25 0;
#X connect 70 0 25 0;
#X connect 71 0 25 0;
#X connect 72 0 25 0;
#X connect 73 0 25 0;
#X connect 74 0 25 0;
#X connect 75 0 25 0;
#X connect 76 0 25 0;
#X connect 77 0 25 0;
