#N canvas 52 52 450 300 12;
#X obj 179 62 key;
#X obj 179 110 sel \$1;
#X obj 179 139 spigot 1;
#X obj 179 168 t b b;
#X msg 232 110 0;
#X msg 257 110 1;
#X obj 257 62 keyup;
#X obj 257 86 sel \$1;
#X msg 179 192 1;
#X msg 257 192 0;
#X obj 179 216 outlet;
#X obj 218 33 inlet;
#X connect 0 0 1 0;
#X connect 1 0 2 0;
#X connect 2 0 3 0;
#X connect 3 0 8 0;
#X connect 3 1 4 0;
#X connect 4 0 2 1;
#X connect 5 0 2 1;
#X connect 5 0 9 0;
#X connect 6 0 7 0;
#X connect 7 0 5 0;
#X connect 8 0 10 0;
#X connect 9 0 10 0;
#X connect 11 0 7 1;
#X connect 11 0 1 1;
