#N canvas 3 35 1360 708 12;
#X obj 583 134 cnv 15 499 111 empty empty empty 20 12 0 14 -204800
-66577 0;
#X msg 593 150 set foo;
#X obj 12 39 cnv 15 511 134 empty empty empty 20 12 0 14 -203904 -66577
0;
#X obj 583 39 cnv 15 142 40 empty empty empty 20 12 0 14 -204800 -66577
0;
#X obj 593 49 sig~;
#X text 580 11 OUTLET 0:;
#X text 580 106 OUTLET 2:;
#X text 654 143 donde foo representa una lista de todos los parámetros
correctamente formateados para ser enviados de vuelta a la abstracción
\, en otras palabras \, conectar esta salida a un mensaje y cuando
la abstracción reciba el mensaje [state(] \, se guardará el estado
actual de la abstracción (tener en cuenta que el mensaje se vaciará
antes de escribir en él);
#X obj 12 629 loadbang;
#X msg 12 654 0;
#X obj 12 679 switch~;
#X obj 12 184 cnv 15 462 83 empty empty empty 20 12 0 14 -203904 -66577
0;
#X obj 22 194 cnv 15 442 63 empty empty empty 20 12 0 14 -262144 -66577
0;
#X text 30 200 adicionalmente \, se pueden dar los valores de tiempo
de delay y de interpolación como argumentos iniciales del objeto \,
por ejemplo [del4~ 250 10];
#X msg 22 49 in;
#X msg 22 78 out;
#X text 54 78 usar forma ease-out;
#X text 54 49 usar forma ease-in;
#X msg 22 107 inout;
#X text 68 107 usar forma ease-in-out;
#X msg 22 137 \$1 \$2 \$3;
#X text 89 130 determina valor inicial (\$1) \, valor final (\$2) y
duración de la trayectoria (\$3);
#X text 9 11 INLET 0:;
#X text 633 49 trayectoria;
#X connect 8 0 9 0;
#X connect 9 0 10 0;
#X connect 14 0 15 0;
#X connect 15 0 18 0;
#X connect 18 0 20 0;
