#N canvas 913 52 451 692 12;
#X obj 119 408 cnv 15 79 152 empty \$0-text empty 20 12 0 14 #fcfcfc
#9874fc 0;
#X obj 297 81 inlet~;
#X obj 349 81 inlet~;
#X obj 298 244 *~;
#X obj 349 244 *~;
#X obj 124 418 vsl 10 119 -100 0 0 0 \$0-gain \$0-gain-r empty 0 -9
0 10 #000000 #fcfcfc #000000 0 1;
#X obj 316 106 r \$0-gain;
#X obj 316 205 line~;
#X obj 124 545 tgl 10 0 \$0-mono \$0-mono-r mono 15 4 0 10 #000000
#fcfcfc #000000 0 1;
#X obj 400 244 r \$0-mono;
#X obj 152 418 vu 10 120 empty empty -1 -8 0 12 #fcfcfc #000000 1 0
;
#N canvas 1026 52 338 692 vu 0;
#X obj 59 129 env~ 1024;
#X obj 161 111 abs~;
#X obj 161 213 snapshot~;
#X obj 161 256 rmstodb;
#X obj 161 21 inlet~;
#X obj 161 288 - 100;
#X obj 59 287 - 100;
#X obj 59 361 outlet;
#X obj 161 361 outlet;
#X text 344 307 Check the help file of env~ and slop~ for more details.
, f 31;
#X obj 239 89 expr 1000 / $f1;
#X floatatom 239 117 5 0 0 0 - - - 0;
#X obj 161 146 slop~ 0 0 0 0 1e+09;
#X text 359 89 convert to hz;
#X text 282 118 hz;
#X text 284 57 peak decay time in ms;
#X obj 59 171 t f b;
#X text 345 132 The env~ object is dedicated to RMS analysis. Its output
is in dB (0-100 range \, pd style) but needs to be converted to dBFS
(and we do that by simply subtracting 100)., f 31;
#X text 345 225 The slop~ object is used here for peak detection. We
need to convert the output to dB with rmstodb and also subtract by
100 to convert it to dBFS., f 31;
#X obj 239 31 loadbang;
#X msg 239 60 1000;
#X connect 0 0 16 0;
#X connect 1 0 12 0;
#X connect 2 0 3 0;
#X connect 3 0 5 0;
#X connect 4 0 0 0;
#X connect 4 0 1 0;
#X connect 5 0 8 0;
#X connect 6 0 7 0;
#X connect 10 0 11 0;
#X connect 11 0 12 3;
#X connect 12 0 2 0;
#X connect 16 0 6 0;
#X connect 16 1 2 0;
#X connect 19 0 20 0;
#X connect 20 0 10 0;
#X restore 156 354 pd vu;
#X obj 140 418 vu 10 120 empty empty -1 -8 0 12 #fcfcfc #000000 0 0
;
#N canvas 1026 52 338 692 vu 0;
#X obj 59 129 env~ 1024;
#X obj 161 111 abs~;
#X obj 161 213 snapshot~;
#X obj 161 256 rmstodb;
#X obj 161 21 inlet~;
#X obj 161 288 - 100;
#X obj 59 287 - 100;
#X obj 59 361 outlet;
#X obj 161 361 outlet;
#X text 344 307 Check the help file of env~ and slop~ for more details.
, f 31;
#X obj 239 89 expr 1000 / $f1;
#X floatatom 239 117 5 0 0 0 - - - 0;
#X obj 161 146 slop~ 0 0 0 0 1e+09;
#X text 359 89 convert to hz;
#X text 282 118 hz;
#X text 284 57 peak decay time in ms;
#X obj 59 171 t f b;
#X text 345 132 The env~ object is dedicated to RMS analysis. Its output
is in dB (0-100 range \, pd style) but needs to be converted to dBFS
(and we do that by simply subtracting 100)., f 31;
#X text 345 225 The slop~ object is used here for peak detection. We
need to convert the output to dB with rmstodb and also subtract by
100 to convert it to dBFS., f 31;
#X obj 239 31 loadbang;
#X msg 239 60 1000;
#X connect 0 0 16 0;
#X connect 1 0 12 0;
#X connect 2 0 3 0;
#X connect 3 0 5 0;
#X connect 4 0 0 0;
#X connect 4 0 1 0;
#X connect 5 0 8 0;
#X connect 6 0 7 0;
#X connect 10 0 11 0;
#X connect 11 0 12 3;
#X connect 12 0 2 0;
#X connect 16 0 6 0;
#X connect 16 1 2 0;
#X connect 19 0 20 0;
#X connect 20 0 10 0;
#X restore 107 354 pd vu;
#X obj 298 433 outlet~;
#X obj 400 433 outlet~;
#X obj 494 358 r \$0-state;
#X obj 494 383 outlet;
#X obj 454 57 inlet;
#N canvas 914 35 449 708 route-inlet-messages 0;
#X obj 12 12 inlet;
#X obj 53 246 r \$0-error;
#X obj 163 227 s \$0-error;
#N canvas 676 0 681 676 state 0;
#X obj 66 30 inlet;
#X obj 66 59 t b b;
#X msg 98 88 set;
#X obj 66 166 s \$0-state;
#N canvas 698 271 669 300 global 0;
#X obj 54 60 f;
#X obj 54 7 inlet;
#X obj 54 232 outlet;
#X obj 54 170 pack f f;
#X obj 72 36 r \$0-gain;
#X obj 107 83 r \$0-mono;
#X msg 54 199 add2 \$1 \, addcomma \, add2 mono \$2;
#X connect 0 0 3 0;
#X connect 1 0 0 0;
#X connect 3 0 6 0;
#X connect 4 0 0 1;
#X connect 5 0 3 1;
#X connect 6 0 2 0;
#X restore 66 127 pd global;
#X connect 0 0 1 0;
#X connect 1 0 4 0;
#X connect 1 1 2 0;
#X connect 2 0 3 0;
#X connect 4 0 3 0;
#X restore 112 198 pd state;
#X obj 12 100 s \$0-gain-r;
#X obj 62 124 s \$0-mono-r;
#X msg 338 61 0;
#X obj 303 32 loadbang;
#X obj 12 61 route float mono state;
#X obj 53 321 print master~;
#X msg 53 296 se recibió un mensaje desconocido;
#X msg 303 61 0;
#X msg 53 271 bang;
#X connect 0 0 8 0;
#X connect 1 0 12 0;
#X connect 6 0 5 0;
#X connect 7 0 11 0;
#X connect 7 0 6 0;
#X connect 8 0 4 0;
#X connect 8 1 5 0;
#X connect 8 2 3 0;
#X connect 8 3 2 0;
#X connect 10 0 9 0;
#X connect 11 0 4 0;
#X connect 12 0 10 0;
#X restore 454 82 pd route-inlet-messages;
#N canvas 130 130 450 300 mono 0;
#X obj 81 30 inlet~;
#X obj 151 30 inlet~;
#X obj 116 69 +~, f 9;
#X obj 81 239 outlet~;
#X obj 151 239 outlet~;
#X obj 211 30 inlet;
#X obj 116 190 *~;
#X obj 151 190 *~, f 7;
#X obj 197 69 == 0;
#X obj 81 190 *~;
#X obj 246 69 != 0;
#X obj 246 93 * 0.5;
#X msg 246 117 \$1 1;
#X obj 246 141 line~;
#X msg 197 93 \$1 1;
#X obj 197 117 line~;
#X connect 0 0 2 0;
#X connect 0 0 9 0;
#X connect 1 0 2 1;
#X connect 1 0 7 0;
#X connect 2 0 6 0;
#X connect 5 0 8 0;
#X connect 5 0 10 0;
#X connect 6 0 3 0;
#X connect 6 0 4 0;
#X connect 7 0 4 0;
#X connect 8 0 14 0;
#X connect 9 0 3 0;
#X connect 10 0 11 0;
#X connect 11 0 12 0;
#X connect 12 0 13 0;
#X connect 13 0 6 1;
#X connect 14 0 15 0;
#X connect 15 0 7 1;
#X connect 15 0 9 1;
#X restore 298 269 pd mono;
#X f 15;
#X obj 316 156 dbtorms;
#X obj 316 131 + 100;
#X msg 316 181 \$1 5;
#X obj 400 358 ./tanh~;
#X obj 298 358 ./tanh~;
#X obj 298 300 hip~ 15;
#X obj 400 301 hip~ 15;
#X obj 400 329 hip~ 15;
#X obj 298 329 hip~ 15;
#X connect 1 0 3 0;
#X connect 2 0 4 0;
#X connect 3 0 20 0;
#X connect 4 0 20 1;
#X connect 6 0 22 0;
#X connect 7 0 3 1;
#X connect 7 0 4 1;
#X connect 9 0 20 2;
#X connect 11 0 10 0;
#X connect 11 1 10 1;
#X connect 13 0 12 0;
#X connect 13 1 12 1;
#X connect 16 0 17 0;
#X connect 18 0 19 0;
#X connect 20 0 26 0;
#X connect 20 1 27 0;
#X connect 21 0 23 0;
#X connect 22 0 21 0;
#X connect 23 0 7 0;
#X connect 24 0 15 0;
#X connect 25 0 14 0;
#X connect 26 0 29 0;
#X connect 27 0 28 0;
#X connect 28 0 11 0;
#X connect 28 0 24 0;
#X connect 29 0 13 0;
#X connect 29 0 25 0;
#X coords 0 -1 1 1 81 160 2 118 404;
