#N canvas 686 35 677 708 12;
#X obj 12 39 cnv 15 129 39 empty empty empty 20 12 0 14 -203904 -66577
0;
#X obj 22 49 sig~;
#X text 9 11 INLET 0:;
#X obj 152 39 cnv 15 135 39 empty empty empty 20 12 0 14 -203904 -66577
0;
#X obj 162 49 sig~;
#X text 149 11 INLET 1:;
#X obj 348 39 cnv 15 134 39 empty empty empty 20 12 0 14 -204800 -66577
0;
#X obj 358 49 sig~;
#X obj 493 39 cnv 15 134 39 empty empty empty 20 12 0 14 -204800 -66577
0;
#X obj 503 49 sig~;
#X text 345 11 OUTLET 0:;
#X text 490 11 OUTLET 1:;
#X text 543 49 canal der.;
#X text 62 49 señal mid;
#X text 202 49 señal side;
#X text 399 48 canal izq.;
#X obj 12 629 loadbang;
#X msg 12 654 0;
#X obj 12 679 switch~;
#X connect 16 0 17 0;
#X connect 17 0 18 0;
