#N canvas 3 35 1360 708 12;
#X obj 57 134 inlet~;
#X obj 232 134 inlet~;
#X obj 438 202 loadbang;
#X obj 57 183 *~;
#X obj 232 183 *~;
#X obj 57 370 outlet~;
#X obj 233 370 outlet~;
#X obj 301 104 cnv 15 79 35 empty \$0-text empty 20 12 0 14 -262144
-66577 0;
#X obj 309 109 hsl 64 10 -1 1 0 0 \$0-pan \$0-pan-r empty -2 -8 0 10
-1 -262144 -1 3150 1;
#X obj 316 341 r \$0-state;
#X obj 316 370 outlet;
#N canvas -8 -8 1366 685 help 0;
#X obj 38 150 cnv 15 511 90 empty empty empty 20 12 0 14 -203904 -66577
0;
#X text 35 126 INLET 2:;
#X obj 48 160 float;
#X msg 48 207 bypass \$1;
#X text 122 200 ignora o no los efectos del objeto sobre la se침al
(distinto de cero y 0 respectivamente);
#X obj 38 71 cnv 15 134 39 empty empty empty 20 12 0 14 -203904 -66577
0;
#X obj 48 81 sig~;
#X text 35 47 INLET 0:;
#X obj 207 71 cnv 15 134 39 empty empty empty 20 12 0 14 -203904 -66577
0;
#X obj 217 81 sig~;
#X text 204 47 INLET 1:;
#X obj 610 71 cnv 15 134 39 empty empty empty 20 12 0 14 -204800 -66577
0;
#X obj 620 81 sig~;
#X obj 779 71 cnv 15 134 39 empty empty empty 20 12 0 14 -204800 -66577
0;
#X obj 789 81 sig~;
#X text 607 47 OUTLET 0:;
#X text 776 47 OUTLET 1:;
#X text 88 81 canal izq.;
#X text 257 81 canal der.;
#X text 661 80 canal izq.;
#X text 829 81 canal der.;
#X text 95 160 ganancia de los canales(-1-1 \, donde -1 devuelve s칩lo
el canal izq. 0 devuelve ambos canales y 1 s칩lo el canal der.);
#X obj 39 261 cnv 15 461 69 empty empty empty 20 12 0 14 -203904 -66577
0;
#X obj 49 271 cnv 15 441 49 empty empty empty 20 12 0 14 -262144 -66577
0;
#X text 56 280 adicionalmente se puede dar el valor de paneo como argumento
inicial del objeto \, por ejemplo [pan~ -0.5];
#X connect 2 0 3 0;
#X restore 12 14 pd help;
#X obj 438 250 s \$0-pan-r;
#X obj 438 226 f \$1;
#X obj 438 134 inlet;
#N canvas 686 35 677 708 route-inlet-messages 0;
#X obj 12 12 inlet;
#X obj 13 249 r \$0-error;
#X obj 13 273 bng 15 250 50 0 empty empty empty 17 7 0 10 -262144 -1
-1;
#X obj 135 167 s \$0-error;
#X obj 215 32 loadbang;
#X obj 73 114 != 0;
#X msg 13 293 se recibi칩 un mensaje desconocido;
#X obj 12 61 route float bypass;
#X msg 215 56 0;
#X obj 73 138 s \$0-byp-r;
#X obj 12 90 s \$0-pan-r;
#X obj 13 322 print pan~;
#X connect 0 0 7 0;
#X connect 1 0 2 0;
#X connect 2 0 6 0;
#X connect 4 0 8 0;
#X connect 5 0 9 0;
#X connect 6 0 11 0;
#X connect 7 0 10 0;
#X connect 7 1 5 0;
#X connect 7 2 3 0;
#X connect 8 0 5 0;
#X restore 438 163 pd route-inlet-messages;
#X obj 306 124 tgl 10 0 \$0-byp \$0-byp-r bypass 15 5 0 10 -1 -262144
-1 0 1;
#X obj 75 52 r \$0-byp;
#X msg 75 81 \$1 1;
#X obj 75 105 line~;
#X obj 191 236 == 0;
#X msg 191 260 \$1 1;
#X obj 191 284 line~;
#X obj 191 212 r \$0-byp;
#N canvas 369 165 450 465 pan 0;
#X obj 34 35 inlet~;
#X obj 131 35 inlet~;
#X obj 34 362 *~;
#X obj 131 362 *~;
#X obj 13 131 sel -1;
#X obj 13 93 expr if($f1>0 \, $f1 \, -1) \; if($f1<=0 \, 1 \, -1);
#X obj 178 131 sel -1;
#X obj 110 227 sel -1;
#X obj 275 227 sel -1;
#X obj 110 189 expr if($f1<0 \, $f1 \, -1) \; if($f1>=0 \, 1 \, -1)
;
#X obj 110 64 r \$0-pan;
#X obj 34 391 outlet~;
#X obj 131 391 outlet~;
#X msg 52 309 \$1 1;
#X obj 52 333 line~;
#X obj 52 285 change;
#X msg 149 309 \$1 1;
#X obj 149 333 line~;
#X obj 149 285 change;
#X obj 52 160 expr 1-$f1;
#X obj 149 256 expr 1-abs($f1);
#X obj 342 167 r \$0-byp;
#X obj 342 326 switch~;
#X obj 342 239 t b f;
#X obj 342 287 f, f 5;
#X obj 342 263 delay 2;
#X msg 342 215 0;
#X obj 342 191 sel 1 0, f 13;
#X msg 386 287 1;
#X connect 0 0 2 0;
#X connect 1 0 3 0;
#X connect 2 0 11 0;
#X connect 3 0 12 0;
#X connect 4 1 19 0;
#X connect 5 0 4 0;
#X connect 5 1 6 0;
#X connect 6 1 15 0;
#X connect 7 1 20 0;
#X connect 8 1 18 0;
#X connect 9 0 7 0;
#X connect 9 1 8 0;
#X connect 10 0 5 0;
#X connect 10 0 9 0;
#X connect 13 0 14 0;
#X connect 14 0 2 1;
#X connect 15 0 13 0;
#X connect 16 0 17 0;
#X connect 17 0 3 1;
#X connect 18 0 16 0;
#X connect 19 0 15 0;
#X connect 20 0 18 0;
#X connect 21 0 27 0;
#X connect 23 0 25 0;
#X connect 23 1 24 1;
#X connect 24 0 22 0;
#X connect 25 0 24 0;
#X connect 26 0 23 0;
#X connect 27 0 26 0;
#X connect 27 1 28 0;
#X connect 28 0 22 0;
#X restore 127 183 pd pan;
#X f 7;
#X obj 127 321 *~;
#X obj 173 321 *~;
#X connect 0 0 3 0;
#X connect 0 0 24 0;
#X connect 1 0 4 0;
#X connect 1 0 24 1;
#X connect 2 0 13 0;
#X connect 3 0 5 0;
#X connect 4 0 6 0;
#X connect 9 0 10 0;
#X connect 13 0 12 0;
#X connect 14 0 15 0;
#X connect 17 0 18 0;
#X connect 18 0 19 0;
#X connect 19 0 3 1;
#X connect 19 0 4 1;
#X connect 20 0 21 0;
#X connect 21 0 22 0;
#X connect 22 0 25 1;
#X connect 22 0 26 1;
#X connect 23 0 20 0;
#X connect 24 0 25 0;
#X connect 24 1 26 0;
#X connect 25 0 5 0;
#X connect 26 0 6 0;
#X coords 0 -1 1 1 81 43 2 300 100;
