#N canvas 686 35 677 708 12;
#X obj 180 124 random 100;
#X obj 344 44 inlet;
#N canvas 914 35 449 708 route-inlet-messages 0;
#X obj 37 37 inlet;
#X obj 37 66 route bang float state;
#X obj 37 95 s \$0-randomize-r;
#X obj 87 177 s \$0-chance-r;
#X obj 87 124 expr if($f1>100 \, 100 \, $f1);
#X obj 87 148 expr if($f1<0 \, 0 \, $f1);
#X msg 188 272 se recibió un mensaje desconocido;
#X obj 188 301 print probs;
#X connect 0 0 1 0;
#X connect 1 0 2 0;
#X connect 1 1 4 0;
#X connect 1 3 6 0;
#X connect 4 0 5 0;
#X connect 5 0 3 0;
#X connect 6 0 7 0;
#X restore 344 73 pd route-inlet-messages;
#X obj 180 100 r \$0-randomize;
#X obj 180 172 <;
#X obj 198 148 r \$0-chance;
#X obj 180 196 sel 1;
#X obj 180 220 outlet;
#X obj 101 104 cnv 15 61 25 empty \$0-text empty 20 12 0 14 -262144
-1 0;
#X obj 106 111 bng 10 250 50 0 \$0-randomize \$0-randomize-r empty
17 7 0 10 -262144 -1 -1;
#X obj 121 109 nbx 3 15 -1e+37 1e+37 0 0 \$0-chance \$0-chance-r empty
0 -8 0 10 -1 -262144 -1 0 256;
#X obj 236 196 r \$0-state;
#X obj 236 220 outlet;
#X obj 367 152 loadbang;
#X obj 367 176 f \$1;
#X obj 367 200 s \$0-chance-r;
#X connect 0 0 4 0;
#X connect 1 0 2 0;
#X connect 3 0 0 0;
#X connect 4 0 6 0;
#X connect 5 0 4 1;
#X connect 6 0 7 0;
#X connect 11 0 12 0;
#X connect 13 0 14 0;
#X connect 14 0 15 0;
#X coords 0 -1 1 1 63 33 2 100 100;
