#N canvas 686 35 677 708 12;
#X obj 12 251 cnv 15 484 51 empty empty empty 20 12 0 14 -203904 -66577
0;
#X text 9 223 INLET 2:;
#X obj 22 267 float;
#X obj 12 39 cnv 15 169 39 empty empty empty 20 12 0 14 -203904 -66577
0;
#X obj 22 49 sig~;
#X text 9 11 INLET 0:;
#X obj 12 126 cnv 15 469 81 empty empty empty 20 12 0 14 -203904 -66577
0;
#X obj 22 142 sig~;
#X text 9 98 INLET 1:;
#X obj 556 39 cnv 15 135 39 empty empty empty 20 12 0 14 -204800 -66577
0;
#X obj 566 49 sig~;
#X text 553 11 OUTLET 0:;
#X text 607 48 canal mono;
#X text 62 49 frecuencia (hz);
#X obj 12 629 loadbang;
#X msg 12 654 0;
#X obj 12 679 switch~;
#X text 61 135 ancho del pulso (0 a 1 correspondiendo a un ciclo \,
números mayores a 1 siendo redundantes y números negativos dando
resultados equivocados pero interesantes dado el uso del objeto [wrap~])
;
#X text 68 260 fase (0 a 1 correspondiendo a un ciclo \, números negativos
o mayores a 1 siendo redundantes);
#X connect 14 0 15 0;
#X connect 15 0 16 0;
