#N canvas 685 52 679 692 12;
#X obj 109 24 inlet~;
#X obj 109 85 phasor~, f 17;
#X obj 225 24 inlet;
#X obj 109 170 -~;
#X obj 127 115 +~, f 6;
#X obj 127 140 wrap~;
#X obj 109 195 +~, f 4;
#X obj 166 25 inlet~;
#X obj 109 220 *~ 2;
#X obj 109 245 -~ 1;
#X obj 109 275 outlet~;
#X obj 166 55 wrap~;
#X connect 0 0 1 0;
#X connect 1 0 3 0;
#X connect 1 0 4 0;
#X connect 2 0 1 1;
#X connect 3 0 6 0;
#X connect 4 0 5 0;
#X connect 5 0 3 1;
#X connect 6 0 8 0;
#X connect 7 0 11 0;
#X connect 8 0 9 0;
#X connect 9 0 10 0;
#X connect 11 0 4 1;
#X connect 11 0 6 1;
