#N canvas 713 167 1366 685 12;
#X obj 12 12 inlet;
#X obj 94 12 inlet;
#X obj 171 12 inlet;
#X obj 248 12 inlet;
#X obj 325 12 inlet;
#X obj 12 496 outlet;
#X obj 104 41 loadbang;
#X obj 104 70 f \$1;
#X obj 181 41 loadbang;
#X obj 258 41 loadbang;
#X obj 335 41 loadbang;
#X obj 181 70 f \$2;
#X obj 258 70 f \$3;
#X obj 335 70 f \$4;
#X obj 402 12 inlet;
#X obj 412 41 loadbang;
#X obj 412 70 f \$5;
#X obj 94 99 s \$0-a;
#X obj 12 225 -;
#X obj 30 196 r \$0-a;
#X obj 12 254 /, f 11;
#X obj 86 225 -, f 5;
#X obj 86 138 r \$0-b;
#X obj 171 99 s \$0-b;
#X obj 96 167 r \$0-a;
#X obj 96 196 t b f;
#X obj 12 428 *;
#X obj 12 457 +, f 5;
#X obj 248 99 s \$0-c;
#X obj 325 99 s \$0-d;
#X obj 402 128 s \$0-e;
#X obj 12 283 pow, f 13;
#X obj 100 254 r \$0-e;
#X obj 30 399 -, f 5;
#X obj 40 370 t b f;
#X obj 30 312 r \$0-d;
#X obj 40 341 r \$0-c;
#X obj 44 428 r \$0-c;
#X obj 402 99 clip 1 1e+37;
#X connect 0 0 18 0;
#X connect 1 0 17 0;
#X connect 2 0 23 0;
#X connect 3 0 28 0;
#X connect 4 0 29 0;
#X connect 6 0 7 0;
#X connect 7 0 17 0;
#X connect 8 0 11 0;
#X connect 9 0 12 0;
#X connect 10 0 13 0;
#X connect 11 0 23 0;
#X connect 12 0 28 0;
#X connect 13 0 29 0;
#X connect 14 0 38 0;
#X connect 15 0 16 0;
#X connect 16 0 38 0;
#X connect 18 0 20 0;
#X connect 19 0 18 1;
#X connect 20 0 31 0;
#X connect 21 0 20 1;
#X connect 22 0 21 0;
#X connect 24 0 25 0;
#X connect 25 0 21 0;
#X connect 25 1 21 1;
#X connect 26 0 27 0;
#X connect 27 0 5 0;
#X connect 31 0 26 0;
#X connect 32 0 31 1;
#X connect 33 0 26 1;
#X connect 34 0 33 0;
#X connect 34 1 33 1;
#X connect 35 0 33 0;
#X connect 36 0 34 0;
#X connect 37 0 27 1;
#X connect 38 0 30 0;
