#N canvas -8 -8 1366 685 12;
#X obj 440 255 expr abs(round($f1));
#X obj 440 400 % 7;
#X obj 472 400 * 12;
#X obj 440 284 t f f;
#X obj 440 468 +;
#X obj 440 497 +;
#N canvas 0 0 1365 704 scales 0;
#N canvas 0 0 450 300 (subpatch) 0;
#X array \$0-minor 7 float 3;
#A 0 0 2 3 5 7 8 10;
#X coords 0 12 7 0 100 50 1;
#X restore 121 110 graph;
#N canvas 0 0 450 300 (subpatch) 0;
#X array \$0-major 7 float 3;
#A 0 0 2 4 5 7 9 11;
#X coords 0 12 7 0 100 50 1;
#X restore 11 110 graph;
#N canvas 0 0 450 300 (subpatch) 0;
#X array \$0-hirajoshi 5 float 3;
#A 0 0 1 5 7 8;
#X coords 0 12 5 0 100 50 1;
#X restore 231 170 graph;
#N canvas 0 0 450 300 (subpatch) 0;
#X array \$0-major_pen 5 float 3;
#A 0 0 2 4 7 9;
#X coords 0 12 5 0 100 50 1;
#X restore 11 170 graph;
#N canvas 0 0 450 300 (subpatch) 0;
#X array \$0-minor_pen 5 float 3;
#A 0 0 3 5 7 10;
#X coords 0 12 5 0 100 50 1;
#X restore 121 170 graph;
#N canvas 0 0 450 300 (subpatch) 0;
#X array \$0-chromatic 12 float 3;
#A 0 0 1 2 3 4 5 6 7 8 9 10 11;
#X coords 0 12 12 0 100 50 1;
#X restore 11 50 graph;
#X obj 720 175 t a b;
#X msg 752 204 7;
#X msg 920 204 5;
#X obj 888 175 t a b;
#X obj 619 175 t a b;
#X msg 651 204 12;
#X msg 619 146 chromatic;
#X obj 619 273 symbol;
#X msg 720 146 major;
#X msg 765 146 minor;
#X msg 838 146 major_pen;
#X msg 911 146 minor_pen;
#X msg 984 146 hirajoshi;
#X msg 493 312 label \$1;
#X obj 672 302 f \$0;
#X obj 672 273 loadbang;
#X msg 619 360 set \$2-\$1;
#X obj 619 331 pack s f;
#X obj 619 389 s \$0-scale-tab;
#X obj 752 253 s \$0-scale-length;
#X obj 493 340 s \$0-scale-r;
#X obj 619 109 sel 0 1 2 3 4 5 6, f 63;
#X msg 1061 146 custom;
#X obj 11 246 table \$0-custom;
#X obj 619 86 r \$0-scale;
#X connect 6 0 13 0;
#X connect 6 1 7 0;
#X connect 7 0 25 0;
#X connect 8 0 25 0;
#X connect 9 0 13 0;
#X connect 9 1 8 0;
#X connect 10 0 13 0;
#X connect 10 1 11 0;
#X connect 11 0 25 0;
#X connect 12 0 10 0;
#X connect 13 0 19 0;
#X connect 13 0 23 0;
#X connect 14 0 6 0;
#X connect 15 0 6 0;
#X connect 16 0 9 0;
#X connect 17 0 9 0;
#X connect 18 0 9 0;
#X connect 19 0 26 0;
#X connect 20 0 23 1;
#X connect 21 0 20 0;
#X connect 22 0 24 0;
#X connect 23 0 22 0;
#X connect 27 0 12 0;
#X connect 27 1 14 0;
#X connect 27 2 15 0;
#X connect 27 3 16 0;
#X connect 27 4 17 0;
#X connect 27 5 18 0;
#X connect 27 6 28 0;
#X connect 28 0 13 0;
#X connect 30 0 27 0;
#X restore 112 558 pd scales;
#X obj 472 342 pack f f;
#X obj 472 371 expr floor($f1/$f2);
#X obj 440 313 +;
#X obj 472 313 +;
#X obj 440 197 tabread \$0-tab;
#X obj 440 226 *;
#X obj 332 167 s \$0-tab;
#X msg 332 138 resize \$1;
#X obj 440 139 inlet;
#N canvas 8 0 1333 688 save-load 0;
#X obj 422 199 soundfiler;
#X obj 422 103 openpanel;
#X msg 335 142 symbol \$1;
#X obj 305 103 symbol;
#X obj 224 55 r \$0-seq-path-r;
#X obj 305 166 s \$0-seq-path;
#X obj 496 127 f \$0;
#X obj 496 103 loadbang;
#X obj 422 151 list append;
#X obj 422 79 r \$0-load-seq;
#X obj 107 252 writesf~;
#X msg 139 223 start;
#X msg 209 223 stop;
#X obj 107 151 t b b;
#X obj 107 79 savepanel;
#X obj 107 103 t b a;
#X msg 44 223 open \$1;
#X obj 107 127 delay 5;
#X obj 107 55 r \$0-save-seq;
#X obj 209 199 delay 1;
#X obj 107 175 tabplay~ \$0-tab;
#X msg 422 175 read -resize \$1 \$2-tab;
#X obj 422 223 s \$0-length;
#X obj 224 79 route symbol;
#X connect 0 0 22 0;
#X connect 1 0 2 0;
#X connect 1 0 8 0;
#X connect 2 0 5 0;
#X connect 3 0 5 0;
#X connect 3 0 8 0;
#X connect 4 0 23 0;
#X connect 6 0 8 1;
#X connect 7 0 6 0;
#X connect 8 0 21 0;
#X connect 9 0 1 0;
#X connect 11 0 10 0;
#X connect 12 0 10 0;
#X connect 13 0 20 0;
#X connect 13 1 11 0;
#X connect 14 0 15 0;
#X connect 15 0 17 0;
#X connect 15 1 16 0;
#X connect 15 1 2 0;
#X connect 16 0 10 0;
#X connect 17 0 13 0;
#X connect 18 0 14 0;
#X connect 19 0 12 0;
#X connect 20 0 10 0;
#X connect 20 1 19 0;
#X connect 21 0 0 0;
#X connect 23 1 3 0;
#X restore 112 534 pd save-load;
#X obj 440 536 outlet;
#N canvas 794 248 450 300 randomize 0;
#X obj 22 291 tabwrite \$0-tab;
#X obj 22 204 t b f;
#X obj 22 233 random 1000;
#X obj 22 262 * 0.001;
#X obj 22 109 until;
#X obj 22 156 f;
#X obj 77 156 + 1;
#X obj 22 180 t f f;
#X obj 22 37 t b b;
#X msg 40 132 0;
#X obj 40 61 r \$0-length;
#X obj 22 13 r \$0-randomize;
#X obj 22 85 f;
#X connect 1 0 2 0;
#X connect 1 1 0 1;
#X connect 2 0 3 0;
#X connect 3 0 0 0;
#X connect 4 0 5 0;
#X connect 5 0 7 0;
#X connect 6 0 5 1;
#X connect 7 0 1 0;
#X connect 7 1 6 0;
#X connect 8 0 12 0;
#X connect 8 1 9 0;
#X connect 9 0 5 1;
#X connect 10 0 12 1;
#X connect 11 0 8 0;
#X connect 12 0 4 0;
#X restore 112 510 pd randomize;
#X obj 440 439 tabread;
#X obj 332 313 s \$0-pointer;
#X msg 332 284 set \$1;
#X obj 332 226 expr $f1/$f2;
#X obj 332 255 * 1000;
#X obj 31 154 cnv 15 177 193 empty \$0-text empty 20 0 0 14 #fcfcfc
#b0b0b0 0;
#X obj 164 159 bng 10 250 50 0 \$0-save-seq empty save 15 4 0 10 #ffffff
#000000 #000000;
#X obj 164 174 bng 10 250 50 0 \$0-load-seq empty load 15 4 0 10 #ffffff
#000000 #000000;
#X obj 126 189 nbx 3 15 0 999 0 0 \$0-length \$0-length-r length 41
7 0 10 #000000 #fcfcfc #000000 0 256;
#X obj 36 189 nbx 3 15 -1e+37 1e+37 0 0 \$0-transpose \$0-transpose-r
transp. 41 7 0 10 #000000 #fcfcfc #000000 0 256;
#X obj 126 212 nbx 3 15 0 999 0 0 \$0-height \$0-height-r height 41
7 0 10 #000000 #fcfcfc #000000 0 256;
#X obj 36 159 hradio 10 1 0 7 \$0-scale \$0-scale-r minor_pen 1 17
0 10 #ffffff #000000 #000000 0;
#X obj 37 332 hsl 166 10 0 999 0 0 empty \$0-pointer empty -2 -8 0
10 #000000 #fcfcfc #b0b0b0 0 1;
#N canvas 0 0 450 300 (subpatch) 0;
#X array \$0-tab 9 float 2;
#X coords 0 1 9 0 167 100 1 0 0;
#X restore 36 232 graph;
#X obj 102 174 bng 10 250 50 0 \$0-randomize \$0-randomize-r random
15 4 0 10 #ffffff #000000 #000000;
#X obj 857 80 inlet;
#N canvas 323 46 681 676 route-inlet-messages 0;
#X obj 37 37 inlet;
#N canvas 676 0 681 676 state 0;
#X obj 66 30 inlet;
#N canvas 657 93 669 300 global 0;
#X obj 54 60 f;
#X obj 54 7 inlet;
#X obj 54 238 outlet;
#X obj 54 152 pack f f f f f s, f 23;
#X obj 212 95 r \$0-seq-path;
#X obj 148 123 r \$0-length;
#X msg 54 181 add2 load \$6 \, addcomma \, add2 scale \$1 \, addcomma
\, add2 transp \$2 \, addcomma \, add2 offset \$3 \, addcomma \, add2
length \$4 \, addcomma \, add2 height \$5;
#X obj 72 36 r \$0-scale;
#X obj 85 65 r \$0-transpose;
#X obj 117 94 r \$0-offset;
#X obj 211 65 r \$0-height;
#X connect 0 0 3 0;
#X connect 1 0 0 0;
#X connect 3 0 6 0;
#X connect 4 0 3 5;
#X connect 5 0 3 3;
#X connect 6 0 2 0;
#X connect 7 0 0 1;
#X connect 8 0 3 1;
#X connect 9 0 3 2;
#X connect 10 0 3 4;
#X restore 66 117 pd global;
#X obj 66 59 t b b;
#X msg 98 88 set;
#X obj 66 146 s \$0-state;
#X connect 0 0 2 0;
#X connect 1 0 4 0;
#X connect 2 0 1 0;
#X connect 2 1 3 0;
#X connect 3 0 4 0;
#X restore 432 348 pd state;
#X obj 333 192 unpack f f;
#X obj 333 279 tabwrite \$0-tab;
#X obj 333 250 f, f 10;
#X obj 333 221 t b f;
#X obj 37 105 s \$0-scale-r;
#X obj 86 134 s \$0-transpose-r;
#X obj 135 163 s \$0-offset-r;
#X obj 185 105 s \$0-length-r;
#X obj 234 134 s \$0-height-r;
#X obj 284 163 s \$0-randomize-r;
#X obj 383 105 s \$0-seq-path-r;
#X msg 564 66 0;
#X msg 599 66 8;
#X msg 634 66 127;
#X obj 37 66 route scale transp offset length height random set load
state, f 64;
#X obj 564 42 loadbang;
#X obj 21 532 r \$0-error;
#X msg 21 556 se recibió un mensaje desconocido;
#X obj 21 580 print seq1;
#X obj 482 377 s \$0-error;
#X connect 0 0 16 0;
#X connect 2 0 5 0;
#X connect 2 1 4 1;
#X connect 4 0 3 0;
#X connect 5 0 4 0;
#X connect 5 1 3 1;
#X connect 13 0 6 0;
#X connect 13 0 7 0;
#X connect 13 0 8 0;
#X connect 14 0 9 0;
#X connect 15 0 10 0;
#X connect 16 0 6 0;
#X connect 16 1 7 0;
#X connect 16 2 8 0;
#X connect 16 3 9 0;
#X connect 16 4 10 0;
#X connect 16 5 11 0;
#X connect 16 6 2 0;
#X connect 16 7 12 0;
#X connect 16 8 1 0;
#X connect 16 9 21 0;
#X connect 17 0 13 0;
#X connect 17 0 14 0;
#X connect 17 0 15 0;
#X connect 17 0 11 0;
#X connect 18 0 19 0;
#X connect 19 0 20 0;
#X restore 857 109 pd route-inlet-messages;
#X obj 525 313 r \$0-scale-length;
#X obj 516 400 r \$0-scale-tab;
#X obj 668 507 r \$0-state;
#X obj 668 536 outlet;
#X obj 413 109 r \$0-length;
#X obj 36 216 cnv 15 45 15 empty \$0-text empty 20 0 0 14 #fcfcfc #b0b0b0
0;
#X obj 36 212 nbx 3 15 -1e+37 1e+37 0 0 \$0-offset \$0-offset-r offset
41 7 0 10 #000000 #ffffff #000000 0 256;
#X obj 116 159 bng 10 250 50 0 \$0-load-scale empty load 15 4 0 10
#ffffff #000000 #000000;
#X obj 440 168 route float;
#X obj 643 187 s \$0-error;
#X text 958 525 secuenciador control-rate con: \; - 6 escalas integradas
\; - desplazamiento en la escala (o transposición tonal) \; - desplazamiento
absoluto (o transposición real) \; - largo de secuencia variable \;
- \; dylan martin;
#X obj 552 197 r \$0-height;
#X obj 490 284 r \$0-offset;
#X obj 475 468 r \$0-transpose;
#X connect 0 0 3 0;
#X connect 1 0 19 0;
#X connect 2 0 4 1;
#X connect 3 0 9 0;
#X connect 3 1 10 0;
#X connect 4 0 5 0;
#X connect 5 0 17 0;
#X connect 7 0 8 0;
#X connect 8 0 2 0;
#X connect 9 0 1 0;
#X connect 10 0 7 0;
#X connect 11 0 12 0;
#X connect 12 0 0 0;
#X connect 14 0 13 0;
#X connect 15 0 44 0;
#X connect 19 0 4 0;
#X connect 21 0 20 0;
#X connect 22 0 23 0;
#X connect 23 0 21 0;
#X connect 34 0 35 0;
#X connect 36 0 1 1;
#X connect 36 0 7 1;
#X connect 37 0 19 0;
#X connect 38 0 39 0;
#X connect 40 0 22 1;
#X connect 40 0 14 0;
#X connect 44 0 11 0;
#X connect 44 0 22 0;
#X connect 44 1 45 0;
#X connect 47 0 12 1;
#X connect 48 0 9 1;
#X connect 48 0 10 1;
#X connect 49 0 5 1;
#X coords 0 -1 1 1 179 201 2 30 150;
