#N canvas 913 52 451 692 12;
#X obj 17 61 abs~;
#X obj 17 101 -~;
#X obj 80 101 +~;
#X obj 80 126 *~ 0.5;
#X obj 17 126 *~ -0.5;
#X obj 17 21 inlet~;
#X obj 17 151 outlet~;
#X obj 80 151 outlet~;
#X connect 0 0 1 0;
#X connect 0 0 2 0;
#X connect 1 0 4 0;
#X connect 2 0 3 0;
#X connect 3 0 7 0;
#X connect 4 0 6 0;
#X connect 5 0 0 0;
#X connect 5 0 1 1;
#X connect 5 0 2 1;
