#N canvas 686 35 677 708 12;
#X obj 12 125 cnv 15 386 40 empty empty empty 20 12 0 14 -203904 -66577
0;
#X obj 12 38 cnv 15 134 39 empty empty empty 20 12 0 14 -203904 -66577
0;
#X obj 22 48 sig~;
#X text 9 11 INLET 0:;
#X obj 157 38 cnv 15 134 39 empty empty empty 20 12 0 14 -203904 -66577
0;
#X obj 167 48 sig~;
#X text 154 11 INLET 1:;
#X text 9 97 INLET 2:;
#X obj 444 38 cnv 15 134 39 empty empty empty 20 12 0 14 -204800 -66577
0;
#X obj 454 48 sig~;
#X obj 589 38 cnv 15 134 39 empty empty empty 20 12 0 14 -204800 -66577
0;
#X obj 599 48 sig~;
#X text 441 11 OUTLET 0:;
#X text 586 11 OUTLET 1:;
#X text 62 48 canal izq.;
#X text 207 48 canal der.;
#X text 495 47 canal izq.;
#X text 639 48 canal der.;
#X obj 22 135 sig~;
#X obj 12 629 loadbang;
#X msg 12 654 0;
#X obj 12 679 switch~;
#X text 61 135 nivel de reducción de la imagen stereo (0 a 1);
#X connect 19 0 20 0;
#X connect 20 0 21 0;
