#N canvas 914 35 449 708 12;
#X obj 101 104 cnv 15 82 32 empty \$0-text empty 20 12 0 14 -262144
-1 0;
#X obj 109 121 hsl 67 10 0 1 0 0 empty \$0-vis stereo->mono -2 -8 0
10 -1 -262144 -1 6600 0;
#X obj 461 161 snapshot~;
#X obj 471 136 metro 25;
#X obj 461 186 s \$0-vis;
#X obj 471 111 loadbang;
#X obj 236 111 inlet~;
#X obj 348 111 inlet~;
#X obj 292 150 +~;
#X obj 236 290 outlet~;
#X obj 348 290 outlet~;
#X obj 292 241 *~;
#X obj 348 241 *~;
#X obj 236 241 *~;
#X obj 292 174 *~ 0.5;
#X obj 405 111 inlet~;
#X obj 366 151 loadbang;
#X msg 366 176 1;
#X obj 366 201 -~, f 6;
#X connect 2 0 4 0;
#X connect 3 0 2 0;
#X connect 5 0 3 0;
#X connect 6 0 8 0;
#X connect 6 0 13 0;
#X connect 7 0 8 1;
#X connect 7 0 12 0;
#X connect 8 0 14 0;
#X connect 11 0 9 0;
#X connect 11 0 10 0;
#X connect 12 0 10 0;
#X connect 13 0 9 0;
#X connect 14 0 11 0;
#X connect 15 0 2 0;
#X connect 15 0 18 1;
#X connect 15 0 11 1;
#X connect 16 0 17 0;
#X connect 17 0 18 0;
#X connect 18 0 12 1;
#X connect 18 0 13 1;
#X coords 0 -1 1 1 84 40 2 100 100;
