#N canvas 913 52 451 692 12;
#X obj 100 189 *~ 2;
#X obj 75 214 pow~;
#X msg 75 164 2.71828;
#X obj 114 244 +~ 1;
#X obj 75 244 -~ 1;
#X obj 75 269 /~, f 6;
#X obj 75 139 loadbang;
#X obj 100 114 inlet~;
#X obj 75 294 outlet~;
#X connect 0 0 1 1;
#X connect 1 0 4 0;
#X connect 1 0 3 0;
#X connect 2 0 1 0;
#X connect 3 0 5 1;
#X connect 4 0 5 0;
#X connect 5 0 8 0;
#X connect 6 0 2 0;
#X connect 7 0 0 0;
