#N canvas 675 -8 1366 685 12;
#X obj 238 345 *~;
#X obj 483 525 dbtorms;
#X obj 483 501 + 100;
#X msg 483 549 \$1 1;
#X obj 483 573 line~;
#X obj 238 622 *~;
#X obj 483 477 r \$0-out;
#X obj 296 52 r \$0-byp;
#X msg 296 81 \$1 1;
#X obj 296 105 line~;
#X obj 217 134 *~;
#X obj 328 134 *~;
#X obj 101 104 cnv 15 88 114 empty empty empty 20 12 0 14 #ffffff #404040
0;
#X obj 106 151 nbx 3 15 0 24 0 0 \$0-drive \$0-drive-r drive 0 -8 0
10 #000000 #ffffff #202020 0 256;
#X obj 146 156 cnv 13 10 6 empty \$0-text dB 1 2 0 10 #ffffff #000000
0;
#X obj 106 183 nbx 3 15 -100 1e+37 0 0 \$0-out \$0-out-r out 0 -8 0
10 #000000 #ffffff #202020 0 256;
#X obj 146 188 cnv 13 10 6 empty \$0-text dB 1 2 0 10 #ffffff #000000
0;
#X obj 106 203 tgl 10 0 \$0-byp \$0-byp-r bypass 15 5 0 10 #000000
#fcfcfc #000000 0 1;
#N canvas 436 54 886 685 gloubi 0;
#X obj 49 154 *~ 0.686306;
#X obj 85 310 +~ 1;
#X obj 85 214 abs~;
#X obj 85 238 sqrt~;
#X obj 85 286 exp~;
#X obj 85 262 *~ -0.75;
#X obj 49 336 exp~;
#X obj 49 465 -~;
#X obj 102 339 *~ -1;
#X obj 67 402 exp~;
#X obj 67 378 *~;
#X obj 49 494 /~;
#X obj 84 465 +~;
#X obj 102 436 exp~;
#X obj 49 125 inlet~;
#X obj 49 572 outlet~;
#X obj 209 154 *~ 0.686306;
#X obj 245 310 +~ 1;
#X obj 245 214 abs~;
#X obj 245 238 sqrt~;
#X obj 245 286 exp~;
#X obj 245 262 *~ -0.75;
#X obj 209 336 exp~;
#X obj 209 465 -~;
#X obj 262 339 *~ -1;
#X obj 227 402 exp~;
#X obj 227 378 *~;
#X obj 209 494 /~;
#X obj 244 465 +~;
#X obj 262 436 exp~;
#X obj 209 125 inlet~;
#X obj 209 572 outlet~;
#X obj 398 126 r \$0-mode;
#X obj 398 174 sel 1 0, f 13;
#X obj 398 300 line~;
#X obj 49 533 *~;
#X obj 209 533 *~;
#X msg 398 276 \$1 50;
#X msg 398 213 1;
#X obj 477 276 switch~;
#X obj 398 237 t f f;
#X msg 442 213 0;
#X obj 477 213 delay 50;
#X msg 477 237 0;
#X obj 398 150 == 1;
#X connect 0 0 2 0;
#X connect 0 0 6 0;
#X connect 0 0 8 0;
#X connect 1 0 10 1;
#X connect 2 0 3 0;
#X connect 3 0 5 0;
#X connect 4 0 1 0;
#X connect 5 0 4 0;
#X connect 6 0 7 0;
#X connect 6 0 12 0;
#X connect 7 0 11 0;
#X connect 8 0 10 0;
#X connect 8 0 13 0;
#X connect 9 0 7 1;
#X connect 10 0 9 0;
#X connect 11 0 35 0;
#X connect 12 0 11 1;
#X connect 13 0 12 1;
#X connect 14 0 0 0;
#X connect 16 0 18 0;
#X connect 16 0 22 0;
#X connect 16 0 24 0;
#X connect 17 0 26 1;
#X connect 18 0 19 0;
#X connect 19 0 21 0;
#X connect 20 0 17 0;
#X connect 21 0 20 0;
#X connect 22 0 23 0;
#X connect 22 0 28 0;
#X connect 23 0 27 0;
#X connect 24 0 26 0;
#X connect 24 0 29 0;
#X connect 25 0 23 1;
#X connect 26 0 25 0;
#X connect 27 0 36 0;
#X connect 28 0 27 1;
#X connect 29 0 28 1;
#X connect 30 0 16 0;
#X connect 32 0 44 0;
#X connect 33 0 38 0;
#X connect 33 1 41 0;
#X connect 33 1 42 0;
#X connect 34 0 36 1;
#X connect 34 0 35 1;
#X connect 35 0 15 0;
#X connect 36 0 31 0;
#X connect 37 0 34 0;
#X connect 38 0 40 0;
#X connect 40 0 37 0;
#X connect 40 1 39 0;
#X connect 41 0 37 0;
#X connect 42 0 43 0;
#X connect 43 0 39 0;
#X connect 44 0 33 0;
#X restore 238 404 pd gloubi;
#X msg 256 272 \$1 50;
#X obj 256 296 line~;
#X obj 256 224 + 100;
#X obj 256 248 dbtorms;
#X obj 256 200 r \$0-drive;
#N canvas 104 104 1366 685 tubby3 0;
#X obj 37 151 *~ 3;
#X obj 37 175 *~, f 9;
#X obj 97 103 loadbang;
#X msg 97 127 1;
#X obj 97 151 -~, f 10;
#X obj 164 103 pow~ 2;
#X obj 164 127 /~ 3;
#X obj 37 54 inlet~;
#X obj 37 327 outlet~;
#X obj 37 199 *~ 0.8;
#X obj 237 151 *~ 3;
#X obj 237 175 *~, f 9;
#X obj 297 103 loadbang;
#X msg 297 127 1;
#X obj 297 151 -~, f 10;
#X obj 364 103 pow~ 2;
#X obj 364 127 /~ 3;
#X obj 237 54 inlet~;
#X obj 237 327 outlet~;
#X obj 237 199 *~ 0.8;
#X obj 457 52 r \$0-mode;
#X obj 457 100 sel 1 0, f 13;
#X obj 457 226 line~;
#X msg 457 202 \$1 50;
#X msg 457 139 1;
#X obj 536 202 switch~;
#X obj 457 163 t f f;
#X msg 501 139 0;
#X obj 536 139 delay 50;
#X msg 536 163 0;
#X obj 37 288 *~;
#X obj 237 288 *~;
#X obj 37 122 *~ 0.4;
#X obj 237 122 *~ 0.4;
#X obj 457 76 == 0;
#X connect 0 0 1 0;
#X connect 1 0 9 0;
#X connect 2 0 3 0;
#X connect 3 0 4 0;
#X connect 4 0 1 1;
#X connect 5 0 6 0;
#X connect 6 0 4 1;
#X connect 7 0 5 0;
#X connect 7 0 32 0;
#X connect 9 0 30 0;
#X connect 10 0 11 0;
#X connect 11 0 19 0;
#X connect 12 0 13 0;
#X connect 13 0 14 0;
#X connect 14 0 11 1;
#X connect 15 0 16 0;
#X connect 16 0 14 1;
#X connect 17 0 15 0;
#X connect 17 0 33 0;
#X connect 19 0 31 0;
#X connect 20 0 34 0;
#X connect 21 0 24 0;
#X connect 21 1 27 0;
#X connect 21 1 28 0;
#X connect 22 0 31 1;
#X connect 22 0 30 1;
#X connect 23 0 22 0;
#X connect 24 0 26 0;
#X connect 26 0 23 0;
#X connect 26 1 25 0;
#X connect 27 0 23 0;
#X connect 28 0 29 0;
#X connect 29 0 25 0;
#X connect 30 0 8 0;
#X connect 31 0 18 0;
#X connect 32 0 0 0;
#X connect 33 0 10 0;
#X connect 34 0 21 0;
#X restore 315 404 pd tubby3;
#N canvas 991 257 1366 685 tubby4 0;
#X obj 37 18 inlet~;
#X obj 37 141 /~;
#X obj 54 70 abs~;
#X obj 37 205 *~, f 6;
#X obj 76 133 loadbang;
#X msg 76 157 1;
#X obj 76 181 -~, f 10;
#X obj 143 152 exp~;
#X obj 143 84 *~;
#X obj 143 123 /~;
#X obj 37 253 *~ -1.4;
#X obj 37 331 outlet~;
#X obj 37 229 *~ 0.4;
#X obj 227 18 inlet~;
#X obj 227 141 /~;
#X obj 244 70 abs~;
#X obj 227 205 *~, f 6;
#X obj 266 133 loadbang;
#X msg 266 157 1;
#X obj 266 181 -~, f 10;
#X obj 333 152 exp~;
#X obj 333 84 *~;
#X obj 333 123 /~;
#X obj 227 253 *~ -1.4;
#X obj 227 331 outlet~;
#X obj 227 229 *~ 0.4;
#X obj 457 52 r \$0-mode;
#X obj 457 100 sel 1 0, f 13;
#X obj 457 226 line~;
#X msg 457 202 \$1 50;
#X msg 457 139 1;
#X obj 536 202 switch~;
#X obj 457 163 t f f;
#X msg 501 139 0;
#X obj 536 139 delay 50;
#X msg 536 163 0;
#X obj 37 292 *~;
#X obj 227 292 *~;
#X obj 457 76 == 2;
#X connect 0 0 1 0;
#X connect 0 0 2 0;
#X connect 0 0 8 0;
#X connect 0 0 8 1;
#X connect 1 0 3 0;
#X connect 2 0 1 1;
#X connect 2 0 9 1;
#X connect 3 0 12 0;
#X connect 4 0 5 0;
#X connect 5 0 6 0;
#X connect 6 0 3 1;
#X connect 7 0 6 1;
#X connect 8 0 9 0;
#X connect 9 0 7 0;
#X connect 10 0 36 0;
#X connect 12 0 10 0;
#X connect 13 0 14 0;
#X connect 13 0 15 0;
#X connect 13 0 21 0;
#X connect 13 0 21 1;
#X connect 14 0 16 0;
#X connect 15 0 14 1;
#X connect 15 0 22 1;
#X connect 16 0 25 0;
#X connect 17 0 18 0;
#X connect 18 0 19 0;
#X connect 19 0 16 1;
#X connect 20 0 19 1;
#X connect 21 0 22 0;
#X connect 22 0 20 0;
#X connect 23 0 37 0;
#X connect 25 0 23 0;
#X connect 26 0 38 0;
#X connect 27 0 30 0;
#X connect 27 1 33 0;
#X connect 27 1 34 0;
#X connect 28 0 37 1;
#X connect 28 0 36 1;
#X connect 29 0 28 0;
#X connect 30 0 32 0;
#X connect 32 0 29 0;
#X connect 32 1 31 0;
#X connect 33 0 29 0;
#X connect 34 0 35 0;
#X connect 35 0 31 0;
#X connect 36 0 11 0;
#X connect 37 0 24 0;
#X connect 38 0 27 0;
#X restore 392 404 pd tubby4;
#X obj 298 622 *~;
#X obj 106 109 hradio 10 1 0 4 \$0-mode \$0-mode-r Tubby-4 1 17 0 10
#ffffff #000000 #000000 0;
#N canvas 0 0 1365 704 modes 0;
#X obj 238 283 symbol;
#X msg 238 312 label \$1;
#X obj 179 184 r \$0-mode;
#X obj 238 340 s \$0-mode-r;
#X msg 418 244 Freeman;
#X obj 179 207 sel 0 1 2 3, f 46;
#X msg 338 244 Tubby-4;
#X msg 238 244 Gloubi-boulga;
#X msg 179 244 Tubby-3;
#X connect 0 0 1 0;
#X connect 1 0 3 0;
#X connect 2 0 5 0;
#X connect 4 0 0 0;
#X connect 5 0 8 0;
#X connect 5 1 7 0;
#X connect 5 2 6 0;
#X connect 5 3 4 0;
#X connect 6 0 0 0;
#X connect 7 0 0 0;
#X connect 8 0 0 0;
#X restore 71 458 pd modes;
#X obj 218 651 outlet~;
#X obj 328 651 outlet~;
#X obj 218 22 inlet~;
#X obj 348 345 *~;
#X obj 328 22 inlet~;
#N canvas 676 0 681 676 freeman 0;
#X obj 37 18 inlet~;
#X obj 37 361 outlet~;
#X obj 457 52 r \$0-mode;
#X obj 457 100 sel 1 0, f 13;
#X obj 457 226 line~;
#X msg 457 202 \$1 50;
#X msg 457 139 1;
#X obj 536 202 switch~;
#X obj 457 163 t f f;
#X msg 501 139 0;
#X obj 536 139 delay 50;
#X msg 536 163 0;
#X obj 37 322 *~;
#X obj 457 76 == 3;
#X obj 37 105 abs~;
#X obj 37 81 *~ 2;
#X obj 37 129 -~, f 6;
#X obj 76 81 pow~ 2;
#X obj 76 105 *~, f 8;
#X obj 129 57 abs~;
#X obj 129 81 /~;
#X obj 37 153 *~ 0.707;
#X obj 167 18 inlet~;
#X obj 167 105 abs~;
#X obj 167 81 *~ 2;
#X obj 167 129 -~, f 6;
#X obj 206 81 pow~ 2;
#X obj 206 105 *~, f 8;
#X obj 259 57 abs~;
#X obj 259 81 /~;
#X obj 167 153 *~ 0.707;
#X obj 167 322 *~;
#X obj 167 361 outlet~;
#X connect 0 0 15 0;
#X connect 0 0 17 0;
#X connect 0 0 19 0;
#X connect 2 0 13 0;
#X connect 3 0 6 0;
#X connect 3 1 9 0;
#X connect 3 1 10 0;
#X connect 4 0 12 1;
#X connect 4 0 31 1;
#X connect 5 0 4 0;
#X connect 6 0 8 0;
#X connect 8 0 5 0;
#X connect 8 1 7 0;
#X connect 9 0 5 0;
#X connect 10 0 11 0;
#X connect 11 0 7 0;
#X connect 12 0 1 0;
#X connect 13 0 3 0;
#X connect 14 0 16 0;
#X connect 15 0 14 0;
#X connect 16 0 21 0;
#X connect 17 0 18 0;
#X connect 18 0 16 1;
#X connect 19 0 20 0;
#X connect 20 0 18 1;
#X connect 21 0 12 0;
#X connect 22 0 24 0;
#X connect 22 0 26 0;
#X connect 22 0 28 0;
#X connect 23 0 25 0;
#X connect 24 0 23 0;
#X connect 25 0 30 0;
#X connect 26 0 27 0;
#X connect 27 0 25 1;
#X connect 28 0 29 0;
#X connect 29 0 27 1;
#X connect 30 0 31 0;
#X connect 31 0 32 0;
#X restore 469 404 pd freeman;
#X obj 366 94 == 0;
#X msg 366 118 \$1 1;
#X obj 366 142 line~;
#X obj 238 171 *~;
#X obj 348 171 *~;
#X obj 461 622 r \$0-state;
#X obj 461 651 outlet;
#X obj 488 26 inlet;
#N canvas 26 26 450 300 route-inlet-messages 0;
#X obj 37 37 inlet;
#X obj 37 61 route mode float out bypass state;
#X obj 37 85 s \$0-mode;
#X obj 82 109 s \$0-drive;
#X obj 128 85 s \$0-out;
#X obj 173 109 != 0;
#X obj 173 133 s \$0-byp;
#N canvas 52 52 450 397 state 0;
#X obj 59 10 inlet;
#X obj 59 87 f;
#X obj 59 211 pack f f f f;
#X obj 113 145 r \$0-out;
#X obj 140 174 r \$0-byp;
#X obj 59 34 t b b, f 6;
#X obj 77 63 r \$0-drive;
#X obj 86 116 r \$0-mode;
#X msg 59 235 add2 \$1 \, addcomma \, add2 mode \$2 \, addcomma \,
add2 out \$3 \, addcomma \, add2 byp \$4;
#X obj 59 317 s \$0-state;
#X msg 98 288 set;
#X connect 0 0 5 0;
#X connect 1 0 2 0;
#X connect 2 0 8 0;
#X connect 3 0 2 2;
#X connect 4 0 2 3;
#X connect 5 0 1 0;
#X connect 5 1 10 0;
#X connect 6 0 1 1;
#X connect 7 0 2 1;
#X connect 8 0 9 0;
#X connect 10 0 9 0;
#X restore 219 192 pd state;
#X obj 14 196 r \$0-error;
#X msg 14 246 se recibió un mensaje desconocido;
#X msg 14 221 bang;
#X obj 265 90 s \$0-error;
#X obj 14 271 print warmthy~;
#X obj 307 22 loadbang;
#X msg 307 46 0;
#X connect 0 0 1 0;
#X connect 1 0 2 0;
#X connect 1 1 3 0;
#X connect 1 2 4 0;
#X connect 1 3 5 0;
#X connect 1 4 7 0;
#X connect 1 5 11 0;
#X connect 5 0 6 0;
#X connect 8 0 10 0;
#X connect 9 0 12 0;
#X connect 10 0 9 0;
#X connect 13 0 14 0;
#X connect 14 0 4 0;
#X connect 14 0 6 0;
#X connect 14 0 3 0;
#X connect 14 0 2 0;
#X restore 488 50 pd route-inlet-messages;
#X connect 0 0 18 0;
#X connect 0 0 24 0;
#X connect 0 0 25 0;
#X connect 0 0 34 0;
#X connect 1 0 3 0;
#X connect 2 0 1 0;
#X connect 3 0 4 0;
#X connect 4 0 5 1;
#X connect 4 0 26 1;
#X connect 5 0 29 0;
#X connect 6 0 2 0;
#X connect 7 0 8 0;
#X connect 7 0 35 0;
#X connect 8 0 9 0;
#X connect 9 0 10 1;
#X connect 9 0 11 1;
#X connect 10 0 29 0;
#X connect 11 0 30 0;
#X connect 18 0 5 0;
#X connect 18 1 26 0;
#X connect 19 0 20 0;
#X connect 20 0 0 1;
#X connect 20 0 32 1;
#X connect 21 0 22 0;
#X connect 22 0 19 0;
#X connect 23 0 21 0;
#X connect 24 0 5 0;
#X connect 24 1 26 0;
#X connect 25 0 5 0;
#X connect 25 1 26 0;
#X connect 26 0 30 0;
#X connect 31 0 38 0;
#X connect 31 0 10 0;
#X connect 32 0 18 1;
#X connect 32 0 24 1;
#X connect 32 0 25 1;
#X connect 32 0 34 1;
#X connect 33 0 39 0;
#X connect 33 0 11 0;
#X connect 34 0 5 0;
#X connect 34 1 26 0;
#X connect 35 0 36 0;
#X connect 36 0 37 0;
#X connect 37 0 39 1;
#X connect 37 0 38 1;
#X connect 38 0 0 0;
#X connect 39 0 32 0;
#X connect 40 0 41 0;
#X connect 42 0 43 0;
#X coords 0 -1 1 1 90 122 2 100 100;
