#N canvas 52 52 1366 685 12;
#N canvas 52 52 450 300 delwrite 0;
#X obj 42 25 inlet~;
#X obj 42 64 outlet~;
#X obj 105 54 delwrite~ \$0-delL 12;
#X connect 0 0 1 0;
#X connect 0 0 2 0;
#X restore 256 215 pd delwrite;
#N canvas 480 116 450 300 delread 0;
#X obj 37 37 inlet~;
#X obj 93 37 inlet~;
#X obj 37 119 outlet~;
#X obj 93 66 delread4~ \$0-delL;
#X connect 1 0 3 0;
#X connect 3 0 2 0;
#X restore 256 244 pd delread;
#X msg 423 152 \$1 5;
#X obj 423 176 line~;
#N canvas 52 52 450 300 delwrite 0;
#X obj 42 25 inlet~;
#X obj 42 64 outlet~;
#X obj 105 54 delwrite~ \$0-delR 12;
#X connect 0 0 1 0;
#X connect 0 0 2 0;
#X restore 356 215 pd delwrite;
#N canvas 751 126 450 300 delread 0;
#X obj 37 37 inlet~;
#X obj 93 37 inlet~;
#X obj 37 119 outlet~;
#X obj 93 66 delread4~ \$0-delR;
#X connect 1 0 3 0;
#X connect 3 0 2 0;
#X restore 356 244 pd delread;
#X obj 256 268 *~ -1;
#X obj 238 355 +~;
#X obj 374 94 * 0.01;
#X obj 338 355 +~;
#X obj 256 326 *~;
#X obj 356 326 *~;
#X obj 374 297 line~;
#X msg 374 273 \$1 10;
#X obj 256 162 hip~;
#X obj 256 186 hip~;
#X obj 356 162 hip~;
#X obj 356 186 hip~;
#X obj 331 123 r \$0-hipass;
#X obj 374 70 r \$0-wide;
#X obj 423 123 * 12;
#X obj 238 41 inlet~;
#X obj 338 41 inlet~;
#X obj 438 384 r \$0-mono;
#N canvas 130 130 450 300 mono 0;
#X obj 81 30 inlet~;
#X obj 151 30 inlet~;
#X obj 116 69 +~, f 9;
#X obj 81 239 outlet~;
#X obj 151 239 outlet~;
#X obj 211 30 inlet;
#X obj 116 190 *~;
#X obj 151 190 *~, f 7;
#X obj 197 69 == 0;
#X obj 81 190 *~;
#X obj 246 69 != 0;
#X obj 246 93 * 0.5;
#X msg 246 117 \$1 1;
#X obj 246 141 line~;
#X msg 197 93 \$1 1;
#X obj 197 117 line~;
#X connect 0 0 2 0;
#X connect 0 0 9 0;
#X connect 1 0 2 1;
#X connect 1 0 7 0;
#X connect 2 0 6 0;
#X connect 5 0 8 0;
#X connect 5 0 10 0;
#X connect 6 0 3 0;
#X connect 6 0 4 0;
#X connect 7 0 4 0;
#X connect 8 0 14 0;
#X connect 9 0 3 0;
#X connect 10 0 11 0;
#X connect 11 0 12 0;
#X connect 12 0 13 0;
#X connect 13 0 6 1;
#X connect 14 0 15 0;
#X connect 15 0 7 1;
#X connect 15 0 9 1;
#X restore 238 409 pd mono;
#X f 29;
#X obj 238 433 outlet~;
#X obj 438 433 outlet~;
#X obj 101 104 cnv 15 80 84 empty empty empty 20 12 0 14 #ffffff #404040
0;
#X obj 106 121 nbx 3 15 0 100 0 0 \$0-wide \$0-wide-r wide 0 -8 0 10
#000000 #ffffff #202020 0 256;
#X obj 146 126 cnv 13 10 6 empty \$0-text % 1 2 0 10 #ffffff #000000
0;
#X obj 106 153 nbx 5 15 20 15000 0 0 \$0-hipass \$0-hipass-r hipass
0 -8 0 10 #000000 #ffffff #202020 0 256;
#X obj 164 158 cnv 13 10 6 empty \$0-text Hz 1 2 0 10 #ffffff #000000
0;
#X obj 106 173 tgl 10 0 \$0-mono \$0-mono-r mono 15 4 0 10 #000000
#fcfcfc #000000 0 1;
#X obj 580 36 inlet;
#X obj 679 149 s \$0-mono-r;
#X obj 580 149 s \$0-wide-r;
#X obj 629 173 s \$0-hipass-r;
#X obj 525 433 outlet;
#X obj 525 404 r \$0-state;
#X obj 779 309 f;
#X obj 797 280 r \$0-wide;
#X obj 779 367 pack f f f;
#X obj 779 212 t b b, f 7;
#X msg 825 435 set;
#X obj 779 464 s \$0-state;
#X obj 812 309 r \$0-hipass;
#X obj 846 338 r \$0-mono;
#X msg 779 396 add2 \$1 \, addcomma \, add2 hipass \$2 \, addcomma
\, add2 mono \$3;
#X obj 661 6 loadbang;
#X msg 661 30 0;
#X obj 580 60 route float hipass mono bypass state;
#X obj 679 89 != 0;
#X connect 0 0 1 0;
#X connect 1 0 6 0;
#X connect 2 0 3 0;
#X connect 3 0 1 1;
#X connect 3 0 5 1;
#X connect 4 0 5 0;
#X connect 5 0 11 0;
#X connect 6 0 10 0;
#X connect 7 0 24 0;
#X connect 8 0 13 0;
#X connect 8 0 20 0;
#X connect 9 0 24 1;
#X connect 10 0 7 1;
#X connect 11 0 9 1;
#X connect 12 0 11 1;
#X connect 12 0 10 1;
#X connect 13 0 12 0;
#X connect 14 0 15 0;
#X connect 15 0 0 0;
#X connect 16 0 17 0;
#X connect 17 0 4 0;
#X connect 18 0 16 1;
#X connect 18 0 17 1;
#X connect 18 0 14 1;
#X connect 18 0 15 1;
#X connect 19 0 8 0;
#X connect 20 0 2 0;
#X connect 21 0 14 0;
#X connect 21 0 7 0;
#X connect 22 0 9 0;
#X connect 22 0 16 0;
#X connect 23 0 24 2;
#X connect 24 0 25 0;
#X connect 24 1 26 0;
#X connect 33 0 50 0;
#X connect 38 0 37 0;
#X connect 39 0 41 0;
#X connect 40 0 39 1;
#X connect 41 0 47 0;
#X connect 42 0 39 0;
#X connect 42 1 43 0;
#X connect 43 0 44 0;
#X connect 45 0 41 1;
#X connect 46 0 41 2;
#X connect 47 0 44 0;
#X connect 48 0 49 0;
#X connect 49 0 34 0;
#X connect 49 0 36 0;
#X connect 49 0 35 0;
#X connect 50 0 35 0;
#X connect 50 1 36 0;
#X connect 50 2 51 0;
#X connect 50 3 51 0;
#X connect 50 4 42 0;
#X connect 51 0 34 0;
#X coords 0 -1 1 1 82 92 2 100 100;
